<svg width="14" height="18" viewBox="0 0 14 18" fill="none" xmlns="http://www.w3.org/2000/svg">
<path d="M13.4164 8.24804L1.18442 0.0456175C1.14395 0.0184604 1.09686 0.00281196 1.04818 0.000344838C0.999507 -0.00212229 0.951075 0.00868467 0.908064 0.0316105C0.865054 0.0545364 0.829081 0.0887192 0.803993 0.130505C0.778904 0.172291 0.765642 0.22011 0.765625 0.268849V16.9487C0.765638 16.9978 0.77908 17.0459 0.804497 17.0879C0.829913 17.1299 0.866336 17.1642 0.90982 17.187C0.953304 17.2097 1.00219 17.2202 1.05119 17.2172C1.10019 17.2142 1.14744 17.1978 1.18781 17.1699L13.4198 8.69256C13.4558 8.66762 13.4852 8.63425 13.5054 8.59535C13.5256 8.55646 13.536 8.51322 13.5356 8.4694C13.5353 8.42558 13.5242 8.3825 13.5035 8.34392C13.4827 8.30534 13.4528 8.27243 13.4164 8.24804ZM1.30369 4.6595L7.22157 8.5479L1.30369 12.5499V4.6595ZM1.30369 16.4348V13.1996L7.85735 8.76746C7.89402 8.74263 7.924 8.70913 7.94462 8.66994C7.96524 8.63074 7.97587 8.58706 7.97555 8.54278C7.97524 8.49849 7.964 8.45497 7.94283 8.41607C7.92166 8.37717 7.89121 8.3441 7.85419 8.31979L1.30369 4.0158V0.773279L12.789 8.47504L1.30369 16.4348Z" fill="black" fill-opacity="0.4"/>
</svg>
