<svg width="20" height="21" viewBox="0 0 20 21" fill="none" xmlns="http://www.w3.org/2000/svg">
<path d="M20 10.5C20 16.0228 15.5228 20.5 10 20.5C4.47715 20.5 0 16.0228 0 10.5C0 4.97715 4.47715 0.5 10 0.5C15.5228 0.5 20 4.97715 20 10.5Z" fill="white"/>
<path fill-rule="evenodd" clip-rule="evenodd" d="M11.7429 15.7008C11.5252 15.9882 11.1482 16.0887 10.8462 15.9132C10.4304 15.6723 10.3406 15.0976 10.6236 14.7238L12.6105 12.1007C12.707 11.973 12.6237 11.7808 12.4718 11.7808L5.74823 11.7808C5.37356 11.7808 5.03889 11.4829 5.00338 11.077C4.96249 10.6114 5.29788 10.2198 5.71738 10.2198L12.4718 10.2198C12.6237 10.2198 12.707 10.0276 12.6105 9.90001L10.6457 7.30599C10.3919 6.97095 10.4098 6.46304 10.7153 6.18322C10.85 6.0601 11.0139 6 11.1767 6C11.3837 6 11.5891 6.09698 11.7309 6.28411L14.7736 10.3014C15.0755 10.7 15.0755 11.301 14.7736 11.6993L11.7429 15.7008Z" fill="#000632"/>
</svg>
