<svg width="10" height="10" viewBox="0 0 10 10" fill="none" xmlns="http://www.w3.org/2000/svg">
<path d="M9.94229 1.79504C9.88504 1.713 9.79293 1.66229 9.69288 1.65801L3.48979 1.39063C3.31181 1.38285 3.16308 1.52025 3.15547 1.6974C3.14791 1.87448 3.28509 2.02411 3.46222 2.03172L9.24535 2.28102L8.10826 5.8288H3.0481L2.1339 0.851083C2.11381 0.741987 2.03891 0.650972 1.93561 0.610445L0.438314 0.0222199C0.273293 -0.0423875 0.0870795 0.0386682 0.0222707 0.203487C-0.0424262 0.368396 0.0386072 0.554722 0.203538 0.61953L1.53487 1.14254L2.4652 6.20763C2.49324 6.3599 2.62595 6.47049 2.78083 6.47049H2.93515L2.58275 7.44934C2.55326 7.53133 2.56541 7.62239 2.61561 7.69362C2.66574 7.76488 2.74726 7.80726 2.83429 7.80726H3.08146C2.9283 7.97772 2.83429 8.20216 2.83429 8.44897C2.83429 8.97975 3.26618 9.41152 3.79685 9.41152C4.32751 9.41152 4.7594 8.97975 4.7594 8.44897C4.7594 8.20218 4.66539 7.97772 4.51225 7.80726H6.61086C6.45763 7.97772 6.36364 8.20216 6.36364 8.44897C6.36364 8.97975 6.79542 9.41152 7.32619 9.41152C7.85699 9.41152 8.28875 8.97975 8.28875 8.44897C8.28875 8.20218 8.19476 7.97772 8.04164 7.80726H8.34223C8.48993 7.80726 8.60961 7.68756 8.60961 7.5399C8.60961 7.3922 8.48991 7.27252 8.34223 7.27252H3.21473L3.50346 6.4704H8.34221C8.48174 6.4704 8.60521 6.38026 8.6477 6.24751L9.98459 2.07641C10.0153 1.98121 9.99953 1.87712 9.94229 1.79504ZM3.79687 8.87688C3.56093 8.87688 3.36905 8.68502 3.36905 8.44908C3.36905 8.21314 3.56093 8.02127 3.79687 8.02127C4.03281 8.02127 4.22466 8.21314 4.22466 8.44908C4.22466 8.68502 4.03281 8.87688 3.79687 8.87688ZM7.32619 8.87688C7.09025 8.87688 6.8984 8.68502 6.8984 8.44908C6.8984 8.21314 7.09025 8.02127 7.32619 8.02127C7.56213 8.02127 7.75399 8.21314 7.75399 8.44908C7.75399 8.68502 7.56213 8.87688 7.32619 8.87688Z" fill="white"/>
</svg>
