<svg width="28" height="24" viewBox="0 0 28 24" fill="none" xmlns="http://www.w3.org/2000/svg">
<path d="M0.913051 0C0.408773 0 0 0.402945 0 0.9C0 1.39706 0.408773 1.8 0.913051 1.8H4.55576C6.06692 5.48925 7.5554 9.18524 9.05442 12.8813L7.67535 16.1531C7.55981 16.4259 7.59232 16.7548 7.75907 17.0005C7.92586 17.2462 8.22193 17.4012 8.52181 17.4H23.7393C24.2217 17.4066 24.6654 16.9755 24.6654 16.5C24.6654 16.0245 24.2217 15.5933 23.7393 15.6H9.89138L10.6808 13.7438L25.3372 12.5906C25.7208 12.5609 26.068 12.2663 26.1551 11.8969L27.9812 4.09688C28.1006 3.57151 27.6334 2.99825 27.0872 3H7.00955L6.02041 0.5625C5.88498 0.232554 5.53503 9e-06 5.17395 0H0.913051ZM7.74191 4.8H25.9364L24.5192 10.8563L10.6428 11.9438L7.74191 4.8ZM11.5653 18C9.89525 18 8.52181 19.3538 8.52181 21C8.52181 22.6462 9.89525 24 11.5653 24C13.2354 24 14.6088 22.6462 14.6088 21C14.6088 19.3538 13.2354 18 11.5653 18ZM20.6958 18C19.0258 18 17.6523 19.3538 17.6523 21C17.6523 22.6462 19.0258 24 20.6958 24C22.3659 24 23.7393 22.6462 23.7393 21C23.7393 19.3538 22.3659 18 20.6958 18ZM11.5653 19.8C12.2485 19.8 12.7827 20.3266 12.7827 21C12.7827 21.6734 12.2485 22.2 11.5653 22.2C10.8822 22.2 10.3479 21.6734 10.3479 21C10.3479 20.3266 10.8822 19.8 11.5653 19.8ZM20.6958 19.8C21.3789 19.8 21.9132 20.3266 21.9132 21C21.9132 21.6734 21.3789 22.2 20.6958 22.2C20.0126 22.2 19.4784 21.6734 19.4784 21C19.4784 20.3266 20.0126 19.8 20.6958 19.8Z" fill="black"/>
</svg>
