<svg width="35" height="52" viewBox="0 0 35 52" fill="none" xmlns="http://www.w3.org/2000/svg">
<path d="M33.4858 28.7381C32.5201 27.3848 31.1962 26.2365 29.6168 25.3825C28.0791 24.5494 26.4085 23.9038 24.6549 23.465C23.6877 23.2131 22.5173 22.9531 21.1825 22.6525C20.1089 22.4006 18.9385 22.165 17.1298 21.84C15.2553 21.5075 13.4151 21.0511 11.6262 20.475C10.7525 20.1754 9.97888 19.7012 9.37253 19.0938C8.87656 18.551 8.63248 17.8753 8.68579 17.1925C8.68579 17.0869 8.68579 16.9894 8.68579 16.8837C8.72387 16.3078 8.96268 15.754 9.37253 15.2912C10.0991 14.5497 11.0519 13.988 12.1292 13.6662C13.9031 13.1632 15.7716 12.9374 17.6424 13C19.0922 13.0001 20.5358 13.1586 21.937 13.4713C22.8653 13.6923 23.7397 14.05 24.5195 14.5275C25.0146 14.8265 25.4379 15.2014 25.7672 15.6325L27.8661 18.3625L34.3756 14.8444L32.2767 12.1144C31.4272 10.9991 30.3344 10.0287 29.0558 9.25437C27.5482 8.3329 25.8586 7.64249 24.0649 7.215C23.3675 7.04937 22.6605 6.91378 21.9466 6.80875V0H14.2087V6.67062C12.6592 6.83504 11.133 7.129 9.65303 7.54813C7.23681 8.24647 5.09318 9.48533 3.45304 11.1313L3.34664 11.2369C1.85732 12.8261 1.01024 14.773 0.928547 16.7944C0.76722 19.0213 1.55976 21.2231 3.16287 23.0019L3.28861 23.14C4.77062 24.6616 6.69679 25.8345 8.87924 26.5444C11.0432 27.2319 13.2683 27.7753 15.5338 28.1694C17.1878 28.4781 18.2421 28.6894 19.19 28.9169H19.2964C20.5248 29.1769 21.5597 29.4125 22.4593 29.64C23.5079 29.8998 24.5076 30.2827 25.4287 30.7775C25.9786 31.0842 26.441 31.4893 26.7828 31.9638C27.1325 32.5472 27.299 33.1961 27.2664 33.8487C27.2664 33.8975 27.2664 33.9463 27.2664 33.995C27.2995 34.7839 27.0318 35.561 26.5023 36.2131C25.7335 37.1134 24.6626 37.8008 23.4265 38.1875C21.549 38.7914 19.5448 39.0679 17.536 39H17.2942C15.1156 39.0556 12.9528 38.671 10.9878 37.8788C10.016 37.4378 9.18369 36.8082 8.56005 36.0425L6.35475 33.3694L0 37.0744L2.2053 39.7475C3.55139 41.3858 5.3459 42.7289 7.43806 43.6638L7.54445 43.7044C9.64397 44.5588 11.8947 45.1213 14.2087 45.37V52H21.9466V45.2238C23.4163 45.0077 24.8555 44.6646 26.2412 44.2C28.8504 43.3644 31.115 41.9109 32.7603 40.0156C34.0719 38.3793 34.8373 36.4776 34.9768 34.5085C35.1163 32.5393 34.6248 30.5748 33.5535 28.8194L33.4858 28.7381Z" fill="black"/>
</svg>
