<svg width="26" height="28" viewBox="0 0 26 28" fill="none" xmlns="http://www.w3.org/2000/svg">
<path d="M20 0H6C5.44771 2.41411e-08 5 0.447715 5 1V16.213L13 20.845L21 16.213V1C21 0.447715 20.5523 0 20 0ZM9 4H17C17.5523 4 18 4.44771 18 5C18 5.55229 17.5523 6 17 6H9C8.44771 6 8 5.55229 8 5C8 4.44771 8.44771 4 9 4ZM11 14H9C8.44771 14 8 13.5523 8 13C8 12.4477 8.44771 12 9 12H11C11.5523 12 12 12.4477 12 13C12 13.5523 11.5523 14 11 14ZM17 14H15C14.4477 14 14 13.5523 14 13C14 12.4477 14.4477 12 15 12H17C17.5523 12 18 12.4477 18 13C18 13.5523 17.5523 14 17 14ZM17 10H9C8.44771 10 8 9.55229 8 9C8 8.44771 8.44771 8 9 8H17C17.5523 8 18 8.44771 18 9C18 9.55229 17.5523 10 17 10ZM26 15.629V27C26 27.5523 25.5523 28 25 28H1C0.447715 28 0 27.5523 0 27V15.629L12.5 22.865C12.8094 23.0436 13.1906 23.0436 13.5 22.865L26 15.629ZM3 15.055L0 13.318V13C-4.7527e-08 12.6852 0.148194 12.3889 0.4 12.2L3 10.25V15.055ZM26 13V13.318L23 15.055V10.255L25.6 12.205C25.8504 12.3928 25.9984 12.687 26 13Z" fill="black"/>
</svg>
