<svg width="30" height="30" viewBox="0 0 30 30" fill="none" xmlns="http://www.w3.org/2000/svg">
<path d="M29.8799 14.62C29.8799 6.55 23.3299 0 15.2599 0C7.17989 0 0.639893 6.55 0.639893 14.62C0.639893 21.92 5.98989 27.97 12.9799 29.06V18.85H9.26989V14.62H12.9799V11.4C12.9799 7.74 15.1599 5.71 18.4999 5.71C20.0999 5.71 21.7699 6 21.7699 6V9.6H19.9299C18.1099 9.6 17.5499 10.73 17.5499 11.88V14.62H21.6099L20.9599 18.85H17.5499V29.07C24.5299 27.97 29.8799 21.92 29.8799 14.62Z" fill="black"/>
<path d="M20.95 18.85L21.6 14.62H17.54V11.88C17.54 10.72 18.11 9.59996 19.92 9.59996H21.76V5.99996C21.76 5.99996 20.09 5.70996 18.49 5.70996C15.15 5.70996 12.97 7.72996 12.97 11.4V14.62H9.26001V18.85H12.97V29.07C13.71 29.19 14.48 29.25 15.25 29.25C16.03 29.25 16.79 29.19 17.53 29.07V18.85H20.95Z" fill="white"/>
</svg>
