<svg width="30" height="30" viewBox="0 0 30 30" fill="none" xmlns="http://www.w3.org/2000/svg">
<path d="M15.3502 29.24C23.4246 29.24 29.9702 22.6944 29.9702 14.62C29.9702 6.5456 23.4246 0 15.3502 0C7.27582 0 0.730225 6.5456 0.730225 14.62C0.730225 22.6944 7.27582 29.24 15.3502 29.24Z" fill="black"/>
<path d="M19.8901 9.08984C19.3301 9.08984 18.8801 9.53984 18.8801 10.0898C18.8801 10.6498 19.3301 11.0998 19.8901 11.0998C20.4501 11.0998 20.9001 10.6498 20.9001 10.0898C20.8901 9.53984 20.4401 9.08984 19.8901 9.08984Z" fill="white"/>
<path d="M15.4199 10.3799C13.0899 10.3799 11.2 12.2699 11.2 14.5999C11.2 16.9299 13.0899 18.8199 15.4199 18.8199C17.7499 18.8199 19.6399 16.9299 19.6399 14.5999C19.6399 12.2699 17.7499 10.3799 15.4199 10.3799ZM15.4199 17.3099C13.9299 17.3099 12.7199 16.0999 12.7199 14.6099C12.7199 13.1199 13.9299 11.9099 15.4199 11.9099C16.9099 11.9099 18.1199 13.1199 18.1199 14.6099C18.1199 16.0999 16.9099 17.3099 15.4199 17.3099Z" fill="white"/>
<path d="M18.77 23.1698H11.93C9.09003 23.1698 6.78003 20.8598 6.78003 18.0198V11.1798C6.78003 8.33978 9.09003 6.02979 11.93 6.02979H18.77C21.61 6.02979 23.92 8.33978 23.92 11.1798V18.0198C23.92 20.8598 21.61 23.1698 18.77 23.1698ZM11.93 7.63978C9.98003 7.63978 8.39003 9.22978 8.39003 11.1798V18.0198C8.39003 19.9698 9.98003 21.5598 11.93 21.5598H18.77C20.72 21.5598 22.31 19.9698 22.31 18.0198V11.1798C22.31 9.22978 20.72 7.63978 18.77 7.63978H11.93V7.63978Z" fill="white"/>
</svg>
