<svg width="490" height="549" viewBox="0 0 490 549" fill="none" xmlns="http://www.w3.org/2000/svg">
<path opacity="0.3" d="M486.581 168.145C488.064 165.577 485.879 161.54 481.7 159.127C477.522 156.715 472.933 156.841 471.451 159.41C469.968 161.978 472.153 166.015 476.331 168.427C480.509 170.84 485.098 170.713 486.581 168.145Z" fill="url(#paint0_linear)"/>
<path opacity="0.4" d="M18.7921 533.839C15.7448 532.356 14.3908 528.971 16.4058 527.873L36.004 517.197C37.9413 516.142 41.569 518.007 42.6034 520.591L52.6579 545.699C53.6929 548.283 51.376 549.698 48.4448 548.271L18.7921 533.839Z" fill="url(#paint1_linear)"/>
<path d="M53.7199 8.38264C53.7199 5.68449 55.9077 3.5 58.61 3.5C61.3122 3.5 63.5 5.68449 63.5 8.38264C63.5 11.0808 61.3122 13.2653 58.61 13.2653C55.9077 13.2653 53.7199 11.0808 53.7199 8.38264Z" fill="white" fill-opacity="0.24"/>
<path d="M53.7199 29.1478C53.7199 26.4496 55.9077 24.2651 58.61 24.2651C61.3122 24.2651 63.5 26.4496 63.5 29.1478C63.5 31.8459 61.3122 34.0304 58.61 34.0304C55.9077 34.0363 53.7199 31.8459 53.7199 29.1478Z" fill="white" fill-opacity="0.24"/>
<path d="M53.7199 49.9129C53.7199 47.2148 55.9077 45.0303 58.61 45.0303C61.3122 45.0303 63.5 47.2148 63.5 49.9129C63.5 52.6111 61.3122 54.7956 58.61 54.7956C55.9077 54.7956 53.7199 52.6052 53.7199 49.9129Z" fill="white" fill-opacity="0.24"/>
<path d="M53.7199 70.6781C53.7199 67.9799 55.9077 65.7954 58.61 65.7954C61.3122 65.7954 63.5 67.9799 63.5 70.6781C63.5 73.3762 61.3122 75.5607 58.61 75.5607C55.9077 75.5607 53.7199 73.3762 53.7199 70.6781Z" fill="white" fill-opacity="0.24"/>
<path d="M53.7199 91.4432C53.7199 88.745 55.9077 86.5605 58.61 86.5605C61.3122 86.5605 63.5 88.745 63.5 91.4432C63.5 94.1413 61.3122 96.3258 58.61 96.3258C55.9077 96.3258 53.7199 94.1413 53.7199 91.4432Z" fill="white" fill-opacity="0.24"/>
<path d="M27.2713 8.38264C27.2713 5.68449 29.465 3.5 32.1672 3.5C34.8695 3.5 37.0573 5.68449 37.0573 8.38264C37.0573 11.0808 34.8695 13.2653 32.1672 13.2653C29.465 13.2653 27.2713 11.0808 27.2713 8.38264Z" fill="white" fill-opacity="0.24"/>
<path d="M27.2712 29.1478C27.2712 26.4496 29.459 24.2651 32.1612 24.2651C34.8635 24.2651 37.0513 26.4496 37.0513 29.1478C37.0513 31.8459 34.8635 34.0304 32.1612 34.0304C29.4649 34.0363 27.2712 31.8459 27.2712 29.1478Z" fill="white" fill-opacity="0.24"/>
<path d="M27.2712 49.9129C27.2712 47.2148 29.459 45.0303 32.1612 45.0303C34.8635 45.0303 37.0513 47.2148 37.0513 49.9129C37.0513 52.6111 34.8635 54.7956 32.1612 54.7956C29.4649 54.7956 27.2712 52.6052 27.2712 49.9129Z" fill="white" fill-opacity="0.24"/>
<path d="M27.2712 70.6781C27.2712 67.9799 29.459 65.7954 32.1612 65.7954C34.8635 65.7954 37.0513 67.9799 37.0513 70.6781C37.0513 73.3762 34.8635 75.5607 32.1612 75.5607C29.4649 75.5607 27.2712 73.3762 27.2712 70.6781Z" fill="white" fill-opacity="0.24"/>
<path d="M27.2712 91.4432C27.2712 88.745 29.459 86.5605 32.1612 86.5605C34.8635 86.5605 37.0513 88.745 37.0513 91.4432C37.0513 94.1413 34.8635 96.3258 32.1612 96.3258C29.4649 96.3258 27.2712 94.1413 27.2712 91.4432Z" fill="white" fill-opacity="0.24"/>
<path d="M27.2712 112.208C27.2712 109.51 29.459 107.326 32.1612 107.326C34.8635 107.326 37.0513 109.51 37.0513 112.208C37.0513 114.906 34.8635 117.091 32.1612 117.091C29.4649 117.091 27.2712 114.906 27.2712 112.208Z" fill="white" fill-opacity="0.24"/>
<path d="M27.2712 132.973C27.2712 130.275 29.459 128.091 32.1612 128.091C34.8635 128.091 37.0513 130.275 37.0513 132.973C37.0513 135.672 34.8635 137.856 32.1612 137.856C29.4649 137.862 27.2712 135.672 27.2712 132.973Z" fill="white" fill-opacity="0.24"/>
<path d="M27.2712 153.739C27.2712 151.04 29.459 148.856 32.1612 148.856C34.8635 148.856 37.0513 151.04 37.0513 153.739C37.0513 156.437 34.8635 158.621 32.1612 158.621C29.4649 158.621 27.2712 156.431 27.2712 153.739Z" fill="white" fill-opacity="0.24"/>
<path d="M27.2712 174.504C27.2712 171.806 29.459 169.621 32.1612 169.621C34.8635 169.621 37.0513 171.806 37.0513 174.504C37.0513 177.202 34.8635 179.386 32.1612 179.386C29.4649 179.386 27.2712 177.202 27.2712 174.504Z" fill="white" fill-opacity="0.24"/>
<path d="M0.828464 8.38264C0.828464 5.68449 3.01626 3.5 5.71849 3.5C8.42072 3.5 10.6085 5.68449 10.6085 8.38264C10.6085 11.0808 8.42072 13.2653 5.71849 13.2653C3.02217 13.2653 0.828464 11.0808 0.828464 8.38264Z" fill="white" fill-opacity="0.24"/>
<path d="M0.828586 29.1478C0.828586 26.4496 3.01638 24.2651 5.71861 24.2651C8.42084 24.2651 10.6086 26.4496 10.6086 29.1478C10.6086 31.8459 8.42084 34.0304 5.71861 34.0304C3.0223 34.0363 0.828586 31.8459 0.828586 29.1478Z" fill="white" fill-opacity="0.24"/>
<path d="M0.828586 49.9129C0.828586 47.2148 3.01638 45.0303 5.71861 45.0303C8.42084 45.0303 10.6086 47.2148 10.6086 49.9129C10.6086 52.6111 8.42084 54.7956 5.71861 54.7956C3.0223 54.7956 0.828586 52.6052 0.828586 49.9129Z" fill="white" fill-opacity="0.24"/>
<path d="M0.828586 70.6781C0.828586 67.9799 3.01638 65.7954 5.71861 65.7954C8.42084 65.7954 10.6086 67.9799 10.6086 70.6781C10.6086 73.3762 8.42084 75.5607 5.71861 75.5607C3.0223 75.5607 0.828586 73.3762 0.828586 70.6781Z" fill="white" fill-opacity="0.24"/>
<path d="M0.828586 91.4432C0.828586 88.745 3.01638 86.5605 5.71861 86.5605C8.42084 86.5605 10.6086 88.745 10.6086 91.4432C10.6086 94.1413 8.42084 96.3258 5.71861 96.3258C3.0223 96.3258 0.828586 94.1413 0.828586 91.4432Z" fill="white" fill-opacity="0.24"/>
<path d="M0.828586 112.208C0.828586 109.51 3.01638 107.326 5.71861 107.326C8.42084 107.326 10.6086 109.51 10.6086 112.208C10.6086 114.906 8.42084 117.091 5.71861 117.091C3.0223 117.091 0.828586 114.906 0.828586 112.208Z" fill="white" fill-opacity="0.24"/>
<path d="M0.828586 132.973C0.828586 130.275 3.01638 128.091 5.71861 128.091C8.42084 128.091 10.6086 130.275 10.6086 132.973C10.6086 135.672 8.42084 137.856 5.71861 137.856C3.0223 137.862 0.828586 135.672 0.828586 132.973Z" fill="white" fill-opacity="0.24"/>
<path d="M0.828586 153.739C0.828586 151.04 3.01638 148.856 5.71861 148.856C8.42084 148.856 10.6086 151.04 10.6086 153.739C10.6086 156.437 8.42084 158.621 5.71861 158.621C3.0223 158.621 0.828586 156.431 0.828586 153.739Z" fill="white" fill-opacity="0.24"/>
<path d="M0.828586 174.504C0.828586 171.806 3.01638 169.621 5.71861 169.621C8.42084 169.621 10.6086 171.806 10.6086 174.504C10.6086 177.202 8.42084 179.386 5.71861 179.386C3.0223 179.386 0.828586 177.202 0.828586 174.504Z" fill="white" fill-opacity="0.24"/>
<path opacity="0.8" d="M262.325 24.2947C266.468 25.4047 271.019 21.8558 272.489 16.3678C273.96 10.8799 271.793 5.53117 267.65 4.4211C263.507 3.31103 258.957 6.85998 257.486 12.3479C256.016 17.8358 258.182 23.1846 262.325 24.2947Z" stroke="url(#paint2_linear)" stroke-width="3.663"/>
<path opacity="0.4" d="M448.741 44.9563C455.991 46.899 463.955 40.6883 466.528 31.0844C469.102 21.4805 465.31 12.1202 458.06 10.1776C450.81 8.23497 442.847 14.4456 440.274 24.0495C437.7 33.6534 441.491 43.0137 448.741 44.9563Z" fill="url(#paint3_linear)"/>
<defs>
<linearGradient id="paint0_linear" x1="483.896" y1="172.795" x2="489.266" y2="163.495" gradientUnits="userSpaceOnUse">
<stop stop-color="#00B09B"/>
<stop offset="1" stop-color="#96C93D"/>
</linearGradient>
<linearGradient id="paint1_linear" x1="54.9574" y1="551.441" x2="57.6395" y2="516.172" gradientUnits="userSpaceOnUse">
<stop stop-color="#46C8E2"/>
<stop offset="1" stop-color="#3EB3CF"/>
</linearGradient>
<linearGradient id="paint2_linear" x1="254.824" y1="22.2847" x2="269.827" y2="26.3046" gradientUnits="userSpaceOnUse">
<stop stop-color="#FC6076"/>
<stop offset="1" stop-color="#FF9231"/>
</linearGradient>
<linearGradient id="paint3_linear" x1="435.614" y1="41.4389" x2="461.869" y2="48.4738" gradientUnits="userSpaceOnUse">
<stop stop-color="#46C8E2"/>
<stop offset="1" stop-color="#3EB3CF"/>
</linearGradient>
</defs>
</svg>
