<svg width="40" height="40" viewBox="0 0 40 40" fill="none" xmlns="http://www.w3.org/2000/svg">
<path d="M33.8846 10.8684L20.105 28.2894L10.4366 16.0633L13.083 13.9729L20.1055 22.853L33.8681 5.45244C37.7387 9.97774 40 13.8795 40 19.9995C40 31.0439 31.0441 40 20 40C8.95586 40 0 31.0439 0 19.9995C0 5.69796 14.3927 -3.61517 27.2141 1.34717L25.9969 4.49572C15.3483 0.371992 3.38751 8.12486 3.38751 19.9995C3.38751 29.1756 10.8241 36.6124 20 36.6124C29.1759 36.6124 36.6126 29.1756 36.6126 19.9995C36.6126 16.7404 35.6754 13.5883 33.8847 10.8683L33.8846 10.8684Z" fill="black"/>
</svg>
