<svg width="312" height="315" viewBox="0 0 312 315" fill="none" xmlns="http://www.w3.org/2000/svg">
<path opacity="0.55" d="M175.266 217.702C176.503 217.283 177.676 216.69 178.824 215.987C179.906 215.323 181.176 214.905 182.085 213.996C183.394 212.681 184.341 210.857 185.211 209.239C186.165 207.46 186.977 205.603 187.596 203.683C188.582 200.634 189.085 197.418 188.917 194.214C188.705 190.218 187.358 186.131 184.438 183.398C181.518 180.659 176.851 179.621 173.377 181.6C169.78 183.65 168.369 188.142 168.111 192.267C167.93 195.116 168.021 198.333 166.01 200.363C164.714 201.672 162.78 202.181 161.427 203.431C159.222 205.475 159.119 209.091 160.473 211.772C161.24 213.287 162.4 214.524 163.689 215.614C164.476 216.277 165.32 217.096 166.255 217.541C166.906 217.85 167.679 218.018 168.382 218.16C169.832 218.443 171.321 218.482 172.784 218.288C173.648 218.172 174.466 217.973 175.266 217.702Z" fill="#F1DED0"/>
<path d="M185.058 195.471L181.835 189.373C181.178 188.123 180.192 187.053 178.935 186.395C177.845 185.828 176.26 185.228 175.209 186.318C171.98 189.676 179.605 199.325 182.293 199.551L185.058 195.471Z" fill="#FFA500"/>
<path d="M187.165 196.894L183.877 193.839L181.447 190.113C180.816 189.146 179.514 188.876 178.547 189.514L177.586 190.152C176.581 190.816 176.355 192.195 177.084 193.149L180.435 197.532L183.723 200.587L187.165 196.894Z" fill="#FFBCB3"/>
<path d="M222.859 210.302C222.859 210.302 243.788 209.445 250.634 210.618C257.131 211.733 275.597 219.139 275.597 219.139C278.562 216.851 284.067 218.366 284.067 218.366C284.067 218.366 290.822 215.562 291.641 216.683C292.459 217.805 286.568 220.789 286.568 220.789C286.568 220.789 295.018 220.589 295.289 221.904C295.637 223.593 287.928 224.019 287.928 224.019C287.928 224.019 297.48 225.907 297.1 227.409C296.604 229.388 287.309 227.531 287.309 227.531C287.309 227.531 295.037 230.838 294.554 232.198C293.961 233.88 285.163 229.684 285.163 229.684C285.163 229.684 286.233 231.972 286.729 233.455C287.219 234.937 286.587 235.93 285.975 236.033C285.363 236.136 283.107 232.03 282.153 231.695C280.238 231.025 277.293 227.944 277.293 227.944L249.261 224.972L231.986 225.83L222.859 210.302Z" fill="#FFBCB3"/>
<path d="M254.116 224.478C253.123 223.627 251.737 222.86 250.48 222.461C249.23 222.061 247.857 221.906 246.677 222.119C245.337 222.364 244.415 222.867 243.448 223.834C243.048 224.233 242.713 224.749 242.43 225.322L249.256 224.987L255.276 225.625C254.921 225.219 254.541 224.839 254.116 224.478Z" fill="#FFA29B"/>
<path opacity="0.47" d="M273.918 218.472C275.078 221.218 278.707 222.707 281.517 222.146C283.483 221.753 285.275 220.535 286.945 219.484C288.492 218.511 290.026 217.589 291.701 216.88C291.695 216.809 291.682 216.745 291.637 216.687C290.818 215.565 284.063 218.369 284.063 218.369C284.063 218.369 278.559 216.854 275.594 219.142C275.6 219.136 274.975 218.885 273.918 218.472Z" fill="#FFA29B"/>
<path d="M283.565 226.925C283.591 227.073 283.629 227.215 283.662 227.364C283.726 227.621 283.81 227.866 283.894 228.118C283.907 228.15 283.913 228.176 283.92 228.195C283.926 228.214 283.939 228.24 283.952 228.279C284.003 228.401 284.048 228.524 284.1 228.646C284.287 229.104 284.48 229.561 284.661 230.026C284.558 229.761 284.957 230.793 284.79 230.361C284.841 230.49 284.886 230.612 284.931 230.741C285.054 231.063 285.17 231.386 285.28 231.708C285.75 233.119 285.918 234.531 285.699 235.91C285.808 235.994 285.905 236.052 285.969 236.039C286.582 235.936 287.213 234.944 286.723 233.461C286.234 231.979 285.157 229.69 285.157 229.69C285.157 229.69 285.286 229.755 285.512 229.858C285.241 229.317 284.957 228.782 284.635 228.266C284.564 228.15 284.487 228.034 284.416 227.924C284.403 227.905 284.39 227.886 284.371 227.86C284.358 227.847 284.351 227.834 284.345 227.821C284.21 227.634 284.068 227.454 283.92 227.273C283.804 227.131 283.681 227.003 283.559 226.867C283.559 226.887 283.565 226.919 283.565 226.925Z" fill="#FFA29B"/>
<path d="M240.778 215.83C241.3 213.851 241.977 211.918 242.815 210.055C234.113 209.836 222.859 210.3 222.859 210.3L231.98 225.834L238.98 225.486C239.199 222.224 239.953 218.956 240.778 215.83Z" fill="#FFA29B"/>
<path d="M288.996 216.69L284.071 218.359C284.071 218.359 278.206 216.542 275.602 219.133L267.57 216.039" stroke="#673607" stroke-width="1.26525" stroke-miterlimit="10" stroke-linecap="round" stroke-linejoin="round"/>
<path d="M295.283 221.901C295.283 221.901 293.085 220.051 286.562 220.786" stroke="#673607" stroke-width="1.26525" stroke-miterlimit="10" stroke-linecap="round" stroke-linejoin="round"/>
<path d="M297.094 227.41C297.094 227.41 296.752 225.65 287.922 224.02" stroke="#673607" stroke-width="1.26525" stroke-miterlimit="10" stroke-linecap="round" stroke-linejoin="round"/>
<path d="M294.55 232.202C294.55 232.202 295.362 230.913 287.305 227.535" stroke="#673607" stroke-width="1.26525" stroke-miterlimit="10" stroke-linecap="round" stroke-linejoin="round"/>
<path d="M285.97 236.03C285.97 236.03 288.638 235.27 285.158 229.681C285.158 229.681 283.018 225.285 280.008 223.758" stroke="#673607" stroke-width="1.26525" stroke-miterlimit="10" stroke-linecap="round" stroke-linejoin="round"/>
<path d="M277.285 227.95C277.285 227.95 275.835 226.777 275.983 225.539" stroke="#673607" stroke-width="1.26525" stroke-miterlimit="10" stroke-linecap="round" stroke-linejoin="round"/>
<path d="M198.832 245.559C198.832 245.559 202.951 266.094 205.716 272.469C208.339 278.521 219.903 294.706 219.903 294.706C218.382 298.123 221.16 303.118 221.16 303.118C221.16 303.118 220.032 310.344 221.314 310.872C222.597 311.401 224.105 304.974 224.105 304.974C224.105 304.974 225.91 313.231 227.251 313.18C228.972 313.115 227.567 305.529 227.567 305.529C227.567 305.529 231.66 314.366 233.032 313.637C234.837 312.683 230.835 304.091 230.835 304.091C230.835 304.091 235.875 310.82 237.087 310.028C238.582 309.048 232.42 301.5 232.42 301.5C232.42 301.5 234.895 302.003 236.455 302.125C238.015 302.254 238.827 301.403 238.782 300.785C238.737 300.166 234.218 298.948 233.664 298.097C232.556 296.395 228.869 294.262 228.869 294.262L219.348 267.732L216.093 250.747L198.832 245.559Z" fill="#FFBCB3"/>
<path d="M207.772 262.395C211.059 261.215 214.534 260.725 218.008 260.777L216.087 250.747L198.832 245.559C198.832 245.559 200.959 256.149 203.176 264.483C204.646 263.677 206.174 262.968 207.772 262.395Z" fill="#FFA29B"/>
<path d="M218.817 265.472C218.734 265.492 218.45 265.627 218.779 265.472C218.721 265.498 218.656 265.524 218.592 265.55C218.444 265.621 218.295 265.698 218.154 265.782C218.134 265.788 218.089 265.821 218.044 265.846C218.031 265.859 218.012 265.866 218.005 265.879C217.786 266.059 217.586 266.259 217.387 266.459C217.387 266.459 217.387 266.459 217.38 266.465C217.354 266.497 217.329 266.523 217.309 266.555C217.219 266.684 217.135 266.807 217.051 266.936C216.968 267.071 216.897 267.206 216.826 267.342C216.819 267.348 216.819 267.355 216.819 267.361C216.832 267.342 216.826 267.361 216.768 267.477C216.678 267.741 216.574 267.999 216.504 268.27C216.471 268.399 216.446 268.534 216.42 268.663C216.42 268.689 216.381 268.895 216.375 268.96C216.349 269.25 216.336 269.54 216.349 269.83C216.355 269.92 216.362 270.01 216.368 270.1C216.368 270.107 216.368 270.107 216.368 270.12C216.394 270.262 216.413 270.41 216.445 270.552C216.478 270.693 216.51 270.835 216.555 270.977C216.574 271.035 216.626 271.177 216.645 271.235C217.612 273.536 219.681 274.619 221.969 275.044L219.346 267.735L218.908 265.453C218.875 265.46 218.843 265.466 218.817 265.472Z" fill="#FFA29B"/>
<path opacity="0.47" d="M218.852 293.234C221.797 293.711 224.098 296.883 224.221 299.751C224.305 301.755 223.544 303.786 222.919 305.655C222.339 307.389 221.804 309.097 221.514 310.889C221.443 310.895 221.378 310.902 221.307 310.87C220.025 310.341 221.153 303.116 221.153 303.116C221.153 303.116 218.375 298.12 219.896 294.704C219.896 294.704 219.503 294.156 218.852 293.234Z" fill="#FFA29B"/>
<path d="M229.355 300.605C229.503 300.599 229.651 300.599 229.806 300.599C230.07 300.605 230.335 300.624 230.599 300.65C230.638 300.65 230.657 300.657 230.676 300.657C230.696 300.657 230.721 300.663 230.766 300.67C230.895 300.689 231.031 300.708 231.16 300.728C231.65 300.798 232.139 300.882 232.629 300.947C232.352 300.914 233.441 301.05 232.984 300.992C233.119 301.011 233.254 301.024 233.383 301.043C233.725 301.082 234.067 301.127 234.408 301.153C235.891 301.275 237.302 301.101 238.591 300.566C238.701 300.65 238.778 300.728 238.785 300.798C238.83 301.417 238.011 302.268 236.458 302.139C234.898 302.01 232.423 301.514 232.423 301.514C232.423 301.514 232.513 301.623 232.668 301.817C232.075 301.682 231.488 301.533 230.915 301.34C230.786 301.295 230.657 301.25 230.528 301.205C230.502 301.198 230.483 301.185 230.457 301.179C230.444 301.172 230.431 301.166 230.412 301.159C230.199 301.069 229.987 300.979 229.78 300.876C229.619 300.798 229.458 300.708 229.297 300.618C229.316 300.605 229.348 300.605 229.355 300.605Z" fill="#FFA29B"/>
<path d="M220.697 308.297L221.154 303.115C221.154 303.115 218.002 297.849 219.897 294.704L214.992 287.633" stroke="#673607" stroke-width="1.26525" stroke-miterlimit="10" stroke-linecap="round" stroke-linejoin="round"/>
<path d="M227.243 313.182C227.243 313.182 224.929 311.487 224.098 304.977" stroke="#673607" stroke-width="1.26525" stroke-miterlimit="10" stroke-linecap="round" stroke-linejoin="round"/>
<path d="M233.017 313.64C233.017 313.64 231.225 313.73 227.551 305.531" stroke="#673607" stroke-width="1.26525" stroke-miterlimit="10" stroke-linecap="round" stroke-linejoin="round"/>
<path d="M237.073 310.026C237.073 310.026 236.015 311.122 230.82 304.09" stroke="#673607" stroke-width="1.26525" stroke-miterlimit="10" stroke-linecap="round" stroke-linejoin="round"/>
<path d="M238.776 300.789C238.776 300.789 238.673 303.56 232.414 301.498C232.414 301.498 227.632 300.46 225.434 297.895" stroke="#673607" stroke-width="1.26525" stroke-miterlimit="10" stroke-linecap="round" stroke-linejoin="round"/>
<path d="M228.864 294.263C228.864 294.263 227.382 293.135 226.215 293.567" stroke="#673607" stroke-width="1.26525" stroke-miterlimit="10" stroke-linecap="round" stroke-linejoin="round"/>
<path d="M173.86 213.565L167.124 212.064C165.745 211.754 164.449 211.09 163.489 210.053C162.657 209.157 161.658 207.784 162.438 206.482C164.829 202.485 176.142 207.3 177.07 209.833L173.86 213.565Z" fill="#FFA500"/>
<path d="M175.789 215.226L171.973 212.861L167.739 211.501C166.636 211.146 166.037 209.96 166.398 208.864L166.759 207.769C167.139 206.628 168.403 206.041 169.524 206.492L174.635 208.574L178.451 210.94L175.789 215.226Z" fill="#FFBCB3"/>
<path d="M207.408 200.476L188.419 194.888C187.613 194.656 186.743 194.946 186.24 195.616L183.217 199.677C182.824 200.199 182.715 200.882 182.914 201.501L189.051 211.614L177.352 208.172C176.578 208.082 175.818 208.449 175.412 209.113L172.872 213.206C172.427 213.921 172.479 214.843 172.995 215.507L185.918 231.763L207.408 200.476Z" fill="#0097EF"/>
<path d="M207.405 200.48C202.448 200.648 197.692 202.614 194.153 206.095C189.241 210.929 183.569 218.812 184.446 228.912C184.581 230.504 185.619 231.89 187.095 232.502L207.405 200.48Z" fill="#FF9800"/>
<path d="M236.283 208.76C236.283 208.76 233.937 216.94 239.093 226.834C239.093 226.834 224.436 226.621 220.659 224.281L213.549 237.501C213.549 237.501 217.133 241.259 217.733 255.897C217.733 255.897 210.32 255.71 207.929 256.548C204.029 257.908 201.38 260.686 201.38 260.686C201.38 260.686 196.765 246.003 196.223 242.542L193.51 237.927L187.109 232.493C187.109 232.493 187.187 219.911 194.2 212.009C201.212 204.107 207.413 200.465 207.413 200.465L213.375 204.332L224.436 209.463L236.283 208.76Z" fill="#FFA500"/>
<path d="M222.162 226.036C222.162 226.036 221.369 224.321 218.887 221.195C216.406 218.069 211.771 215.794 210.508 226.745L222.162 226.036Z" fill="#FFDA9D"/>
<path d="M214.821 238.103C214.821 238.103 213.042 239.225 208.768 237.588C205.043 236.163 200.563 231.516 210.502 226.746L214.821 238.103Z" fill="#FFDA9D"/>
<path d="M211.227 225.917C213.773 223.442 217.84 223.5 220.309 226.046L229.461 235.456L220.251 244.409L211.098 234.999C208.629 232.453 208.681 228.385 211.227 225.917Z" fill="#FFA29B"/>
<path d="M228.024 224.91C228.024 224.91 239.961 226.483 243.68 238.51C246.484 247.573 233.206 259.555 223.351 255.037C215.855 251.601 216.048 248.056 217.15 237.801L228.024 224.91Z" fill="#462005"/>
<path d="M228.835 229.793C226.998 228.336 226.682 225.668 228.139 223.831C229.595 221.994 232.264 221.678 234.101 223.135C235.938 224.592 236.254 227.26 234.797 229.097C233.347 230.934 230.672 231.25 228.835 229.793Z" fill="#FFBCB3"/>
<path d="M225.602 254.002L214.425 240.131C213.388 238.855 212.653 237.378 212.26 235.819C211.86 234.252 211.796 232.609 212.105 230.991C212.35 229.721 212.814 228.522 213.478 227.459C214.464 225.867 215.876 224.558 217.584 223.701C220.716 222.109 224.442 222.38 227.297 224.358C227.549 224.519 227.794 224.706 228.026 224.906L232.035 228.426L240.511 235.87L225.602 254.002Z" fill="#FFBCB3"/>
<path d="M234.476 230.57C234.476 230.57 228.404 236.41 229.39 245.189C229.39 245.189 225.807 243.126 219.645 246.601L225.62 255.818L241.708 236.262L234.476 230.57Z" fill="#462005"/>
<path d="M213.14 248.742C211.303 247.286 210.987 244.617 212.443 242.78C213.9 240.943 216.569 240.627 218.406 242.084C220.243 243.541 220.559 246.209 219.102 248.046C217.645 249.883 214.977 250.199 213.14 248.742Z" fill="#FFBCB3"/>
<path d="M237.83 266.896C242.871 265.703 245.989 260.649 244.796 255.609C243.602 250.569 238.549 247.451 233.509 248.644C228.469 249.837 225.35 254.891 226.544 259.931C227.737 264.971 232.79 268.089 237.83 266.896Z" fill="#462005"/>
<path d="M223.671 240.531C222.982 239.932 222.621 239.217 222.866 238.933C223.111 238.649 223.871 238.901 224.561 239.5C225.251 240.1 225.612 240.815 225.367 241.099C225.122 241.382 224.361 241.131 223.671 240.531Z" fill="#673606"/>
<path d="M227.628 236.833C227.738 236.936 227.912 236.82 227.847 236.684C227.338 235.55 226.346 233.249 226.101 231.979C225.939 231.128 224.077 232.256 223.555 232.591C223.484 232.637 223.477 232.74 223.535 232.798L227.628 236.833Z" fill="#FF6B5C"/>
<path d="M230.27 226.992C229.361 226.541 228.252 226.915 227.801 227.824C227.35 228.733 227.723 229.841 228.632 230.292C229.541 230.744 230.65 230.37 231.101 229.461C231.552 228.546 231.185 227.443 230.27 226.992Z" fill="#FF6B5C"/>
<path d="M221.074 238.32C220.165 237.869 219.057 238.243 218.606 239.152C218.154 240.061 218.528 241.169 219.437 241.621C220.346 242.072 221.454 241.698 221.906 240.789C222.357 239.88 221.983 238.772 221.074 238.32Z" fill="#FF6B5C"/>
<path d="M211.536 244.189C210.37 243.467 210.015 241.933 210.737 240.767C211.459 239.6 212.993 239.246 214.16 239.967C215.326 240.689 215.681 242.223 214.959 243.39C214.231 244.55 212.703 244.911 211.536 244.189Z" fill="#0097EF"/>
<path d="M227.698 224.701C226.744 224.108 226.447 222.851 227.04 221.897C227.633 220.943 228.89 220.646 229.844 221.239C230.798 221.832 231.094 223.089 230.501 224.043C229.908 225.004 228.651 225.294 227.698 224.701Z" fill="#0097EF"/>
<path d="M222.661 230.746C222.661 230.746 220.289 233.311 220.953 235.69" stroke="#673607" stroke-width="1.37338" stroke-miterlimit="10" stroke-linecap="round" stroke-linejoin="round"/>
<path d="M229.543 232.512C228.853 231.912 228.492 231.197 228.737 230.913C228.982 230.63 229.742 230.881 230.432 231.481C231.122 232.08 231.483 232.795 231.238 233.079C230.993 233.363 230.232 233.111 229.543 232.512Z" fill="#673606"/>
<path d="M219.604 231.238C219.604 231.238 218.56 231.844 218.566 232.914" stroke="#673607" stroke-width="1.26525" stroke-miterlimit="10" stroke-linecap="round" stroke-linejoin="round"/>
<path d="M229.492 211.805L213.371 204.348" stroke="#673607" stroke-width="1.26525" stroke-miterlimit="10" stroke-linecap="round" stroke-linejoin="round"/>
<path d="M198.424 246.22L193.506 237.944L188.582 233.684" stroke="#673607" stroke-width="1.26525" stroke-miterlimit="10" stroke-linecap="round" stroke-linejoin="round"/>
<path d="M185.27 205.383L189.06 211.629" stroke="#673607" stroke-width="1.26525" stroke-miterlimit="10" stroke-linecap="round" stroke-linejoin="round"/>
<path d="M218.174 245.969C218.174 245.969 217.123 248.695 213.945 248.031" stroke="#F6695D" stroke-width="1.066" stroke-miterlimit="10" stroke-linecap="round" stroke-linejoin="round"/>
<path d="M216.424 247.799C216.424 247.799 214.806 246.961 214.915 244.363" stroke="#F6695D" stroke-width="1.066" stroke-miterlimit="10" stroke-linecap="round" stroke-linejoin="round"/>
<path d="M233.374 224.488C233.374 224.488 234.025 226.248 232.504 227.95" stroke="#F6695D" stroke-width="1.066" stroke-miterlimit="10" stroke-linecap="round" stroke-linejoin="round"/>
<path d="M233.344 226.472C233.344 226.472 231.037 225.357 230.051 225.847" stroke="#F6695D" stroke-width="1.066" stroke-miterlimit="10" stroke-linecap="round" stroke-linejoin="round"/>
<path opacity="0.55" d="M102.344 171.933C104.464 173.68 107.313 175.149 109.866 174.144C111.612 173.454 112.76 171.733 113.366 169.961C115.293 164.282 112.927 157.134 116.885 152.628C118.902 150.334 122.093 149.412 124.272 147.272C126.341 145.242 127.301 142.148 126.747 139.305C126.192 136.463 124.143 133.955 121.468 132.847C118.49 131.616 115.119 132.099 111.941 132.595C109.608 132.963 107.855 133.556 106.018 135.038C105.47 135.483 104.78 135.702 104.277 136.198C103.504 136.965 103.059 138.113 102.569 139.067C100.636 142.87 99.0241 146.834 97.7544 150.907C97.1162 152.944 96.5684 155.007 96.1043 157.089C95.8722 158.133 95.666 159.177 95.479 160.228C94.9827 163.031 96.4072 165.307 98.0766 167.492C99.3206 169.129 100.752 170.624 102.344 171.933Z" fill="#F1DED0"/>
<path d="M21.5718 118.356L47.3994 126.787L66.4913 125.897C77.3651 133.297 72.6533 142.011 72.6533 142.011C72.6533 142.011 51.6599 142.192 44.9823 140.329C38.1177 138.415 20.6307 127.547 19.8895 126.793C19.8895 126.793 17.1694 126.71 14.4171 125.356C13.2053 124.757 13.012 124.892 10.6658 121.721C9.57001 120.238 9.66025 118.304 9.66025 118.304C9.66025 118.304 0.243199 113.148 1.0489 111.82C2.10598 110.073 10.9687 115.32 10.9687 115.32C10.9687 115.32 4.03322 109.145 4.89694 107.979C5.96047 106.541 13.1409 113.129 13.1409 113.129C13.1409 113.129 15.8223 113.29 16.7375 113.722C19.2127 114.895 21.5718 118.356 21.5718 118.356Z" fill="#FFADA6"/>
<path d="M47.7184 129.487C50.5287 130.003 52.3528 128.546 53.7451 126.49L47.4026 126.786L42.6328 125.227C43.6577 127.289 45.6494 129.107 47.7184 129.487Z" fill="#FF6B5C"/>
<path d="M64.9562 131.687C65.0851 135.257 64.1634 138.886 62.2812 141.896C67.947 142.051 72.6587 142.012 72.6587 142.012C72.6587 142.012 77.3705 133.298 66.4967 125.898L63.9571 126.014C64.5372 127.858 64.8853 129.759 64.9562 131.687Z" fill="#FF6B5C"/>
<path d="M16.6808 114.855C16.6808 114.855 12.8263 115.326 12.1431 117.021C11.4598 118.716 15.3465 118.704 15.3465 118.704C15.3465 118.704 16.481 120.586 19.5749 121.739" stroke="#6F3300" stroke-width="1.26525" stroke-miterlimit="10" stroke-linecap="round" stroke-linejoin="round"/>
<path d="M4.89844 107.977C4.89844 107.977 5.62035 106.308 13.1424 113.127" stroke="#6F3300" stroke-width="1.26525" stroke-miterlimit="10" stroke-linecap="round" stroke-linejoin="round"/>
<path d="M1.05859 111.821C1.05859 111.821 1.94164 109.881 10.9784 115.321" stroke="#6F3300" stroke-width="1.26525" stroke-miterlimit="10" stroke-linecap="round" stroke-linejoin="round"/>
<path d="M11.6442 121.642C11.6442 121.642 15.9047 121.674 15.5631 119.992C15.2215 118.31 10.7031 118.419 10.7031 118.419" stroke="#6F3300" stroke-width="1.26525" stroke-miterlimit="10" stroke-linecap="round" stroke-linejoin="round"/>
<path d="M13.6875 123.958C13.6875 123.958 17.1875 122.933 17.0972 121.824C16.9941 120.497 15.1829 120.896 15.1829 120.896" stroke="#6F3300" stroke-width="1.26525" stroke-miterlimit="10" stroke-linecap="round" stroke-linejoin="round"/>
<path d="M14.4219 125.355C14.4219 125.355 17.5609 126.832 19.8942 126.793L27.9512 131.859" stroke="#6F3300" stroke-width="1.26525" stroke-miterlimit="10" stroke-linecap="round" stroke-linejoin="round"/>
<path d="M20.5195 116.988L21.5702 118.355L28.0351 120.462" stroke="#6F3300" stroke-width="1.26525" stroke-miterlimit="10" stroke-linecap="round" stroke-linejoin="round"/>
<path d="M70.2021 65.3456L77.7435 91.4504L76.1965 110.504C83.2158 121.629 92.0914 117.22 92.0914 117.22C92.0914 117.22 92.9938 96.2459 91.3631 89.5102C89.6872 82.5812 79.4322 64.7333 78.6974 63.9662C78.6974 63.9662 78.7039 61.2462 77.447 58.4488C76.8926 57.2112 77.028 57.0243 73.9405 54.575C72.4967 53.4277 70.5566 53.447 70.5566 53.447C70.5566 53.447 65.7288 43.8624 64.3752 44.6165C62.5963 45.6156 67.5272 54.6523 67.5272 54.6523C67.5272 54.6523 61.5972 47.5041 60.4047 48.3227C58.9351 49.3347 65.2712 56.7407 65.2712 56.7407C65.2712 56.7407 65.3421 59.4285 65.7417 60.3567C66.8246 62.864 70.2021 65.3456 70.2021 65.3456Z" fill="#FFADA6"/>
<path d="M80.433 91.8549C80.852 94.6781 79.3308 96.4571 77.236 97.772L77.7516 91.4424L76.3594 86.6211C78.3704 87.7233 80.1236 89.7794 80.433 91.8549Z" fill="#FF6B5C"/>
<path d="M82.0311 109.156C85.5956 109.408 89.2502 108.615 92.3312 106.836C92.2926 112.508 92.0863 117.213 92.0863 117.213C92.0863 117.213 83.2107 121.622 76.1914 110.497L76.3977 107.964C78.2218 108.608 80.1039 109.021 82.0311 109.156Z" fill="#FF6B5C"/>
<path d="M66.8711 60.3292C66.8711 60.3292 67.477 56.4941 69.1915 55.8689C70.9061 55.2436 70.7642 59.1303 70.7642 59.1303C70.7642 59.1303 72.6077 60.3292 73.6519 63.4618" stroke="#6F3300" stroke-width="1.26525" stroke-miterlimit="10" stroke-linecap="round" stroke-linejoin="round"/>
<path d="M60.414 48.3164C60.414 48.3164 58.7253 48.9803 65.2805 56.7344" stroke="#6F3300" stroke-width="1.26525" stroke-miterlimit="10" stroke-linecap="round" stroke-linejoin="round"/>
<path d="M64.3771 44.6094C64.3771 44.6094 62.4047 45.428 67.529 54.6452" stroke="#6F3300" stroke-width="1.26525" stroke-miterlimit="10" stroke-linecap="round" stroke-linejoin="round"/>
<path d="M73.8309 55.5272C73.8309 55.5272 73.7148 59.7878 72.0454 59.3881C70.376 58.9885 70.6403 54.4766 70.6403 54.4766" stroke="#6F3300" stroke-width="1.26525" stroke-miterlimit="10" stroke-linecap="round" stroke-linejoin="round"/>
<path d="M76.0764 57.6562C76.0764 57.6562 74.9291 61.1175 73.8269 60.9951C72.5055 60.8468 72.9696 59.0485 72.9696 59.0485" stroke="#6F3300" stroke-width="1.26525" stroke-miterlimit="10" stroke-linecap="round" stroke-linejoin="round"/>
<path d="M77.4453 58.4414C77.4453 58.4414 78.8182 61.632 78.6958 63.9589L83.4784 72.1835" stroke="#6F3300" stroke-width="1.26525" stroke-miterlimit="10" stroke-linecap="round" stroke-linejoin="round"/>
<path d="M68.8789 64.2422L70.2067 65.3444L72.0953 71.8738" stroke="#6F3300" stroke-width="1.26525" stroke-miterlimit="10" stroke-linecap="round" stroke-linejoin="round"/>
<path d="M98.9102 158.195L101.011 164.763C101.443 166.11 102.223 167.335 103.345 168.198C104.318 168.946 105.775 169.816 106.999 168.927C110.764 166.181 104.95 155.352 102.346 154.656L98.9102 158.195Z" fill="#FFA500"/>
<path d="M87.6211 152.691L99.784 160.007L101.524 164.1C101.975 165.164 103.213 165.66 104.27 165.196L105.327 164.732C106.429 164.248 106.9 162.933 106.346 161.863L103.812 156.958L103.136 155.785L97.9985 146.852L87.6211 152.691Z" fill="#FFADA6"/>
<path d="M111.434 137.254L118.279 138.098C119.684 138.272 121.031 138.814 122.088 139.755C123.004 140.567 124.132 141.843 123.481 143.21C121.482 147.419 109.758 143.712 108.598 141.282L111.434 137.254Z" fill="#FFA500"/>
<path d="M104 128.793L113.269 137.984L117.613 138.932C118.741 139.177 119.457 140.298 119.199 141.433L118.941 142.561C118.67 143.734 117.465 144.436 116.311 144.095L111.026 142.516L100.629 138.822L104 128.793Z" fill="#FFADA6"/>
<path opacity="0.29" d="M107.305 138.088C108.221 136.85 108.827 135.471 109.265 134.007L104.005 128.793L100.641 138.822L105.172 140.427C105.932 139.705 106.667 138.945 107.305 138.088Z" fill="#FF6B5C"/>
<path opacity="0.29" d="M94.7357 152.548C96.4567 151.562 98.081 150.292 98.4355 148.268C98.4613 148.114 98.5128 147.978 98.5708 147.856L97.9972 146.863L87.6133 152.69L90.7974 154.604C92.093 153.883 93.453 153.283 94.7357 152.548Z" fill="#FF6B5C"/>
<path d="M78.1133 147.79C78.3582 148.621 82.6188 156.06 82.8959 155.866C83.1795 155.673 93.4345 154.622 99.3774 145.605C99.4161 145.547 99.4161 145.476 99.3903 145.418L96.9861 140.352L102.761 141.982C102.806 141.982 111.94 135.041 108.833 125.366C108.633 124.753 108.137 124.276 107.518 124.102L100.492 120.164L78.1133 147.79Z" fill="#FFA000"/>
<path d="M81.052 151.108C81.052 151.108 82.7407 150.018 81.0391 146.016" stroke="#673607" stroke-width="1.26525" stroke-miterlimit="10" stroke-linecap="round" stroke-linejoin="round"/>
<path d="M98.5273 124.415C98.5273 124.415 102.672 127.399 104.264 123.699" stroke="#673607" stroke-width="1.26525" stroke-miterlimit="10" stroke-linecap="round" stroke-linejoin="round"/>
<path d="M76.5859 148.603C81.5426 148.88 86.4542 147.352 90.2893 144.207C95.6199 139.837 101.982 132.502 102.02 122.363C102.027 120.764 101.124 119.295 99.7064 118.547L76.5859 148.603Z" fill="#0095D0"/>
<path d="M91.2105 111.829C88.8256 113.163 85.9702 112.815 83.4822 111.977C79.0863 110.495 79.1766 109.811 75.7217 106.711C74.2392 110.179 74.6453 113.55 74.6453 113.55C74.6453 113.55 67.5229 124.733 66.1693 124.301C65.3958 124.301 63.0625 125.616 63.0625 125.616C63.0625 125.616 68.3415 131.32 68.5284 135.671C68.6831 139.274 67.8194 142.458 67.6776 142.561L71.01 144.224L76.5983 148.614C76.5983 148.614 83.1019 145.546 90.8044 138.314C98.507 131.082 99.7187 118.558 99.7187 118.558L93.8339 112.57L92.8477 110.482C92.3901 111.004 91.8486 111.468 91.2105 111.829Z" fill="#009BE5"/>
<path d="M71.7539 148.345C71.7539 148.345 100.527 140.565 97.3301 114.145" stroke="#8CDBFF" stroke-width="1.68688" stroke-miterlimit="10"/>
<path d="M76.5458 124.731C73.7871 126.968 69.7457 126.543 67.5091 123.784L57.7891 111.788L67.7733 103.699L77.4933 115.695C79.7235 118.453 79.2981 122.495 76.5458 124.731Z" fill="#FFADA6"/>
<path d="M75.9657 119.791C76.3653 118.599 76.5458 117.258 76.6038 115.982C76.6232 115.531 76.6232 115.041 76.5716 114.564L67.7733 103.703L57.7891 111.786L67.5091 123.781C68.5275 125.038 69.9197 125.805 71.3958 126.063C73.4648 124.445 75.1278 122.299 75.9657 119.791Z" fill="#FF5E53"/>
<path d="M59.2816 122.528C59.2816 122.528 48.9751 129.708 49.6325 127.427C51.173 122.083 45.8876 116.624 43.7799 111.39C41.1501 104.861 47.3379 94.1092 56.8065 92.0918C58.0699 91.821 59.1914 92.066 59.894 92.1369C59.894 92.1369 61.1638 91.2409 62.1757 90.9316C64.4704 90.2354 66.3267 90.8864 67.951 91.6986C72.6756 94.0706 75.1894 98.8661 73.9261 109.102L59.2816 122.528Z" fill="#926031"/>
<path d="M58.5448 117.622C60.3624 119.105 60.6331 121.78 59.1506 123.597C57.6682 125.415 54.9932 125.686 53.1756 124.203C51.3579 122.721 51.0872 120.046 52.5697 118.228C54.0522 116.417 56.7271 116.14 58.5448 117.622Z" fill="#FFADA6"/>
<path d="M62.1507 93.4727L73.1147 107.511C74.1331 108.8 74.8422 110.289 75.2096 111.856C75.5834 113.428 75.6221 115.072 75.2934 116.683C75.0291 117.947 74.5457 119.139 73.8689 120.196C72.8569 121.769 71.426 123.058 69.705 123.896C66.5466 125.443 62.8275 125.108 60.0043 123.084C59.753 122.916 59.5145 122.723 59.2824 122.53L55.3313 118.946L46.9648 111.372L62.1507 93.4727Z" fill="#FFADA6"/>
<path d="M74.533 98.9251C76.3507 100.408 76.6214 103.083 75.1389 104.9C73.6564 106.718 70.9815 106.989 69.1638 105.506C67.3462 104.024 67.0755 101.349 68.5579 99.531C70.0404 97.7134 72.7154 97.4426 74.533 98.9251Z" fill="#FFADA6"/>
<path d="M64.3642 106.648C65.0474 107.261 65.3955 107.976 65.1441 108.26C64.8927 108.543 64.1386 108.273 63.4554 107.667C62.7721 107.054 62.4241 106.339 62.6754 106.055C62.9268 105.772 63.6809 106.036 64.3642 106.648Z" fill="#673606"/>
<path d="M60.2017 110.145C60.0985 110.035 59.9181 110.152 59.9761 110.287C60.4724 111.428 61.4263 113.742 61.6455 115.018C61.7937 115.869 63.6694 114.773 64.2044 114.444C64.2753 114.399 64.2882 114.296 64.2237 114.238L60.2017 110.145Z" fill="#FF6B5C"/>
<path d="M57.1219 119.745C58.0243 120.209 59.133 119.855 59.5971 118.953C60.0611 118.05 59.7066 116.941 58.8042 116.477C57.9018 116.013 56.7932 116.368 56.3291 117.27C55.8586 118.166 56.2131 119.275 57.1219 119.745Z" fill="#FF6B5C"/>
<path d="M66.489 108.562C67.3914 109.026 68.5 108.671 68.9641 107.769C69.4282 106.867 69.0737 105.758 68.1713 105.294C67.2689 104.83 66.1602 105.184 65.6962 106.087C65.2321 106.983 65.5866 108.098 66.489 108.562Z" fill="#FF6B5C"/>
<path d="M66.7402 113.652C65.4575 115.992 64.207 117.062 64.207 117.062C64.207 117.062 66.9786 119.26 68.2162 117.41C69.3249 115.754 66.7402 113.652 66.7402 113.652Z" fill="#FF958C" stroke="#673607" stroke-width="1.37338" stroke-miterlimit="10" stroke-linecap="round" stroke-linejoin="round"/>
<path d="M57.9423 114.245C58.6256 114.857 58.9736 115.573 58.7222 115.856C58.4709 116.14 57.7167 115.869 57.0335 115.263C56.3502 114.651 56.0022 113.935 56.2536 113.652C56.5049 113.368 57.2655 113.639 57.9423 114.245Z" fill="#673606"/>
<path d="M68.6641 118.999C68.6641 118.999 69.7534 118.489 69.8501 117.426" stroke="#673607" stroke-width="1.26525" stroke-miterlimit="10" stroke-linecap="round" stroke-linejoin="round"/>
<path d="M67.668 142.555L71.0004 144.218" stroke="#673607" stroke-width="1.26525" stroke-miterlimit="10" stroke-linecap="round" stroke-linejoin="round"/>
<path d="M92.8398 110.465L93.826 112.553L98.338 117.239" stroke="#673607" stroke-width="1.26525" stroke-miterlimit="10" stroke-linecap="round" stroke-linejoin="round"/>
<path d="M69.9102 102.325C69.9102 102.325 70.9995 99.6117 74.1707 100.327" stroke="#F6695D" stroke-width="1.066" stroke-miterlimit="10" stroke-linecap="round" stroke-linejoin="round"/>
<path d="M71.8906 100.664C71.8906 100.664 73.4247 101.644 73.0831 104.222" stroke="#F6695D" stroke-width="1.066" stroke-miterlimit="10" stroke-linecap="round" stroke-linejoin="round"/>
<path d="M53.9179 122.862C53.9179 122.862 53.2927 121.096 54.8396 119.414" stroke="#F6695D" stroke-width="1.066" stroke-miterlimit="10" stroke-linecap="round" stroke-linejoin="round"/>
<path d="M53.9688 120.875C53.9688 120.875 56.2634 122.029 57.256 121.552" stroke="#F6695D" stroke-width="1.066" stroke-miterlimit="10" stroke-linecap="round" stroke-linejoin="round"/>
<path d="M53.5785 117.369C53.5785 117.369 46.9073 105.915 59.5794 102.576C59.5794 102.576 62.0223 94.5517 67.8427 100.778L63.537 92.3086L53.1853 97.5811L45.7148 109.705L49.4726 117.44L53.5785 117.369Z" fill="#926031"/>
<path d="M76.5469 124.728C76.5469 124.728 81.2909 121.19 77.4944 115.691" stroke="#673607" stroke-width="1.26525" stroke-miterlimit="10" stroke-linecap="round" stroke-linejoin="round"/>
<path d="M100.961 163.597C100.961 163.597 101.786 161.896 106.337 160.98" stroke="#FFA000" stroke-width="1.68688" stroke-miterlimit="10" stroke-linecap="round" stroke-linejoin="round"/>
<path d="M117.094 138.375C117.094 138.375 115.663 139.606 115.927 144.241" stroke="#FFA000" stroke-width="1.68688" stroke-miterlimit="10" stroke-linecap="round" stroke-linejoin="round"/>
<path d="M98.8059 144.192L96.9883 140.363" stroke="#673607" stroke-width="1.26525" stroke-miterlimit="10" stroke-linecap="round" stroke-linejoin="round"/>
<path opacity="0.55" d="M133.596 103.818C129.638 105.674 125.9 108.588 124.404 112.7C122.909 116.806 124.404 122.168 128.426 123.896C132.867 125.797 137.818 122.794 142.645 122.645C151.05 122.381 158.656 130.767 166.745 128.459C171.109 127.215 174.235 122.587 173.765 118.069C173.12 111.926 166.926 107.859 160.944 106.306C156.806 105.229 152.526 104.907 148.356 103.972C145.468 103.321 143.077 101.613 140.028 101.929C137.785 102.155 135.62 102.87 133.596 103.818Z" fill="#F1DED0"/>
<path d="M200.627 38.1314C200.627 38.1314 188.49 58.8541 184.236 63.4176C179.756 68.2196 162.908 77.9396 162.908 77.9396L158.641 69.296L162.74 60.6073L174.368 51.7768L195.091 30.6094" fill="#FFBCB3"/>
<path d="M177.444 67.6757C177.315 66.2254 177.07 64.7816 176.864 63.3378C176.361 59.7991 174.737 56.4539 172.693 53.4953C172.59 53.4244 172.481 53.36 172.378 53.2891L162.748 60.6048L158.648 69.2935L162.915 77.9371C162.915 77.9371 171.056 73.2383 177.521 68.765C177.502 68.3976 177.47 68.0302 177.444 67.6757Z" fill="#FFA29B"/>
<path d="M191.916 33.7224C191.916 33.7224 190.453 27.8762 190.446 25.7104C190.446 24.634 187.108 20.9278 187.423 20.3477C187.739 19.7676 188.964 19.484 190.279 20.4959C191.6 21.5079 193.527 23.39 193.527 23.39C193.527 23.39 192.387 13.0706 194.288 13.0577C195.829 13.0512 196.447 21.9849 196.447 21.9849C196.447 21.9849 197.84 11.9813 200.005 12.1746C201.649 12.3229 200.205 22.5972 200.205 22.5972C200.205 22.5972 203.338 14.9914 204.917 15.9324C206.141 16.6672 202.983 25.0981 202.983 25.0981C202.983 25.0981 206.548 19.4969 207.392 20.7086C208.236 21.9204 204.549 28.4627 204.549 28.4627C204.549 28.4627 203.505 35.9396 200.166 38.1183" fill="#FFBCB3"/>
<path d="M204.541 28.4577C204.541 28.4577 203.961 32.6151 202.278 35.6316C201.608 32.6215 202.858 29.4954 205.134 27.3555C204.786 28.0194 204.541 28.4577 204.541 28.4577Z" fill="#FFA29B"/>
<path d="M195.745 25.9571C195.61 25.8797 195.475 25.7895 195.339 25.7057C195.107 25.551 194.882 25.3769 194.663 25.2029C194.63 25.1771 194.611 25.1642 194.598 25.1514C194.585 25.1385 194.559 25.1191 194.527 25.0869C194.418 24.9967 194.314 24.9 194.205 24.8097C193.805 24.4617 193.419 24.1007 193.012 23.7655C193.238 23.9589 192.342 23.1983 192.722 23.5206C192.613 23.4239 192.503 23.3337 192.394 23.2434C192.117 23.0114 191.833 22.7794 191.543 22.5538C190.292 21.5869 188.926 20.923 187.463 20.6588C187.411 20.5169 187.392 20.4074 187.431 20.3365C187.746 19.7564 188.971 19.4728 190.286 20.4847C191.607 21.4967 193.535 23.3788 193.535 23.3788C193.535 23.3788 193.515 23.2241 193.489 22.9663C193.941 23.4304 194.379 23.9009 194.779 24.4101C194.869 24.5261 194.959 24.6357 195.043 24.7517C195.056 24.7711 195.075 24.7968 195.088 24.8162C195.101 24.8291 195.107 24.842 195.12 24.8549C195.256 25.0547 195.391 25.2609 195.52 25.4736C195.623 25.6412 195.713 25.8088 195.803 25.9828C195.784 25.9764 195.752 25.9635 195.745 25.9571Z" fill="#FFA29B"/>
<path d="M206.909 23.5586L204.543 28.4573C204.543 28.4573 203.679 36.3983 200.16 38.1128" stroke="#673607" stroke-width="1.34825" stroke-miterlimit="10" stroke-linecap="round" stroke-linejoin="round"/>
<path d="M204.91 15.9258C204.91 15.9258 206 18.7812 202.977 25.0915" stroke="#673607" stroke-width="1.34825" stroke-miterlimit="10" stroke-linecap="round" stroke-linejoin="round"/>
<path d="M200 12.1758C200 12.1758 201.657 13.1362 200.2 22.5983" stroke="#673607" stroke-width="1.34825" stroke-miterlimit="10" stroke-linecap="round" stroke-linejoin="round"/>
<path d="M194.289 13.0567C194.289 13.0567 195.868 12.6893 196.448 21.9838" stroke="#673607" stroke-width="1.34825" stroke-miterlimit="10" stroke-linecap="round" stroke-linejoin="round"/>
<path d="M187.422 20.3401C187.422 20.3401 189.124 17.9165 193.526 23.3824C193.526 23.3824 197.2 27.0757 197.683 30.6466" stroke="#673607" stroke-width="1.34825" stroke-miterlimit="10" stroke-linecap="round" stroke-linejoin="round"/>
<path d="M190.587 27.2656C190.587 27.2656 190.967 32.0934 191.915 33.7241L189.266 36.5602" stroke="#673607" stroke-width="1.34825" stroke-miterlimit="10" stroke-linecap="round" stroke-linejoin="round"/>
<path d="M108.512 24.7627C108.512 24.7627 111.78 48.5535 113.952 54.3997C116.246 60.5553 128.087 75.9925 128.087 75.9925L135.338 69.6436L134.887 60.0461L125.328 45.3565L116.511 19.9414" fill="#FFBCB3"/>
<path d="M118.593 60.9441C119.27 59.6485 120.05 58.4174 120.791 57.1605C122.608 54.0859 127.288 49.8641 128.242 49.8125L134.887 60.0481L135.339 69.6457L128.087 75.9946C128.087 75.9946 122.37 68.537 118.109 61.9238C118.264 61.5887 118.432 61.2599 118.593 60.9441Z" fill="#FFA29B"/>
<path d="M125.966 47.7686L121.77 35.1094" stroke="#673607" stroke-width="1.34825" stroke-miterlimit="10" stroke-linecap="round" stroke-linejoin="round"/>
<path d="M118.246 24.0287C118.246 24.0287 121.843 19.188 122.674 17.1899C123.087 16.1972 127.592 14.0509 127.528 13.3934C127.457 12.7359 126.439 12.0011 124.834 12.433C123.229 12.8649 120.721 13.8639 120.721 13.8639C120.721 13.8639 125.73 4.76916 123.976 4.02791C122.558 3.42847 118.562 11.4468 118.562 11.4468C118.562 11.4468 121.115 1.67526 119.039 1.01781C117.46 0.521496 114.862 10.5638 114.862 10.5638C114.862 10.5638 114.888 2.33916 113.07 2.60343C111.659 2.80969 111.343 11.8078 111.343 11.8078C111.343 11.8078 110.196 5.27836 108.952 6.07762C107.708 6.87688 108.61 14.328 108.61 14.328C108.61 14.328 106.709 21.6309 108.958 24.9246" fill="#FFBCB3"/>
<path d="M108.603 14.3286C108.603 14.3286 107.546 18.3893 107.939 21.8184C109.712 19.2981 109.757 15.9271 108.474 13.0781C108.545 13.8323 108.603 14.3286 108.603 14.3286Z" fill="#FFA29B"/>
<path d="M117.684 15.3925C117.845 15.3731 118 15.3474 118.155 15.3151C118.432 15.2571 118.703 15.1862 118.973 15.1153C119.012 15.1024 119.038 15.096 119.057 15.096C119.076 15.0895 119.102 15.0766 119.147 15.0638C119.283 15.0186 119.418 14.9735 119.547 14.9284C120.05 14.7608 120.546 14.5803 121.049 14.4192C120.765 14.5094 121.88 14.1549 121.41 14.3032C121.545 14.258 121.687 14.2129 121.822 14.1743C122.17 14.0647 122.518 13.9551 122.873 13.8649C124.401 13.4523 125.915 13.3621 127.372 13.6779C127.469 13.5684 127.533 13.4717 127.527 13.3943C127.456 12.7369 126.437 12.0021 124.832 12.4339C123.227 12.8658 120.72 13.8649 120.72 13.8649C120.72 13.8649 120.791 13.7295 120.92 13.4975C120.327 13.7553 119.74 14.0196 119.173 14.3354C119.044 14.4063 118.922 14.4772 118.793 14.5481C118.767 14.561 118.748 14.5739 118.722 14.5868C118.709 14.5932 118.696 14.6061 118.677 14.6126C118.471 14.7479 118.271 14.8833 118.071 15.0315C117.916 15.1475 117.762 15.27 117.613 15.3925C117.646 15.3989 117.678 15.3925 117.684 15.3925Z" fill="#FFA29B"/>
<path d="M108.294 8.89453L108.603 14.3282C108.603 14.3282 106.354 21.992 108.951 24.9248" stroke="#673607" stroke-width="1.34825" stroke-miterlimit="10" stroke-linecap="round" stroke-linejoin="round"/>
<path d="M113.065 2.61719C113.065 2.61719 110.964 4.84093 111.338 11.8215" stroke="#673607" stroke-width="1.34825" stroke-miterlimit="10" stroke-linecap="round" stroke-linejoin="round"/>
<path d="M119.032 1.03125C119.032 1.03125 117.137 1.28263 114.855 10.5772" stroke="#673607" stroke-width="1.34825" stroke-miterlimit="10" stroke-linecap="round" stroke-linejoin="round"/>
<path d="M123.977 4.03568C123.977 4.03568 122.655 3.09462 118.562 11.4546" stroke="#673607" stroke-width="1.34825" stroke-miterlimit="10" stroke-linecap="round" stroke-linejoin="round"/>
<path d="M127.526 13.3928C127.526 13.3928 126.882 10.5052 120.72 13.8634C120.72 13.8634 115.905 15.868 114.094 18.9748" stroke="#673607" stroke-width="1.34825" stroke-miterlimit="10" stroke-linecap="round" stroke-linejoin="round"/>
<path d="M121.948 18.5742C121.948 18.5742 119.744 22.8863 118.242 24.0272L119.634 28.9646" stroke="#673607" stroke-width="1.34825" stroke-miterlimit="10" stroke-linecap="round" stroke-linejoin="round"/>
<path d="M135.09 106.395L131.932 112.525C131.287 113.782 130.971 115.2 131.152 116.605C131.307 117.823 131.725 119.467 133.221 119.705C137.823 120.427 141.375 108.658 140.021 106.324L135.09 106.395Z" fill="#00A259"/>
<path d="M130.301 85.7773L134.426 108.292L132.763 112.417C132.331 113.494 132.853 114.712 133.93 115.137L135.006 115.563C136.128 116.001 137.385 115.401 137.752 114.254L139.428 108.994L142.393 93.3703L130.301 85.7773Z" fill="#FFBCB3"/>
<path d="M162.825 113.008L166.235 119.002C166.931 120.233 167.305 121.639 167.183 123.044C167.079 124.262 166.731 125.925 165.242 126.221C160.672 127.13 156.644 115.515 157.901 113.13L162.825 113.008Z" fill="#00A259"/>
<path d="M164.562 95.75L163.575 114.887L165.406 118.941C165.883 119.998 165.406 121.236 164.349 121.707L163.292 122.171C162.19 122.66 160.907 122.113 160.494 120.978L158.606 115.796L153.34 99.1791L164.562 95.75Z" fill="#FFBCB3"/>
<path d="M129.506 94.0263L127.598 98.2739C127.598 98.2739 132.451 106.821 141.404 105.3C150.357 103.778 151.865 105.461 156.764 105.616C161.663 105.764 167.567 98.8154 167.677 95.5926L166.175 91.8477L129.506 94.0263Z" fill="#00BC74"/>
<path opacity="0.39" d="M128.281 93.5313C131.259 97.5018 135.591 100.273 140.47 101.182C147.244 102.446 156.958 102.587 164.738 96.0838C165.969 95.0589 166.51 93.4218 166.169 91.8555L128.281 93.5313Z" fill="#00A259"/>
<path d="M121.723 69.1067C121.723 69.1067 128.123 62.8995 130.817 52.5156C130.817 52.5156 139.99 64.6076 140.228 69.0422L155.143 67.3083C155.143 67.3083 156.065 64.917 167.725 56.0414C167.725 56.0414 170.4 62.7384 171.515 64.5947C172.579 66.3737 176.44 70.5956 176.44 70.5956C176.44 70.5956 172.153 75.2171 169.079 77.2668L166.964 83.4933L166.172 91.8533C166.172 91.8533 155.814 98.9885 145.314 97.7574C134.82 96.5263 128.284 93.5227 128.284 93.5227L128.046 86.426L125.925 74.4178L121.723 69.1067Z" fill="#00BC74"/>
<path opacity="0.39" d="M140.798 66.8086C140.798 66.8086 139.851 68.4393 138.703 72.2616C137.556 76.0838 138.342 81.1888 148.049 75.9614L140.798 66.8086Z" fill="#00A259"/>
<path opacity="0.39" d="M154.893 65.9258C154.893 65.9258 156.827 66.7444 157.936 71.179C158.903 75.0528 157.652 81.3888 148.055 75.9616L154.893 65.9258Z" fill="#00A259"/>
<path d="M146.955 75.8508C143.468 75.1804 141.193 71.8094 141.863 68.3287L144.345 55.4375L156.959 57.8675L154.477 70.7587C153.807 74.2394 150.442 76.5211 146.955 75.8508Z" fill="#FFA29B"/>
<path d="M124.938 68.9375L128.044 86.4309" stroke="#673607" stroke-width="1.26525" stroke-miterlimit="10" stroke-linecap="round" stroke-linejoin="round"/>
<path d="M169.92 74.7891L166.962 83.4971L166.285 89.9749" stroke="#673607" stroke-width="1.26525" stroke-miterlimit="10" stroke-linecap="round" stroke-linejoin="round"/>
<path d="M160.52 71.0612L158.219 70.784L158.077 67.4258C158.077 67.4258 156.098 70.3393 155.937 70.3199L133.99 66.7942C133.99 66.7942 131.585 49.0945 140.255 39.9739C147.648 32.1941 165.09 37.6535 166.069 48.4499C166.817 56.6617 167.449 63.5327 160.52 71.0612Z" fill="#462005"/>
<path d="M165.692 60.4418C165.344 62.7622 163.185 64.3607 160.865 64.0126C158.544 63.6646 156.946 61.5053 157.294 59.1849C157.642 56.8644 159.801 55.2659 162.121 55.614C164.435 55.9556 166.04 58.1213 165.692 60.4418Z" fill="#FFBCB3"/>
<path d="M160.684 57.5619C160.684 57.5619 163.578 57.143 164.551 60.2433" stroke="#F6695D" stroke-width="1.066" stroke-miterlimit="10" stroke-linecap="round" stroke-linejoin="round"/>
<path d="M163.12 58.4375C163.12 58.4375 163.042 60.2552 160.645 61.2542" stroke="#F6695D" stroke-width="1.066" stroke-miterlimit="10" stroke-linecap="round" stroke-linejoin="round"/>
<path d="M140.96 57.6441C142.088 55.5869 141.334 53.0051 139.277 51.8775C137.22 50.7498 134.638 51.5032 133.511 53.5604C132.383 55.6175 133.136 58.1993 135.194 59.327C137.251 60.4547 139.832 59.7012 140.96 57.6441Z" fill="#FFBCB3"/>
<path d="M134.531 54.4864C134.531 54.4864 135.749 53.0619 137.973 53.5518" stroke="#F6695D" stroke-width="1.066" stroke-miterlimit="10" stroke-linecap="round" stroke-linejoin="round"/>
<path d="M136.281 53.5352C136.281 53.5352 136.436 56.0941 137.345 56.7128" stroke="#F6695D" stroke-width="1.066" stroke-miterlimit="10" stroke-linecap="round" stroke-linejoin="round"/>
<path d="M164.054 47.0062L157.583 63.6037C156.996 65.1378 156.074 66.5107 154.921 67.6258C153.76 68.7473 152.368 69.6239 150.808 70.1589C149.584 70.5779 148.314 70.7712 147.057 70.7261C145.188 70.6617 143.351 70.088 141.752 69.0309C138.813 67.1037 137.195 63.7326 137.492 60.2778C137.511 59.9813 137.55 59.6719 137.601 59.3754L138.665 54.148L140.908 43.0938L164.054 47.0062Z" fill="#FFBCB3"/>
<path d="M138.379 49.2203C138.379 49.2203 145.985 51.2442 152.179 51.444C153.848 51.4956 154.525 48.1052 154.525 48.1052C154.525 48.1052 154.261 52.1788 156.478 52.746C158.347 53.2295 160.732 53.932 162.544 54.2736L165.625 46.0877L140.654 41.8594L138.379 49.2203Z" fill="#462005"/>
<path d="M153.326 55.3794C153.152 56.2754 152.708 56.9457 152.34 56.8748C151.973 56.8039 151.812 56.0176 151.992 55.1216C152.166 54.2257 152.611 53.5553 152.978 53.6262C153.346 53.6971 153.5 54.4835 153.326 55.3794Z" fill="#673606"/>
<path d="M148.142 53.7905C148.181 53.6423 147.994 53.552 147.904 53.6745C147.175 54.68 145.673 56.6846 144.687 57.529C144.03 58.0898 145.931 59.1468 146.486 59.4304C146.563 59.4691 146.653 59.424 146.673 59.3402L148.142 53.7905Z" fill="#FF6B5C"/>
<path d="M138.3 56.3871C138.364 57.3991 139.235 58.1726 140.247 58.1146C141.259 58.0501 142.032 57.18 141.974 56.168C141.91 55.156 141.039 54.3826 140.027 54.4406C139.009 54.505 138.242 55.3752 138.3 56.3871Z" fill="#FF6B5C"/>
<path d="M152.699 58.7309C152.764 59.7428 153.634 60.5163 154.646 60.4583C155.658 60.3939 156.431 59.5237 156.373 58.5117C156.309 57.4998 155.438 56.7263 154.426 56.7843C153.408 56.8488 152.635 57.7189 152.699 58.7309Z" fill="#FF6B5C"/>
<path d="M145.973 61.0137C145.973 61.0137 147.719 61.5551 148.899 60.4336" stroke="#673607" stroke-width="1.37338" stroke-miterlimit="10" stroke-linecap="round" stroke-linejoin="round"/>
<path d="M143.451 54.274C143.277 55.1699 142.833 55.8403 142.465 55.7694C142.098 55.6985 141.937 54.9121 142.117 54.0162C142.291 53.1202 142.736 52.4499 143.103 52.5208C143.471 52.5917 143.625 53.378 143.451 54.274Z" fill="#673606"/>
<path d="M146.727 63.1801C146.727 63.1801 147.816 63.6957 148.692 63.0898" stroke="#673607" stroke-width="1.26525" stroke-miterlimit="10" stroke-linecap="round" stroke-linejoin="round"/>
<path d="M145.617 54.6651C145.411 56.3668 143.864 57.585 142.162 57.3787C140.461 57.1725 139.242 55.6255 139.449 53.9239C139.655 52.2222 141.202 51.004 142.903 51.2103C144.611 51.4101 145.823 52.957 145.617 54.6651Z" stroke="#F1F1F1" stroke-width="1.68688" stroke-miterlimit="10"/>
<path d="M155.711 55.88C155.505 57.5816 153.958 58.7998 152.256 58.5936C150.554 58.3873 149.336 56.8404 149.542 55.1387C149.749 53.4371 151.296 52.2189 152.997 52.4251C154.699 52.6314 155.917 54.1783 155.711 55.88Z" stroke="#F1F1F1" stroke-width="1.68688" stroke-miterlimit="10"/>
<path d="M145.617 54.6641L149.536 55.1346" stroke="#F1F1F1" stroke-width="1.68688" stroke-miterlimit="10"/>
<path d="M154.538 42.9449C158.908 42.8631 162.385 39.2538 162.303 34.8832C162.222 30.5127 158.612 27.0359 154.242 27.1176C149.871 27.1994 146.394 30.8087 146.476 35.1793C146.558 39.5498 150.167 43.0266 154.538 42.9449Z" fill="#4C1D00"/>
<path d="M180.62 45.3867L173.613 53.1408" stroke="#673607" stroke-width="1.34825" stroke-miterlimit="10" stroke-linecap="round" stroke-linejoin="round"/>
<path opacity="0.55" d="M179.913 175.033C178.315 169.728 184.599 164.81 184.006 159.306C183.49 154.575 178.418 152.016 174.26 149.696C170.561 147.626 166.764 144.513 166.551 140.278C166.364 136.508 169.31 133.079 172.862 131.802C176.413 130.526 180.377 131.042 183.967 132.221C189.588 134.071 193.784 137.642 197.51 142.115C198.38 143.166 199.579 143.869 200.43 144.932C201.603 146.402 202.318 148.348 202.892 150.121C204.11 153.872 204.458 157.907 203.839 161.807C203.201 165.829 201.545 169.67 199.108 172.926C197.916 174.518 196.408 175.749 195.118 177.244C194.745 177.676 194.461 178.159 193.984 178.495C191.973 179.919 188.699 180.132 186.372 179.777C183.619 179.358 180.77 177.863 179.913 175.033Z" fill="#F1DED0"/>
<path d="M184.155 137.195L177.6 135.048C176.259 134.61 174.803 134.526 173.449 134.926C172.276 135.274 170.716 135.944 170.723 137.465C170.742 142.125 182.924 143.756 185.013 142.048L184.155 137.195Z" fill="#0097EF"/>
<path d="M195.114 132.418L182.171 136.84L180.373 136.459C179.245 136.202 178.123 136.917 177.872 138.045L177.627 139.173C177.369 140.353 178.162 141.5 179.354 141.68L182.274 141.893L195.397 142.248L195.114 132.418Z" fill="#FFBCB3"/>
<path d="M197.237 167.498L193.37 173.209C192.577 174.382 191.481 175.336 190.166 175.852C189.025 176.297 187.382 176.722 186.453 175.517C183.611 171.823 192.248 163.07 194.942 163.141L197.237 167.498Z" fill="#0097EF"/>
<path d="M209.829 161.98L195.887 168.999L194.353 170.901C193.618 171.797 192.297 171.919 191.407 171.178L190.518 170.437C189.596 169.663 189.519 168.271 190.35 167.401L192.871 164.952L201.501 155.605L209.829 161.98Z" fill="#FFBCB3"/>
<path d="M187.842 141.964C187.855 141.99 187.868 142.015 187.874 142.041L195.396 142.241L195.113 132.418L187.094 135.157C186.94 136.621 187.023 138.116 187.255 139.553C187.384 140.346 187.578 141.165 187.842 141.964Z" fill="#FFA29B"/>
<path d="M198.226 164.989C198.884 165.601 199.554 166.214 200.25 166.781C200.257 166.787 200.263 166.787 200.27 166.794L209.829 161.979L201.501 155.598L195.758 161.824C196.447 162.984 197.26 164.08 198.226 164.989Z" fill="#FFA29B"/>
<path d="M203.094 126.102L189.455 133.443C188.849 133.765 188.52 134.442 188.643 135.119L189.809 141.829C189.925 142.48 190.422 142.989 191.073 143.118L207.857 146.425L197.293 158.098C196.596 158.865 196.596 160.038 197.286 160.811L201.811 165.865C202.372 166.49 203.268 166.709 204.054 166.4L216.333 161.636L203.094 126.102Z" fill="#0084D1"/>
<path d="M196.34 130.555C196.34 130.555 197.9 133.894 203.005 133.204" stroke="#673607" stroke-width="1.26525" stroke-miterlimit="10" stroke-linecap="round" stroke-linejoin="round"/>
<path d="M211.283 156.73C210.909 157.562 208.685 159.766 209.053 163.099" stroke="#673607" stroke-width="1.26525" stroke-miterlimit="10" stroke-linecap="round" stroke-linejoin="round"/>
<path d="M277.448 91.0651C278.467 90.7235 283.056 92.6894 283.501 92.1995C283.945 91.7097 283.823 90.4656 282.437 89.5439C281.051 88.6222 278.647 87.404 278.647 87.404C278.647 87.404 288.786 85.1609 288.18 83.3561C287.69 81.8994 279.034 84.1941 279.034 84.1941C279.034 84.1941 288.058 79.6563 287.175 77.6646C286.504 76.1499 277.248 80.8359 277.248 80.8359C277.248 80.8359 283.443 75.4216 282.037 74.2291C280.948 73.301 273.987 79.0118 273.987 79.0118C273.987 79.0118 278.144 73.8295 276.72 73.4234C275.302 73.0174 270.3 78.6121 270.3 78.6121C270.3 78.6121 263.558 82.009 262.572 85.8699C262.572 85.8699 241.92 96.0089 236.886 99.6958C231.588 103.57 222.422 116.944 222.422 116.944L230.498 122.204L239.612 119.162L249.751 108.662L269.378 92.2575C269.385 92.2575 275.392 91.7612 277.448 91.0651Z" fill="#FFBCB3"/>
<path d="M239.616 119.16L244.141 114.48C243.761 114.332 243.38 114.177 243.013 113.991C239.455 112.224 236.993 109.008 234.788 105.805C234.215 104.973 233.661 104.103 233.138 103.207C228.13 108.621 222.426 116.943 222.426 116.943L230.502 122.202L239.616 119.16Z" fill="#FFA29B"/>
<path d="M270.296 78.6106C270.296 78.6106 266.551 80.4992 264.23 83.0645C267.292 82.7293 269.851 80.5378 271.147 77.6953C270.631 78.2367 270.296 78.6106 270.296 78.6106Z" fill="#FFA29B"/>
<path d="M275.503 86.135C275.626 86.2381 275.748 86.3412 275.877 86.4379C276.103 86.6119 276.335 86.7602 276.567 86.9213C276.599 86.9407 276.618 86.96 276.638 86.9664C276.657 86.9793 276.683 86.9922 276.722 87.0116C276.844 87.0825 276.966 87.1534 277.089 87.2243C277.547 87.4885 278.011 87.7399 278.462 88.0106C278.204 87.856 279.216 88.4618 278.784 88.2105C278.907 88.2814 279.029 88.3587 279.152 88.436C279.461 88.623 279.777 88.8163 280.08 89.0162C281.401 89.8928 282.465 90.9692 283.187 92.2712C283.335 92.2712 283.451 92.2583 283.502 92.2003C283.947 91.7104 283.825 90.4664 282.439 89.5447C281.053 88.623 278.649 87.4048 278.649 87.4048C278.649 87.4048 278.797 87.3725 279.055 87.3145C278.468 87.0374 277.882 86.7731 277.276 86.5539C277.141 86.5024 277.005 86.4572 276.863 86.4121C276.838 86.4057 276.812 86.3928 276.786 86.3863C276.767 86.3799 276.754 86.3799 276.734 86.3735C276.496 86.309 276.264 86.2445 276.019 86.193C275.832 86.1543 275.639 86.1221 275.445 86.0898C275.471 86.1027 275.497 86.1285 275.503 86.135Z" fill="#FFA29B"/>
<path d="M274.169 74.7891L270.295 78.6113C270.295 78.6113 263.056 81.9888 262.566 85.8691" stroke="#673607" stroke-width="1.34825" stroke-miterlimit="10" stroke-linecap="round" stroke-linejoin="round"/>
<path d="M282.035 74.2229C282.035 74.2229 278.98 74.1133 273.984 79.0055" stroke="#673607" stroke-width="1.34825" stroke-miterlimit="10" stroke-linecap="round" stroke-linejoin="round"/>
<path d="M287.172 77.657C287.172 77.657 285.735 76.4001 277.246 80.8282" stroke="#673607" stroke-width="1.34825" stroke-miterlimit="10" stroke-linecap="round" stroke-linejoin="round"/>
<path d="M288.178 83.3483C288.178 83.3483 288.016 81.7369 279.031 84.1863" stroke="#673607" stroke-width="1.34825" stroke-miterlimit="10" stroke-linecap="round" stroke-linejoin="round"/>
<path d="M283.501 92.1991C283.501 92.1991 285.248 89.8078 278.648 87.4036C278.648 87.4036 273.962 85.1154 270.43 85.8115" stroke="#673607" stroke-width="1.34825" stroke-miterlimit="10" stroke-linecap="round" stroke-linejoin="round"/>
<path d="M275.929 91.4297C275.929 91.4297 271.237 92.6221 269.387 92.2547" stroke="#673607" stroke-width="1.34825" stroke-miterlimit="10" stroke-linecap="round" stroke-linejoin="round"/>
<path d="M295.068 148.913C296.086 148.558 298.491 144.182 299.142 144.291C299.793 144.401 300.469 145.458 299.941 147.037C299.419 148.616 298.272 151.059 298.272 151.059C298.272 151.059 307.643 146.586 308.275 148.378C308.791 149.828 300.553 153.354 300.553 153.354C300.553 153.354 310.46 151.375 310.989 153.483C311.395 155.087 301.211 157.099 301.211 157.099C301.211 157.099 309.422 157.556 309.055 159.355C308.765 160.753 299.767 160.541 299.767 160.541C299.767 160.541 306.232 162.062 305.362 163.261C304.492 164.453 297.105 163.125 297.105 163.125C297.105 163.125 289.699 164.601 286.547 162.165C286.547 162.165 264.032 166.889 257.799 167.089C251.238 167.296 235.781 162.403 235.781 162.403L238.907 153.289L247.963 150.073L262.421 152.103L287.984 152.941C287.978 152.935 293.025 149.628 295.068 148.913Z" fill="#FFBCB3"/>
<path d="M247.965 150.066L254.41 150.969C254.198 151.323 253.998 151.678 253.824 152.052C252.109 155.635 252.148 159.683 252.387 163.564C252.451 164.575 252.541 165.6 252.689 166.625C245.406 165.439 235.789 162.397 235.789 162.397L238.915 153.283L247.965 150.066Z" fill="#FFA29B"/>
<path d="M297.109 163.127C297.109 163.127 292.997 163.946 289.594 163.353C292.217 161.735 295.582 161.883 298.353 163.327C297.606 163.218 297.109 163.127 297.109 163.127Z" fill="#FFA29B"/>
<path d="M296.57 153.998C296.602 153.843 296.635 153.689 296.673 153.534C296.744 153.263 296.834 152.992 296.925 152.728C296.938 152.689 296.944 152.664 296.95 152.651C296.957 152.631 296.97 152.606 296.983 152.561C297.034 152.432 297.086 152.296 297.137 152.167C297.337 151.678 297.543 151.194 297.737 150.698C297.627 150.975 298.053 149.879 297.872 150.343C297.924 150.208 297.975 150.073 298.027 149.937C298.156 149.596 298.285 149.254 298.401 148.906C298.903 147.404 299.077 145.896 298.845 144.426C298.961 144.336 299.065 144.278 299.135 144.291C299.786 144.4 300.463 145.458 299.935 147.037C299.413 148.616 298.265 151.059 298.265 151.059C298.265 151.059 298.401 150.994 298.639 150.885C298.349 151.465 298.046 152.032 297.705 152.58C297.627 152.702 297.55 152.825 297.466 152.941C297.453 152.96 297.434 152.986 297.421 153.005C297.408 153.018 297.402 153.031 297.389 153.044C297.24 153.244 297.092 153.437 296.938 153.624C296.815 153.772 296.68 153.914 296.551 154.056C296.564 154.037 296.57 154.004 296.57 153.998Z" fill="#FFA29B"/>
<path d="M302.513 163.754L297.105 163.128C297.105 163.128 289.325 164.927 286.547 162.168" stroke="#673607" stroke-width="1.34825" stroke-miterlimit="10" stroke-linecap="round" stroke-linejoin="round"/>
<path d="M309.054 159.355C309.054 159.355 306.714 161.321 299.766 160.541" stroke="#673607" stroke-width="1.34825" stroke-miterlimit="10" stroke-linecap="round" stroke-linejoin="round"/>
<path d="M310.989 153.484C310.989 153.484 310.628 155.36 301.211 157.1" stroke="#673607" stroke-width="1.34825" stroke-miterlimit="10" stroke-linecap="round" stroke-linejoin="round"/>
<path d="M308.273 148.379C308.273 148.379 309.136 149.752 300.551 153.355" stroke="#673607" stroke-width="1.34825" stroke-miterlimit="10" stroke-linecap="round" stroke-linejoin="round"/>
<path d="M299.135 144.293C299.135 144.293 301.984 145.105 298.265 151.061C298.265 151.061 295.983 155.747 292.773 157.378" stroke="#673607" stroke-width="1.34825" stroke-miterlimit="10" stroke-linecap="round" stroke-linejoin="round"/>
<path d="M293.644 149.559C293.644 149.559 289.209 151.505 287.984 152.936" stroke="#673607" stroke-width="1.34825" stroke-miterlimit="10" stroke-linecap="round" stroke-linejoin="round"/>
<path d="M203.101 126.105C200.239 130.16 198.931 135.136 199.569 140.054C200.452 146.886 203.301 156.174 211.88 161.582C213.234 162.433 214.961 162.452 216.34 161.647L203.101 126.105Z" fill="#FFDBA6"/>
<path d="M227.146 108.113C227.146 108.113 232.67 112.754 243.241 116.802C243.241 116.802 234.21 128.353 230.066 129.945L236.299 143.603C236.299 143.603 238.71 141.779 250.737 150.152L245.187 166.446C245.187 166.446 232.928 162.115 229.847 160.458L224.536 159.833L216.337 161.651C216.337 161.651 206.359 153.987 204.309 143.622C202.253 133.258 203.097 126.116 203.097 126.116L209.775 123.705L220.546 118.001L227.146 108.113Z" fill="#FFE6BC"/>
<path d="M236.3 143.603L230.286 130.422C227.921 131.356 225.665 132.678 223.905 134.489C221.978 136.474 220.708 138.988 221.03 141.811C221.34 144.551 223.041 146.858 225.761 147.419C228.417 147.967 231.453 147.187 233.696 145.988C234.792 145.402 236.107 144.428 237.08 143.474C237.093 143.461 237.099 143.455 237.112 143.442C236.513 143.442 236.3 143.603 236.3 143.603Z" fill="#FFDEAC"/>
<path d="M199.793 130.628C201.218 130.982 205.994 130.641 207.322 130.667C209.5 130.705 211.685 130.86 213.857 130.892C216.674 130.937 219.484 130.602 222.25 130.086C226.594 129.274 230.99 128.204 234.941 126.206C238.963 122.274 243.243 116.802 243.243 116.802C232.666 112.754 227.148 108.113 227.148 108.113L220.554 117.988L209.784 123.692L200.154 125.072C200.148 125.072 199.787 127.972 199.793 130.628Z" fill="#0097EF"/>
<path d="M237.264 123.787C235.259 125.109 232.733 125.463 230.425 125.953C227.886 126.495 225.333 126.984 222.768 127.403C217.637 128.228 212.436 128.744 207.234 128.692C204.32 128.66 201.407 128.454 198.526 128.029C198.113 127.964 197.933 128.602 198.352 128.66C203.547 129.434 208.813 129.511 214.047 129.118C219.332 128.718 224.573 127.855 229.761 126.772C231.16 126.482 232.559 126.192 233.945 125.843C235.221 125.521 236.484 125.089 237.593 124.361C237.954 124.123 237.625 123.549 237.264 123.787Z" fill="#0088DB"/>
<path d="M250.738 150.143C243.049 144.794 240.922 144.342 238.402 143.82C237.39 144.284 236.378 144.742 235.372 145.213C227.715 148.829 215.964 154.681 210.859 161.552C211.923 162.532 213.882 163.699 213.882 163.699L224.537 159.825L229.848 160.45C232.929 162.107 245.189 166.438 245.189 166.438L250.738 150.143Z" fill="#0097EF"/>
<path d="M241.586 143.152C236.945 145.802 232.31 148.444 227.67 151.093C223.59 153.42 219.503 155.773 215.739 158.596C213.657 160.156 211.678 161.858 209.893 163.746C209.603 164.056 210.067 164.52 210.357 164.21C213.573 160.82 217.363 158.074 221.314 155.605C225.497 152.995 229.829 150.623 234.109 148.18C236.713 146.697 239.317 145.209 241.921 143.726C242.288 143.507 241.953 142.94 241.586 143.152Z" fill="#0088DB"/>
<path d="M225.662 138.442C225.23 134.923 227.731 131.713 231.257 131.281L244.283 129.676L245.849 142.425L232.823 144.03C229.304 144.462 226.1 141.961 225.662 138.442Z" fill="#FFA29B"/>
<path d="M235.02 124.453C235.02 124.453 243.489 115.894 255.317 120.199C264.231 123.448 265.752 141.264 256.193 146.388C248.929 150.281 246.216 147.986 238.713 140.909L235.02 124.453Z" fill="#7C4A1A"/>
<path d="M256.726 143.962L238.923 144.484C237.28 144.542 235.662 144.226 234.18 143.601C232.691 142.969 231.343 142.028 230.241 140.81C229.378 139.85 228.701 138.754 228.256 137.581C227.586 135.834 227.392 133.92 227.74 132.037C228.366 128.583 230.834 125.772 234.141 124.696C234.424 124.593 234.721 124.509 235.017 124.445L240.245 123.381L251.299 121.125L256.726 143.962Z" fill="#FFBCB3"/>
<path d="M241.78 120.919C242.45 121.583 241.625 124.122 241.625 124.122L249.437 122.943C249.437 122.943 253.092 125.74 251.545 129.679C251.545 129.679 256.012 134.945 253.756 139.534L246.575 143.279L247.955 146.875L257.945 144.136L253.227 120.629L241.78 120.919Z" fill="#7C4A1A"/>
<path d="M239.402 126.759C237.133 127.346 234.812 125.979 234.226 123.71C233.639 121.441 235.006 119.121 237.275 118.534C239.543 117.948 241.864 119.314 242.45 121.583C243.037 123.852 241.67 126.172 239.402 126.759Z" fill="#FFBCB3"/>
<path d="M244.71 150.785C247.019 150.368 248.552 148.158 248.135 145.849C247.718 143.541 245.508 142.007 243.2 142.424C240.891 142.842 239.358 145.051 239.775 147.36C240.192 149.668 242.402 151.202 244.71 150.785Z" fill="#FFBCB3"/>
<path d="M244.832 137.36C243.936 137.547 243.15 137.405 243.073 137.032C242.995 136.664 243.659 136.213 244.549 136.02C245.445 135.833 246.231 135.974 246.308 136.348C246.386 136.716 245.722 137.167 244.832 137.36Z" fill="#673606"/>
<path d="M244.283 131.97C244.431 131.951 244.444 131.738 244.302 131.706C243.09 131.429 240.66 130.829 239.5 130.249C238.727 129.862 238.501 132.028 238.45 132.647C238.443 132.731 238.521 132.802 238.604 132.789L244.283 131.97Z" fill="#FF6B5C"/>
<path d="M238.044 123.923C237.135 124.374 236.761 125.483 237.219 126.392C237.677 127.301 238.779 127.675 239.688 127.217C240.597 126.766 240.97 125.657 240.513 124.748C240.055 123.839 238.953 123.472 238.044 123.923Z" fill="#FF6B5C"/>
<path d="M241.501 138.094C240.592 138.545 240.218 139.654 240.676 140.563C241.127 141.472 242.236 141.845 243.145 141.388C244.054 140.937 244.427 139.828 243.97 138.919C243.519 138.01 242.41 137.636 241.501 138.094Z" fill="#FF6B5C"/>
<path d="M239.335 136.597C237.305 134.644 236.428 132.246 236.428 132.246C236.428 132.246 232.451 133.993 233.341 135.875C234.643 138.634 239.335 136.597 239.335 136.597Z" fill="#FF958C"/>
<path d="M231.535 133.156C231.535 133.156 238.161 134.271 239.193 140.182C239.193 140.182 232.089 140.285 231.535 133.156Z" fill="#FF6B5C"/>
<path d="M237.543 132.434L236.538 132.975C236.151 133.181 236.028 133.684 236.28 134.045L237.421 135.689C237.653 136.024 238.11 136.108 238.445 135.876L239.387 135.225L237.543 132.434Z" fill="#F1F1F1"/>
<path d="M239.335 136.597C237.305 134.644 236.428 132.246 236.428 132.246C236.428 132.246 232.451 133.993 233.341 135.875C234.643 138.634 239.335 136.597 239.335 136.597Z" stroke="#673607" stroke-width="1.37338" stroke-miterlimit="10" stroke-linecap="round" stroke-linejoin="round"/>
<path d="M241.992 127.833C241.096 128.02 240.31 127.878 240.233 127.504C240.155 127.137 240.819 126.686 241.709 126.492C242.605 126.305 243.391 126.447 243.468 126.821C243.552 127.195 242.888 127.646 241.992 127.833Z" fill="#673606"/>
<path d="M231.246 136.996C231.246 136.996 231.549 138.163 232.574 138.446" stroke="#673607" stroke-width="1.26525" stroke-miterlimit="10" stroke-linecap="round" stroke-linejoin="round"/>
<path d="M225.466 115.355L209.777 123.69" stroke="#673607" stroke-width="1.26525" stroke-miterlimit="10" stroke-linecap="round" stroke-linejoin="round"/>
<path d="M234.093 160.907L224.534 159.824L217.07 162.538" stroke="#673607" stroke-width="1.26525" stroke-miterlimit="10" stroke-linecap="round" stroke-linejoin="round"/>
<path d="M245.841 145.023C245.841 145.023 247.382 147.511 244.926 149.639" stroke="#F6695D" stroke-width="1.066" stroke-miterlimit="10" stroke-linecap="round" stroke-linejoin="round"/>
<path d="M246.246 147.525C246.246 147.525 244.602 148.305 242.598 146.648" stroke="#F6695D" stroke-width="1.066" stroke-miterlimit="10" stroke-linecap="round" stroke-linejoin="round"/>
<path d="M237.918 119.934C237.918 119.934 239.71 120.475 240.148 122.718" stroke="#F6695D" stroke-width="1.066" stroke-miterlimit="10" stroke-linecap="round" stroke-linejoin="round"/>
<path d="M239.484 121.152C239.484 121.152 237.196 122.319 236.996 123.402" stroke="#F6695D" stroke-width="1.066" stroke-miterlimit="10" stroke-linecap="round" stroke-linejoin="round"/>
<path d="M226.606 107.257L224.717 110.222C224.569 110.447 224.62 110.75 224.839 110.911C226.56 112.194 233.973 117.383 242.72 118.42C242.907 118.44 243.087 118.362 243.203 118.214L244.325 116.706C244.531 116.429 244.415 116.029 244.086 115.913C241.695 115.043 233.245 111.788 227.36 107.134C227.121 106.941 226.773 106.999 226.606 107.257Z" fill="#0088DB"/>
<path d="M249.396 148.552C247.662 150.57 242.473 157.396 242.847 166.433C242.86 166.813 243.112 167.155 243.466 167.296L245.703 168.192C246.328 168.444 247.018 167.999 247.043 167.322C247.153 164.048 247.868 155.752 252.135 150.596C252.516 150.138 252.406 149.455 251.897 149.139L250.64 148.366C250.24 148.114 249.712 148.192 249.396 148.552Z" fill="#0088DB"/>
<path d="M242.597 129.542C240.992 130.155 239.2 129.355 238.581 127.757C237.969 126.152 238.768 124.36 240.366 123.741C241.971 123.129 243.763 123.928 244.382 125.527C245.001 127.132 244.202 128.93 242.597 129.542Z" stroke="#F1F1F1" stroke-width="1.68688" stroke-miterlimit="10"/>
<path d="M245.8 139.866C244.195 140.479 242.403 139.679 241.784 138.081C241.172 136.476 241.971 134.684 243.57 134.065C245.174 133.453 246.966 134.252 247.585 135.851C248.204 137.456 247.405 139.254 245.8 139.866Z" stroke="#F1F1F1" stroke-width="1.68688" stroke-miterlimit="10"/>
<path d="M242.598 129.543L243.577 134.068" stroke="#F1F1F1" stroke-width="1.68688" stroke-miterlimit="10"/>
<path d="M192.895 143.48L199.224 144.731" stroke="#673607" stroke-width="1.26525" stroke-miterlimit="10" stroke-linecap="round" stroke-linejoin="round"/>
<path opacity="0.55" d="M151.158 217.038C153.614 211.469 150.352 203.941 144.448 202.471C142.05 201.872 139.498 202.201 137.113 201.562C132.807 200.415 129.861 196.309 128.553 192.049C127.161 187.53 126.871 182.064 123.01 179.338C119.98 177.198 115.552 177.746 112.664 180.073C109.777 182.4 108.307 186.164 108.101 189.87C107.946 192.616 108.346 195.484 110.009 197.727C110.795 198.791 111.143 199.964 111.601 201.189C112.091 202.497 112.671 203.767 113.335 204.992C117.06 211.869 123.216 217.29 130.106 220.88C132.581 222.169 135.224 223.252 137.996 223.697C139.349 223.916 140.735 223.974 142.095 223.813C142.669 223.742 143.236 223.677 143.81 223.619C145.299 223.465 146.562 222.246 147.703 221.363C149.179 220.223 150.404 218.753 151.158 217.038Z" fill="#F1DED0"/>
<path d="M61.7612 282.585L80.4599 262.874L87.8466 245.245C99.1973 238.593 105.05 246.592 105.05 246.592C105.05 246.592 96.2066 265.633 91.6624 270.866C86.9893 276.248 69.6699 287.38 68.6644 287.722C68.6644 287.722 67.4204 290.139 65.0162 292.047C63.9527 292.885 63.9914 293.117 60.124 293.871C58.3128 294.225 56.6047 293.316 56.6047 293.316C56.6047 293.316 47.9095 299.607 47.0523 298.312C45.9307 296.61 54.4712 290.854 54.4712 290.854C54.4712 290.854 45.9178 294.477 45.2346 293.2C44.3967 291.621 53.427 287.967 53.427 287.967C53.427 287.967 54.729 285.614 55.5089 284.969C57.6231 283.236 61.7612 282.585 61.7612 282.585Z" fill="#ED6818"/>
<path d="M83.7617 255.004C84.9477 255.12 86.1079 255.436 87.1908 255.958C90.4265 257.505 92.9016 260.321 94.8289 263.28C95.1447 263.763 95.4412 264.26 95.7377 264.756C100.127 257.202 105.058 246.592 105.058 246.592C105.058 246.592 99.2054 238.593 87.8547 245.245L83.7617 255.004Z" fill="#C34300"/>
<path d="M83.0423 263.745C84.7117 261.424 84.1832 259.156 82.9263 257.016L80.4705 262.868L77.0156 266.51C79.3167 266.465 81.8112 265.453 83.0423 263.745Z" fill="#C34300"/>
<path d="M56.4955 285.504C56.4955 285.504 55.2708 289.191 56.502 290.531C57.7395 291.872 59.396 288.359 59.396 288.359C59.396 288.359 61.5811 288.147 63.9531 285.839" stroke="#6F3300" stroke-width="1.26525" stroke-miterlimit="10" stroke-linecap="round" stroke-linejoin="round"/>
<path d="M45.2332 293.199C45.2332 293.199 44.0343 291.832 53.4256 287.965" stroke="#6F3300" stroke-width="1.26525" stroke-miterlimit="10" stroke-linecap="round" stroke-linejoin="round"/>
<path d="M47.0543 298.309C47.0543 298.309 45.6814 296.678 54.4732 290.852" stroke="#6F3300" stroke-width="1.26525" stroke-miterlimit="10" stroke-linecap="round" stroke-linejoin="round"/>
<path d="M60.4693 292.968C60.4693 292.968 62.3256 289.133 60.6627 288.72C58.9997 288.308 57.1562 292.439 57.1562 292.439" stroke="#6F3300" stroke-width="1.26525" stroke-miterlimit="10" stroke-linecap="round" stroke-linejoin="round"/>
<path d="M63.4357 292.111C63.4357 292.111 64.0093 288.515 62.9716 288.115C61.7276 287.638 61.3086 289.449 61.3086 289.449" stroke="#6F3300" stroke-width="1.26525" stroke-miterlimit="10" stroke-linecap="round" stroke-linejoin="round"/>
<path d="M65.0156 292.043C65.0156 292.043 67.697 289.839 68.6638 287.718L76.6951 282.613" stroke="#6F3300" stroke-width="1.26525" stroke-miterlimit="10" stroke-linecap="round" stroke-linejoin="round"/>
<path d="M60.0781 282.951L61.7604 282.583L66.44 277.652" stroke="#6F3300" stroke-width="1.26525" stroke-miterlimit="10" stroke-linecap="round" stroke-linejoin="round"/>
<path d="M29.3282 226.385L56.0195 221.293L74.8472 224.593C86.5718 218.631 83.0009 209.388 83.0009 209.388C83.0009 209.388 62.1944 206.546 55.3427 207.551C48.2912 208.583 29.5667 217.142 28.7352 217.8C28.7352 217.8 26.028 217.542 23.1211 218.535C21.8384 218.973 21.6644 218.818 18.9379 221.667C17.6616 223.001 17.5069 224.929 17.5069 224.929C17.5069 224.929 7.51622 228.854 8.14145 230.272C8.96649 232.141 18.4287 228.061 18.4287 228.061C18.4287 228.061 10.7584 233.308 11.4674 234.565C12.3375 236.125 20.2979 230.498 20.2979 230.498C20.2979 230.498 22.9793 230.672 23.9461 230.362C26.5437 229.518 29.3282 226.385 29.3282 226.385Z" fill="#ED6818"/>
<path d="M64.42 222.769C64.9614 221.712 65.3224 220.558 65.4706 219.366C65.9154 215.808 64.8841 212.205 63.4338 208.982C63.1953 208.453 62.944 207.938 62.6797 207.422C71.4071 207.809 83.0027 209.388 83.0027 209.388C83.0027 209.388 86.5736 218.631 74.849 224.593L64.42 222.769Z" fill="#C34300"/>
<path d="M56.6665 218.654C59.5219 218.5 61.1462 220.176 62.2613 222.386L56.009 221.291L51.0781 222.232C52.3672 220.324 54.5717 218.764 56.6665 218.654Z" fill="#C34300"/>
<path d="M24.0288 229.24C24.0288 229.24 20.2646 228.286 19.8005 226.52C19.3364 224.754 23.1909 225.256 23.1909 225.256C23.1909 225.256 24.5509 223.535 27.7673 222.781" stroke="#6F3300" stroke-width="1.26525" stroke-miterlimit="10" stroke-linecap="round" stroke-linejoin="round"/>
<path d="M11.4648 234.563C11.4648 234.563 11.9676 236.31 20.2953 230.496" stroke="#6F3300" stroke-width="1.26525" stroke-miterlimit="10" stroke-linecap="round" stroke-linejoin="round"/>
<path d="M8.14453 230.273C8.14453 230.273 8.7762 232.31 18.4317 228.062" stroke="#6F3300" stroke-width="1.26525" stroke-miterlimit="10" stroke-linecap="round" stroke-linejoin="round"/>
<path d="M19.8915 221.863C19.8915 221.863 24.1262 222.372 23.5719 223.997C23.0176 225.621 18.5508 224.938 18.5508 224.938" stroke="#6F3300" stroke-width="1.26525" stroke-miterlimit="10" stroke-linecap="round" stroke-linejoin="round"/>
<path d="M22.2109 219.828C22.2109 219.828 25.5498 221.291 25.3242 222.374C25.0535 223.676 23.3067 223.051 23.3067 223.051" stroke="#6F3300" stroke-width="1.26525" stroke-miterlimit="10" stroke-linecap="round" stroke-linejoin="round"/>
<path d="M23.1211 218.534C23.1211 218.534 26.4213 217.464 28.7352 217.8L37.3659 213.797" stroke="#6F3300" stroke-width="1.26525" stroke-miterlimit="10" stroke-linecap="round" stroke-linejoin="round"/>
<path d="M28.1094 227.61L29.3276 226.386L36.0053 225.109" stroke="#6F3300" stroke-width="1.26525" stroke-miterlimit="10" stroke-linecap="round" stroke-linejoin="round"/>
<path d="M135.255 216.574L142.152 216.374C143.564 216.336 144.963 215.923 146.103 215.085C147.09 214.363 148.334 213.203 147.811 211.772C146.219 207.395 134.198 209.98 132.812 212.294L135.255 216.574Z" fill="#0084D1"/>
<path d="M126.556 224.775L137.237 216.234L139.061 215.983C140.208 215.841 141.027 214.79 140.872 213.643L140.724 212.496C140.569 211.303 139.435 210.491 138.255 210.723L135.438 211.516L122.973 215.628L126.556 224.775Z" fill="#ED6818"/>
<path d="M113.531 191.907L115.207 185.217C115.549 183.844 116.251 182.568 117.315 181.639C118.237 180.827 119.635 179.867 120.918 180.679C124.85 183.174 119.745 194.357 117.186 195.22L113.531 191.907Z" fill="#0084D1"/>
<path d="M103.598 201.414L114.284 190.037L115.071 187.73C115.451 186.64 116.656 186.067 117.746 186.46L118.835 186.853C119.97 187.259 120.517 188.542 120.034 189.651L118.506 192.815L113.608 204.553L103.598 201.414Z" fill="#ED6818"/>
<path d="M130.167 213.331C130.148 213.312 130.128 213.293 130.109 213.273L122.961 215.633L126.551 224.779L133.171 219.487C132.816 218.056 132.236 216.677 131.534 215.407C131.147 214.698 130.683 213.995 130.167 213.331Z" fill="#C34300"/>
<path d="M113.467 194.606C112.642 194.251 111.798 193.91 110.953 193.62C110.947 193.62 110.941 193.613 110.934 193.613L103.605 201.412L113.616 204.552L116.877 196.733C115.826 195.882 114.685 195.128 113.467 194.606Z" fill="#C34300"/>
<path d="M120.029 233.143L130.955 222.166C131.438 221.682 131.554 220.941 131.251 220.322L128.19 214.238C127.893 213.651 127.261 213.303 126.604 213.367L109.581 215.069L116.304 200.837C116.749 199.903 116.413 198.781 115.524 198.24L109.723 194.714C109.001 194.276 108.086 194.327 107.422 194.849L97.0508 202.971L120.029 233.143Z" fill="#FFA500"/>
<path d="M125.2 226.931C125.2 226.931 122.745 224.191 118.059 226.325" stroke="#673607" stroke-width="1.26525" stroke-miterlimit="10" stroke-linecap="round" stroke-linejoin="round"/>
<path d="M103.312 206.207C103.429 205.298 104.917 202.546 103.596 199.465" stroke="#673607" stroke-width="1.26525" stroke-miterlimit="10" stroke-linecap="round" stroke-linejoin="round"/>
<path d="M120.031 233.14C121.597 228.429 121.404 223.291 119.367 218.767C116.537 212.482 111.123 204.425 101.345 201.737C99.798 201.312 98.1479 201.802 97.0586 202.975L120.031 233.14Z" fill="#008FD3"/>
<path d="M102.233 257.331C102.233 257.331 95.6 254.489 84.3072 253.683C84.3072 253.683 89.5991 240.012 93.1055 237.285L83.1793 226.025C83.1793 226.025 81.4003 228.468 67.4648 223.943L68.0514 206.739C68.0514 206.739 81.0393 207.326 84.4684 208.022L89.7345 207.081L97.0567 202.969C97.0567 202.969 108.826 207.41 113.796 216.737C118.766 226.063 120.029 233.141 120.029 233.141L114.337 237.388L105.681 245.974L102.233 257.331Z" fill="#0097EF"/>
<path d="M93.1099 237.292L96.1651 236.783C96.6356 236.706 97.0739 236.512 97.4478 236.222L100.007 234.23C100.999 233.457 100.999 231.955 100.007 231.182L94.0316 226.541L91.6918 220.256C91.3051 219.212 90.1191 218.716 89.1007 219.167L85.6007 220.72C84.7821 221.081 84.1827 221.81 83.9764 222.68L83.1836 226.038L90.5896 229.229L93.1099 237.292Z" fill="#67C5FB"/>
<path d="M94.8566 227.881C96.294 231.123 94.8244 234.919 91.5823 236.357L79.5805 241.668L74.3789 229.917L86.3807 224.606C89.6228 223.169 93.4193 224.638 94.8566 227.881Z" fill="#C34300"/>
<path d="M89.9562 243.977C89.982 244.016 89.75 244.338 89.7242 244.377C89.4535 244.821 89.157 245.253 88.8476 245.672C87.8098 247.084 86.5981 248.367 85.2509 249.488C84.7095 249.939 84.2583 250.32 83.8007 250.842C83.5235 251.151 83.2528 251.46 82.9692 251.77C81.8541 252.994 80.6874 254.187 79.4048 255.244C77.6064 256.72 75.5503 257.919 73.2492 258.377C68.1314 259.395 62.6526 256.282 60.3902 251.583C59.5458 249.823 59.0173 247.657 59.5716 245.73C59.6941 245.292 59.7778 244.847 59.8101 244.39C59.881 243.468 59.7907 242.546 59.6747 241.637C59.5523 240.683 59.404 239.729 59.3653 238.769C59.288 236.893 59.6618 235.005 60.4289 233.297C60.764 232.549 61.1701 231.833 61.6471 231.17C62.1563 230.461 62.7106 229.752 63.3229 229.139C69.1433 223.306 72.4113 224.718 81.6414 229.313C81.6543 229.3 89.9433 243.951 89.9562 243.977Z" fill="#462005"/>
<path d="M63.5156 231.599L80.4031 225.933C81.963 225.398 83.6002 225.231 85.1987 225.398C86.8036 225.572 88.3699 226.082 89.7751 226.932C90.8837 227.603 91.8441 228.454 92.6112 229.446C93.7585 230.922 94.4997 232.701 94.7124 234.603C95.1185 238.09 93.5651 241.493 90.7161 243.485C90.4777 243.665 90.2134 243.826 89.9491 243.981L85.2567 246.514L75.3304 251.877L63.5156 231.599Z" fill="#ED6818"/>
<path d="M85.0911 243.034C87.0957 241.816 89.7062 242.447 90.9244 244.452C92.1426 246.457 91.511 249.067 89.5064 250.285C87.5018 251.504 84.8913 250.872 83.6731 248.867C82.4549 246.863 83.093 244.259 85.0911 243.034Z" fill="#ED6818"/>
<path d="M72.7801 221.733C74.7847 220.515 77.3952 221.147 78.6134 223.151C79.8316 225.156 79.2 227.766 77.1954 228.984C75.1908 230.203 72.5803 229.571 71.3621 227.566C70.1439 225.568 70.7755 222.958 72.7801 221.733Z" fill="#ED6818"/>
<path d="M76.8184 234.46C77.6177 234.022 78.4169 233.932 78.5974 234.26C78.7779 234.589 78.2751 235.214 77.4758 235.653C76.6766 236.091 75.8773 236.181 75.6969 235.853C75.5164 235.524 76.0191 234.905 76.8184 234.46Z" fill="#673606"/>
<path d="M78.9124 239.466C78.777 239.531 78.8222 239.737 78.9769 239.724C80.2144 239.64 82.7218 239.511 83.998 239.724C84.8488 239.866 84.4427 237.732 84.3074 237.12C84.288 237.036 84.1978 236.991 84.1205 237.03L78.9124 239.466Z" fill="#C34300"/>
<path d="M87.2184 245.358C87.9597 244.662 87.9919 243.495 87.2958 242.754C86.5997 242.013 85.433 241.981 84.6918 242.677C83.9505 243.373 83.9183 244.54 84.6144 245.281C85.317 246.022 86.4772 246.054 87.2184 245.358Z" fill="#C34300"/>
<path d="M79.2028 233.018C79.9441 232.322 79.9763 231.156 79.2802 230.414C78.584 229.673 77.4174 229.641 76.6761 230.337C75.9349 231.033 75.9027 232.2 76.5988 232.941C77.3014 233.682 78.4616 233.721 79.2028 233.018Z" fill="#C34300"/>
<path d="M82.2973 242.757C83.0965 242.319 83.8958 242.229 84.0763 242.557C84.2567 242.886 83.754 243.511 82.9547 243.95C82.1555 244.388 81.3562 244.478 81.1757 244.149C80.9888 243.821 81.4916 243.195 82.2973 242.757Z" fill="#673606"/>
<path d="M87.5675 234.968C87.5675 234.968 87.1614 233.834 86.1172 233.641" stroke="#673607" stroke-width="1.26525" stroke-miterlimit="10" stroke-linecap="round" stroke-linejoin="round"/>
<path d="M101.734 249.907L114.329 237.383" stroke="#673607" stroke-width="1.26525" stroke-miterlimit="10" stroke-linecap="round" stroke-linejoin="round"/>
<path d="M80.2695 208.822L89.7382 207.088L96.3449 204.148" stroke="#673607" stroke-width="1.26525" stroke-miterlimit="10" stroke-linecap="round" stroke-linejoin="round"/>
<path d="M73.6432 227.428C73.6432 227.428 71.4517 225.494 73.1791 222.742" stroke="#673607" stroke-width="1.26525" stroke-miterlimit="10" stroke-linecap="round" stroke-linejoin="round"/>
<path d="M72.5273 225.155C72.5273 225.155 73.8745 223.93 76.2722 224.935" stroke="#673607" stroke-width="1.26525" stroke-miterlimit="10" stroke-linecap="round" stroke-linejoin="round"/>
<path d="M88.4939 249.146C88.4939 249.146 86.6182 249.146 85.5547 247.129" stroke="#673607" stroke-width="1.26525" stroke-miterlimit="10" stroke-linecap="round" stroke-linejoin="round"/>
<path d="M86.6406 248.433C86.6406 248.433 88.4905 246.654 88.3745 245.559" stroke="#673607" stroke-width="1.26525" stroke-miterlimit="10" stroke-linecap="round" stroke-linejoin="round"/>
<path d="M102.998 257.994L103.946 254.604C104.016 254.346 103.881 254.069 103.63 253.979C101.606 253.25 93.0138 250.434 84.338 251.98C84.1511 252.013 84.0028 252.142 83.9384 252.322L83.3003 254.088C83.1842 254.417 83.4098 254.759 83.7579 254.778C86.2975 254.913 95.3278 255.584 102.315 258.329C102.598 258.445 102.914 258.291 102.998 257.994Z" fill="#67C5FB"/>
<path d="M69.2035 225.081C70.2799 222.645 73.2642 214.614 70.2864 206.073C70.1574 205.712 69.8287 205.461 69.442 205.429L67.0378 205.222C66.3674 205.164 65.8324 205.79 66.0065 206.441C66.8508 209.612 68.5718 217.753 65.9807 223.928C65.7486 224.476 66.0516 225.101 66.6317 225.249L68.0562 225.623C68.5267 225.745 69.0101 225.52 69.2035 225.081Z" fill="#67C5FB"/>
<path d="M124.749 213.551L118.336 214.195" stroke="#673607" stroke-width="1.26525" stroke-miterlimit="10" stroke-linecap="round" stroke-linejoin="round"/>
<path d="M82.8316 247.839C82.3676 248.09 80.6853 239.524 67.9229 237.152C67.9229 237.152 71.4164 231.151 69.4441 227.555L62.457 230.139L63.9395 243.578L74.3685 254.414L82.8316 247.839Z" fill="#462005"/>
<path d="M86.5304 237.923C86.5304 237.923 85.8794 235.422 83.7266 234.539" stroke="#673607" stroke-width="1.26525" stroke-miterlimit="10" stroke-linecap="round" stroke-linejoin="round"/>
<path d="M209.128 87.9136C209.128 89.3703 207.948 90.5499 206.492 90.5499C205.035 90.5499 203.855 89.3703 203.855 87.9136C203.855 86.4569 205.035 85.2773 206.492 85.2773C207.948 85.2773 209.128 86.4569 209.128 87.9136Z" fill="#00BC74"/>
<path d="M26.7999 100.011C26.7999 101.468 25.6203 102.648 24.1636 102.648C22.7069 102.648 21.5273 101.468 21.5273 100.011C21.5273 98.5545 22.7069 97.375 24.1636 97.375C25.6203 97.375 26.7999 98.5545 26.7999 100.011Z" fill="#0097EF"/>
<path d="M290.343 200.972C290.343 202.429 289.163 203.608 287.707 203.608C286.25 203.608 285.07 202.429 285.07 200.972C285.07 199.515 286.25 198.336 287.707 198.336C289.163 198.336 290.343 199.515 290.343 200.972Z" fill="#FFA500"/>
<path d="M122.175 106.503C122.175 107.96 120.995 109.14 119.539 109.14C118.082 109.14 116.902 107.96 116.902 106.503C116.902 105.047 118.082 103.867 119.539 103.867C120.995 103.867 122.175 105.047 122.175 106.503Z" fill="#FFA500"/>
<path d="M131.956 277.449C131.956 278.905 130.777 280.085 129.32 280.085C127.863 280.085 126.684 278.905 126.684 277.449C126.684 275.992 127.863 274.812 129.32 274.812C130.777 274.812 131.956 275.992 131.956 277.449Z" fill="#0097EF"/>
<path d="M162.398 236.507C162.398 237.964 161.218 239.144 159.761 239.144C158.305 239.144 157.125 237.964 157.125 236.507C157.125 235.051 158.305 233.871 159.761 233.871C161.218 233.878 162.398 235.057 162.398 236.507Z" fill="#00BC74"/>
<path d="M247.632 185.445C247.632 186.902 246.452 188.081 244.996 188.081C243.539 188.081 242.359 186.902 242.359 185.445C242.359 183.988 243.539 182.809 244.996 182.809C246.452 182.809 247.632 183.988 247.632 185.445Z" fill="#00BC74"/>
<path d="M62.4678 181.156C62.4678 182.612 61.2883 183.792 59.8316 183.792C58.3749 183.792 57.1953 182.612 57.1953 181.156C57.1953 179.699 58.3749 178.52 59.8316 178.52C61.2883 178.52 62.4678 179.706 62.4678 181.156Z" fill="#FFA500"/>
<path d="M20.2051 273.77C23.0281 273.77 25.3165 271.481 25.3165 268.658C25.3165 265.835 23.0281 263.547 20.2051 263.547C17.3822 263.547 15.0938 265.835 15.0938 268.658C15.0938 271.481 17.3822 273.77 20.2051 273.77Z" fill="#00BC74"/>
<path d="M300.439 116.598C303.262 116.598 305.551 114.309 305.551 111.486C305.551 108.663 303.262 106.375 300.439 106.375C297.617 106.375 295.328 108.663 295.328 111.486C295.328 114.309 297.617 116.598 300.439 116.598Z" fill="#FFA500"/>
<path d="M252.506 35.086C255.329 35.086 257.617 32.7976 257.617 29.9747C257.617 27.1517 255.329 24.8633 252.506 24.8633C249.683 24.8633 247.395 27.1517 247.395 29.9747C247.395 32.7976 249.683 35.086 252.506 35.086Z" fill="#0097EF"/>
<path d="M53.5567 28.4532C56.3796 28.4532 58.6681 26.1648 58.6681 23.3418C58.6681 20.5189 56.3796 18.2305 53.5567 18.2305C50.7338 18.2305 48.4453 20.5189 48.4453 23.3418C48.4453 26.1648 50.7338 28.4532 53.5567 28.4532Z" fill="#FFA500"/>
<path d="M273.389 282.77C276.212 282.77 278.5 280.481 278.5 277.658C278.5 274.835 276.212 272.547 273.389 272.547C270.566 272.547 268.277 274.835 268.277 277.658C268.277 280.481 270.566 282.77 273.389 282.77Z" fill="#00BC74"/>
<path d="M178.148 19.0113C178.148 20.468 176.968 21.6475 175.511 21.6475C174.055 21.6475 172.875 20.468 172.875 19.0113C172.875 17.5545 174.055 16.375 175.511 16.375C176.968 16.375 178.148 17.5545 178.148 19.0113Z" fill="#0097EF"/>
</svg>
