<svg width="653" height="653" viewBox="0 0 653 653" fill="none" xmlns="http://www.w3.org/2000/svg">
<g opacity="0.35">
<g opacity="0.35">
<path opacity="0.35" d="M314.708 512.812C292.077 512.812 273.73 523.089 273.73 526.254V543.396H355.687V526.254C355.687 523.089 337.339 512.812 314.708 512.812Z" fill="#162872"/>
</g>
</g>
<g opacity="0.3">
<g opacity="0.3">
<path opacity="0.3" d="M332.237 570.09C451.569 570.09 548.307 561.831 548.307 551.643C548.307 541.454 451.569 533.195 332.237 533.195C212.906 533.195 116.168 541.454 116.168 551.643C116.168 561.831 212.906 570.09 332.237 570.09Z" fill="#000072"/>
</g>
</g>
<path d="M216.751 467.348C216.692 467.643 216.633 467.94 216.574 468.236C216.577 468.232 216.582 468.228 216.586 468.224L216.751 467.348Z" fill="#F6A428"/>
<path d="M215.941 469.354L216.34 467.268L217.149 467.423L216.96 468.436L215.941 469.354Z" fill="#000072"/>
<path d="M452.473 475.265C443.138 420.474 415.128 348.249 334.11 320.708V320.547C334.032 320.573 333.956 320.601 333.878 320.627C333.8 320.601 333.725 320.573 333.646 320.547V320.708C256.478 346.941 227.4 413.712 216.745 467.345C216.743 467.354 216.58 468.229 216.346 469.788C214.526 481.955 208.486 535.665 242.403 542.742C244.662 543.213 246.97 543.393 249.277 543.393H333.646H334.112H418.928C420.902 543.393 422.877 543.267 424.821 542.916C455.891 537.299 454.459 493.496 452.473 475.265Z" fill="#F6A428"/>
<path d="M418.925 543.806H249.274C246.719 543.806 244.443 543.591 242.314 543.147C207.828 535.951 214.289 480.727 215.935 469.728C216.175 468.122 216.338 467.263 216.338 467.258C226.735 414.925 255.462 346.992 333.23 320.415V319.973L333.875 320.193L334.52 319.973V320.415C415.237 347.998 443.437 419.793 452.876 475.197L452.879 475.222C454.905 493.809 456.232 537.657 424.888 543.323C423.091 543.648 421.138 543.806 418.925 543.806ZM333.876 321.065L333.777 321.099C256.166 347.482 227.516 415.234 217.148 467.427C217.139 467.466 216.98 468.331 216.753 469.851C215.127 480.72 208.724 535.294 242.484 542.34C244.557 542.773 246.778 542.984 249.275 542.984H418.926C421.089 542.984 422.995 542.83 424.746 542.513C455.398 536.971 454.064 493.69 452.065 475.325C442.65 420.078 414.522 348.481 333.978 321.101L333.876 321.065Z" fill="#000072"/>
<path d="M452.473 475.265C443.138 420.474 415.128 348.249 334.11 320.708V320.547C334.032 320.573 333.956 320.601 333.878 320.627C333.8 320.601 333.725 320.573 333.646 320.547V320.708C256.478 346.941 227.4 413.712 216.745 467.345C216.743 467.354 216.58 468.229 216.346 469.788C214.526 481.955 208.486 535.665 242.403 542.742C244.662 543.213 246.97 543.393 249.277 543.393H333.646H334.112H418.928C420.902 543.393 422.877 543.267 424.821 542.916C455.891 537.299 454.459 493.496 452.473 475.265Z" fill="#F6A428"/>
<path d="M418.925 543.806H249.274C246.719 543.806 244.443 543.591 242.314 543.147C207.828 535.951 214.289 480.727 215.935 469.728C216.175 468.122 216.338 467.263 216.338 467.258C226.735 414.925 255.462 346.992 333.23 320.415V319.973L333.875 320.193L334.52 319.973V320.415C415.237 347.998 443.437 419.793 452.876 475.197L452.879 475.222C454.905 493.809 456.232 537.657 424.888 543.323C423.091 543.648 421.138 543.806 418.925 543.806ZM333.876 321.065L333.777 321.099C256.166 347.482 227.516 415.234 217.148 467.427C217.139 467.466 216.98 468.331 216.753 469.851C215.127 480.72 208.724 535.294 242.484 542.34C244.557 542.773 246.778 542.984 249.275 542.984H418.926C421.089 542.984 422.995 542.83 424.746 542.513C455.398 536.971 454.064 493.69 452.065 475.325C442.65 420.078 414.522 348.481 333.978 321.101L333.876 321.065Z" fill="#000072"/>
<path d="M421.067 547.105H247.062C246.967 547.105 246.874 547.102 246.779 547.094C236.658 546.323 228.495 542.131 222.519 534.638C207.188 515.41 211.113 479.721 212.68 469.24C212.916 467.66 213.093 466.69 213.122 466.556C223.647 413.58 252.749 344.767 331.5 317.522C332.2 317.024 333.044 316.792 333.883 316.843C334.722 316.794 335.566 317.024 336.267 317.522C418.009 345.794 446.573 418.505 456.136 474.642C456.149 474.715 456.159 474.789 456.167 474.864C457.86 490.405 458.681 518.909 445.154 535.196C439.22 542.34 431.211 546.343 421.347 547.095C421.256 547.102 421.161 547.105 421.067 547.105ZM247.207 539.682H420.923C428.749 539.055 434.809 536.037 439.447 530.452C451.627 515.787 450.062 487.419 448.803 475.778C439.561 421.651 412.103 351.638 333.886 324.551C258.489 350.66 230.549 416.944 220.393 468.068C220.382 468.125 220.233 468.941 220.024 470.339C218.988 477.264 214.518 512.694 228.326 530.01C232.999 535.875 239.178 539.041 247.207 539.682Z" fill="#000072"/>
<path d="M216.749 467.759H216.246L216.344 467.266L217.162 467.344V467.757L216.749 467.759Z" fill="#000072"/>
<path d="M247.761 449.807C247.761 449.807 199.382 442.069 192.811 479.63C186.239 517.19 211.511 543.395 238.461 543.395" fill="#F6A428"/>
<g opacity="0.5">
<g opacity="0.5">
<path opacity="0.5" d="M201.672 478.043C204.111 464.108 211.805 455.87 220.911 451.062C208.556 454.13 195.942 461.741 192.811 479.63C186.945 513.153 206.449 537.613 229.87 542.487C210.246 532.332 196.321 508.626 201.672 478.043Z" fill="white"/>
</g>
</g>
<path d="M238.464 547.107C224.354 547.107 210.773 540.575 201.202 529.184C190.086 515.954 185.809 498.129 189.159 478.991C192.837 457.971 213.734 449.31 220.052 447.157C221.992 446.494 224.101 447.533 224.762 449.472C225.423 451.411 224.387 453.521 222.447 454.182C211.439 457.935 198.835 466.758 196.471 480.269C193.506 497.211 197.205 512.886 206.886 524.409C215.042 534.117 226.553 539.684 238.465 539.684C240.516 539.684 242.176 541.346 242.176 543.395C242.174 545.445 240.514 547.107 238.464 547.107Z" fill="#000072"/>
<path d="M238.459 552.648C257.939 552.648 273.731 542.002 273.731 528.869C273.731 515.736 257.939 505.09 238.459 505.09C218.979 505.09 203.188 515.736 203.188 528.869C203.188 542.002 218.979 552.648 238.459 552.648Z" fill="#FAFBFB"/>
<g opacity="0.3">
<g opacity="0.3">
<path opacity="0.3" d="M260.398 510.256C261.327 512.386 261.833 514.637 261.833 516.969C261.833 530.102 246.042 540.748 226.561 540.748C218.266 540.748 210.647 538.813 204.625 535.582C208.923 545.444 222.44 552.649 238.462 552.649C257.942 552.649 273.734 542.003 273.734 528.87C273.734 521.329 268.521 514.613 260.398 510.256Z" fill="#000072"/>
</g>
</g>
<path d="M252.064 506.926C252.844 506.958 253.621 507.037 254.412 507.099C255.192 507.19 255.961 507.345 256.748 507.469C258.305 507.767 259.849 508.189 261.371 508.728C264.399 509.825 267.379 511.361 270 513.56C272.627 515.736 274.944 518.561 276.434 521.987C276.777 522.851 277.097 523.741 277.35 524.651C277.557 525.575 277.818 526.501 277.872 527.459C278.129 529.358 278.058 531.314 277.709 533.209C277.032 537.024 275.239 540.498 272.986 543.363C270.719 546.24 267.997 548.589 265.072 550.469C259.216 554.258 252.631 556.333 246.009 557.228C242.687 557.625 239.352 557.785 236.028 557.584C232.706 557.372 229.392 556.915 226.146 556.087C222.903 555.266 219.726 554.115 216.683 552.619C213.659 551.087 210.765 549.209 208.181 546.865C205.592 544.545 203.319 541.709 201.744 538.415C200.16 535.14 199.391 531.307 199.896 527.662C200.361 524.003 202.016 520.65 204.277 518.121C206.538 515.573 209.335 513.737 212.34 512.664C212.44 512.628 212.549 512.68 212.584 512.78C212.605 512.842 212.592 512.909 212.556 512.959C210.683 515.505 209.079 517.999 208.014 520.552C206.947 523.101 206.442 525.649 206.55 528.075C206.643 530.507 207.312 532.814 208.532 534.925C209.758 537.029 211.495 538.926 213.568 540.5C215.625 542.091 217.986 543.381 220.472 544.406C222.961 545.436 225.582 546.223 228.27 546.729C230.951 547.27 233.695 547.555 236.448 547.614C239.2 547.693 241.96 547.539 244.667 547.164C250.071 546.422 255.355 544.782 259.836 542.119C262.052 540.771 264.086 539.202 265.682 537.375C267.274 535.548 268.423 533.508 269.016 531.361C269.284 530.285 269.512 529.175 269.46 528.045C269.506 527.477 269.398 526.917 269.378 526.339C269.307 525.77 269.187 525.195 269.06 524.619C268.466 522.324 267.279 520.015 265.651 517.86C264.019 515.705 261.95 513.724 259.645 511.918C259.054 511.49 258.478 511.018 257.868 510.594C257.247 510.189 256.642 509.735 256.008 509.322L254.067 508.114C253.409 507.718 252.735 507.344 252.064 506.926Z" fill="#000072"/>
<path d="M266.384 543.396C236.401 499.506 247.765 458.635 247.765 458.635C247.765 458.635 265.848 529.004 318.632 542.488L266.384 543.396Z" fill="#F6A428"/>
<path d="M333.65 547.105H266.383C264.332 547.105 262.672 545.443 262.672 543.394C262.672 541.344 264.334 539.684 266.383 539.684H333.65C335.7 539.684 337.36 541.346 337.36 543.394C337.36 545.443 335.698 547.105 333.65 547.105Z" fill="#000072"/>
<path d="M334.241 516.499C377.847 516.499 413.197 464.544 413.197 400.455C413.197 336.365 377.847 284.41 334.241 284.41C290.635 284.41 255.285 336.365 255.285 400.455C255.285 464.544 290.635 516.499 334.241 516.499Z" fill="#FAFBFB"/>
<g opacity="0.3">
<g opacity="0.3">
<path opacity="0.3" d="M352.58 431.973C401.163 431.973 440.548 399.953 440.548 360.456C440.548 320.958 401.163 288.939 352.58 288.939C303.998 288.939 264.613 320.958 264.613 360.456C264.613 399.953 303.998 431.973 352.58 431.973Z" fill="#000072"/>
</g>
</g>
<path d="M421.086 449.807C421.086 449.807 468.44 442.069 474.872 479.63C481.306 517.19 456.568 543.395 430.19 543.395" fill="#F6A428"/>
<g opacity="0.5">
<g opacity="0.5">
<path opacity="0.5" d="M465.96 479.947C463.521 466.012 455.827 457.775 446.721 452.967C459.076 456.034 471.69 463.645 474.821 481.534C480.687 515.057 461.183 539.517 437.762 544.392C457.386 534.234 471.311 510.529 465.96 479.947Z" fill="white"/>
</g>
</g>
<path d="M430.191 547.106C428.141 547.106 426.48 545.444 426.48 543.395C426.48 541.345 428.142 539.684 430.191 539.684C441.614 539.684 452.718 534.284 460.659 524.869C470.413 513.303 474.163 497.46 471.216 480.258C467.985 461.4 452.501 455.252 445.994 453.484C444.015 452.946 442.848 450.907 443.385 448.929C443.922 446.95 445.966 445.783 447.94 446.32C464.355 450.78 475.79 462.999 478.533 479.004C481.855 498.398 477.522 516.387 466.333 529.654C456.979 540.744 443.806 547.106 430.191 547.106Z" fill="#000072"/>
<path d="M430.192 552.648C449.259 552.648 464.716 542.002 464.716 528.869C464.716 515.736 449.259 505.09 430.192 505.09C411.125 505.09 395.668 515.736 395.668 528.869C395.668 542.002 411.125 552.648 430.192 552.648Z" fill="#FAFBFB"/>
<path d="M417.594 510.496C414.941 511.377 412.391 512.479 410.047 513.841C407.706 515.192 405.551 516.802 403.822 518.668C402.075 520.513 400.748 522.596 400.005 524.759C399.845 525.304 399.69 525.849 399.581 526.396C399.519 526.95 399.38 527.495 399.391 528.052C399.276 529.157 399.406 530.269 399.64 531.353C400.124 533.524 401.238 535.62 402.803 537.5C404.382 539.373 406.367 541.054 408.597 542.457C413.072 545.284 418.436 546.959 423.902 547.771C429.389 548.552 435.089 548.409 440.499 547.245C445.892 546.094 451.142 543.993 455.239 540.677C457.295 539.043 458.999 537.089 460.179 534.949C461.351 532.799 461.962 530.487 462.022 528.073C462.099 525.663 461.59 523.149 460.538 520.611C459.49 518.067 457.918 515.565 456.095 512.954C456.033 512.868 456.052 512.749 456.139 512.686C456.189 512.651 456.256 512.642 456.312 512.66C459.365 513.669 462.195 515.496 464.473 518.054C466.75 520.593 468.401 523.978 468.835 527.653C469.308 531.318 468.481 535.145 466.848 538.382C465.224 541.64 462.92 544.421 460.315 546.68C457.713 548.964 454.813 550.774 451.795 552.242C448.766 553.687 445.614 554.82 442.387 555.562C435.932 557.087 429.292 557.399 422.725 556.611C419.44 556.209 416.178 555.484 413.002 554.412C409.823 553.347 406.721 551.943 403.798 550.121C400.885 548.293 398.115 546.058 395.829 543.227C393.549 540.416 391.722 536.998 390.937 533.207C390.553 531.32 390.383 529.366 390.576 527.443C390.597 526.473 390.827 525.531 390.992 524.584C391.206 523.65 391.492 522.733 391.802 521.837C393.144 518.278 395.318 515.228 397.827 512.742C402.936 507.812 409.222 504.942 415.583 503.35C417.571 502.852 419.587 504.062 420.085 506.05C420.558 507.944 419.486 509.861 417.667 510.471L417.594 510.496Z" fill="#000072"/>
<g opacity="0.3">
<g opacity="0.3">
<path opacity="0.3" d="M407.68 510.256C406.751 512.386 406.245 514.637 406.245 516.969C406.245 530.102 422.036 540.748 441.517 540.748C449.811 540.748 457.43 538.813 463.452 535.582C459.154 545.444 445.637 552.649 429.616 552.649C410.135 552.649 394.344 542.003 394.344 528.87C394.345 521.329 399.558 514.613 407.68 510.256Z" fill="#000072"/>
</g>
</g>
<path d="M480.038 286.299C480.038 286.299 521.704 217.978 505.151 196.372C488.595 174.766 433.662 204.001 433.662 204.001C408.711 181.943 384.158 176.905 384.158 176.905C384.158 176.905 360.549 168.494 327.778 174.433C327.778 174.433 295.939 120.967 270.585 130.87C245.231 140.774 245.472 220.796 245.472 220.796L245.47 220.795C233.638 233.071 221.954 248.317 210.845 267.195C201.662 282.799 199.155 301.531 204.085 318.952C212.598 349.034 240.558 388.227 319.111 409.836C397.494 432.051 441.715 413.015 464.581 391.698C477.824 379.351 485.384 362.03 485.615 343.926C485.894 322.021 483.799 302.929 480.04 286.299" fill="#F6A428"/>
<g opacity="0.5">
<g opacity="0.5">
<path opacity="0.5" d="M504.626 198.431C488.071 176.823 433.137 206.06 433.137 206.06C408.186 184.001 383.633 178.963 383.633 178.963C383.633 178.963 360.024 170.553 327.253 176.492C327.253 176.492 295.414 123.026 270.06 132.929C260.796 136.548 254.951 149.531 251.262 164.548C254.963 152.881 260.286 143.47 267.952 140.474C293.307 130.57 325.145 184.037 325.145 184.037C343.673 180.679 359.266 181.908 369.326 183.611C368.368 184.307 367.71 185.154 367.43 186.15C366.067 191.031 374.2 197.566 385.594 200.747C396.988 203.929 407.33 202.553 408.694 197.672C408.694 197.669 408.695 197.667 408.695 197.664C415.623 201.585 423.304 206.778 431.026 213.603C431.026 213.603 485.96 184.369 502.515 205.975C507.522 212.508 507.199 223.317 504.319 235.213C508.947 220.458 510.676 206.326 504.626 198.431Z" fill="white"/>
</g>
</g>
<path d="M308.42 179.45C308.42 179.45 291.04 151.023 278.23 156.029C265.419 161.032 265.457 202.813 265.457 202.813C280.181 191.454 294.77 184.09 308.42 179.45Z" fill="#E34989"/>
<path d="M447.609 218.321C447.609 218.321 477.202 203.011 485.567 213.93C493.932 224.848 472.254 260.562 472.254 260.562C465.542 243.218 456.879 229.362 447.609 218.321Z" fill="#E34989"/>
<path d="M208.277 273.031C208.132 273.036 207.991 273.031 207.844 273.038C206.431 276.512 205.175 279.911 204.042 283.251C203.771 284.227 203.518 285.206 203.293 286.191C203.727 284.535 204.212 282.893 204.774 281.27C205.747 278.459 206.924 275.709 208.277 273.031Z" fill="#FAFBFB"/>
<path d="M203.293 286.192C202.218 290.89 201.664 295.692 201.625 300.512C202.285 294.355 203.326 287.945 204.774 281.273C204.213 282.895 203.728 284.538 203.293 286.192Z" fill="#FAFBFB"/>
<path d="M480.222 287.169C479.763 287.943 479.51 288.359 479.51 288.359H479.512C481.565 297.444 483.118 307.269 484.063 317.88C463.44 308.266 442.449 319.757 428.237 324.744C412.176 330.381 410.036 306.442 394.676 288.108C379.315 269.773 359.121 265.166 359.121 265.166C359.121 265.166 339.463 258.645 316.825 266.368C294.187 274.091 279.955 293.458 269.138 280.316C259.694 268.841 247.893 248.523 225.852 245.617C220.583 252.784 215.39 260.638 210.317 269.256C209.589 270.495 208.917 271.758 208.274 273.033C206.92 275.712 205.745 278.463 204.769 281.274C203.321 287.946 202.281 294.357 201.619 300.513C201.569 306.694 202.364 312.902 204.076 318.952C212.59 349.034 240.55 388.227 319.102 409.837C397.485 432.052 441.706 413.015 464.573 391.698C468.651 387.896 472.185 383.619 475.138 378.996C478.483 373.757 481.059 368.068 482.827 362.109C482.831 362.099 482.834 362.089 482.836 362.08C482.955 361.676 483.084 361.275 483.195 360.87C484.706 355.391 485.532 349.7 485.606 343.926C485.882 322.4 483.861 303.595 480.222 287.169Z" fill="#FAFBFB"/>
<path d="M383.726 423.474C363.717 423.474 341.758 420.111 318.098 413.406C282.061 403.493 253.365 388.992 232.834 370.316C216.686 355.625 205.811 338.683 200.512 319.963C195.347 301.712 197.946 281.794 207.645 265.314C218.008 247.704 229.483 232.229 241.767 219.295C241.818 214.203 242.188 197.181 244.848 179.01C249.18 149.401 257.385 132.041 269.234 127.413C294.347 117.6 323.04 159.954 329.619 170.351C360.288 165.374 382.451 172.405 385.156 173.324C387.945 173.939 410.545 179.407 434.2 199.555C445.213 194.071 491.696 172.715 508.093 194.114C515.83 204.211 513.853 223.309 502.218 250.879C495.077 267.798 486.575 282.55 483.98 286.931C487.785 304.358 489.584 323.54 489.323 343.971C489.08 363.091 480.982 381.476 467.109 394.41C452.879 407.677 434.799 416.534 413.376 420.733C404.048 422.561 394.151 423.474 383.726 423.474ZM248.052 223.46C235.815 236.172 224.373 251.517 214.041 269.077C205.366 283.82 203.036 301.63 207.653 317.941C215.688 346.33 241.717 384.697 320.093 406.257C398.327 428.43 440.469 409.101 462.049 388.98C474.447 377.421 481.684 360.981 481.901 343.876C482.161 323.504 480.324 304.451 476.444 287.238C476.197 286.298 476.318 285.261 476.865 284.365C488.084 265.962 514.504 214.687 502.2 198.628C490.201 182.967 449.913 199.56 435.4 207.275C434.035 208.001 432.358 207.804 431.199 206.779C407.267 185.622 383.643 180.587 383.408 180.538C383.238 180.504 383.072 180.456 382.908 180.399C382.685 180.321 359.74 172.41 328.437 178.083C326.914 178.36 325.379 177.66 324.587 176.331C316.172 162.215 290.308 127.149 271.933 134.325C253.089 141.686 249.12 199.232 249.18 220.784C249.185 221.812 248.763 222.771 248.052 223.46Z" fill="#000072"/>
<path d="M347.274 210.555C348.867 204.852 342.097 197.978 332.152 195.201C322.208 192.423 312.855 194.795 311.263 200.498C309.67 206.201 316.44 213.076 326.385 215.853C336.329 218.63 345.682 216.258 347.274 210.555Z" fill="#FAFBFB"/>
<path d="M439.45 236.294C441.043 230.591 434.273 223.716 424.328 220.939C414.384 218.162 405.031 220.533 403.439 226.236C401.846 231.939 408.616 238.814 418.561 241.591C428.505 244.368 437.857 241.997 439.45 236.294Z" fill="#FAFBFB"/>
<path d="M355.996 286.133C356.001 286.137 356.006 286.14 356.012 286.145L356.055 285.994C356.048 285.994 356.042 285.994 356.035 285.996L355.996 286.133Z" fill="#E94653"/>
<path d="M355.57 286.016L355.61 285.879C355.605 285.875 355.6 285.872 355.593 285.867L355.551 286.018C355.557 286.018 355.564 286.016 355.57 286.016Z" fill="#E94653"/>
<path d="M369.11 311.477C362.396 329.649 349.285 341.546 339.828 338.053C330.371 334.558 328.149 316.994 334.864 298.822" fill="#FF6C6C"/>
<path d="M343.256 339.097C342.02 339.097 340.822 338.893 339.673 338.469C334.935 336.717 331.799 331.578 330.839 323.995C329.892 316.515 331.174 307.52 334.445 298.665C334.532 298.435 334.788 298.318 335.018 298.403C335.249 298.487 335.368 298.744 335.281 298.976C332.057 307.698 330.794 316.545 331.722 323.884C332.638 331.121 335.57 336.004 339.981 337.633C349.19 341.039 362.072 329.234 368.69 311.322C368.775 311.092 369.033 310.974 369.263 311.059C369.494 311.144 369.613 311.401 369.526 311.632C363.545 327.825 352.431 339.097 343.256 339.097Z" fill="#000072"/>
<path d="M367.462 315.536C364.878 321.353 361.639 326.37 358.146 330.227C352.13 336.885 345.358 340.099 339.829 338.055C334.298 336.011 331.24 329.153 331.013 320.169C330.865 314.976 331.671 309.072 333.488 302.982L367.462 315.536Z" fill="#ED2E7A"/>
<path d="M343.322 339.175C342.051 339.175 340.823 338.963 339.651 338.529C334.079 336.47 330.746 329.782 330.506 320.181C330.352 314.823 331.216 308.824 333.002 302.836L333.155 302.318L368.141 315.248L367.923 315.741C365.389 321.443 362.139 326.569 358.519 330.565C353.442 336.183 348.088 339.175 343.322 339.175ZM333.82 303.644C332.168 309.358 331.373 315.055 331.518 320.155C331.748 329.322 334.84 335.674 340.002 337.58C345.154 339.485 351.629 336.681 357.768 329.886C361.211 326.084 364.32 321.231 366.777 315.822L333.82 303.644Z" fill="#000072"/>
<path d="M342.892 325.372L348.46 305.986C348.922 304.378 350.601 303.45 352.209 303.912C353.817 304.374 354.746 306.052 354.284 307.66C354.243 307.8 354.186 307.952 354.129 308.081L345.752 326.429C345.401 327.196 344.495 327.534 343.728 327.184C343.028 326.864 342.685 326.087 342.892 325.372Z" fill="#000072"/>
<path d="M344.36 341.874C342.465 341.874 340.592 341.555 338.784 340.886C333.261 338.845 329.232 333.997 327.434 327.233C325.738 320.85 326.244 313.44 328.858 306.368C329.436 304.804 331.175 304.005 332.738 304.582C334.302 305.16 335.102 306.899 334.524 308.463C332.339 314.377 331.894 320.491 333.274 325.682C334.552 330.492 337.252 333.879 340.878 335.218C348.758 338.129 358.728 330.864 363.103 319.023C363.681 317.46 365.418 316.66 366.983 317.238C368.547 317.815 369.347 319.554 368.769 321.118C364.148 333.626 353.994 341.874 344.36 341.874Z" fill="#000072"/>
<g opacity="0.3">
<g opacity="0.3">
<path opacity="0.3" d="M385.049 315.159C380.488 324.515 369.671 333.892 358.506 328.44C348.768 323.684 348.323 315.047 348.323 315.047L348.122 314.973C348.122 314.973 342.207 321.085 331.676 318.525C320.562 315.824 317.462 301.539 320.08 291.467" fill="#000072"/>
</g>
</g>
<path d="M382.554 312.512C377.992 321.868 370.057 324.381 361.587 320.099C351.916 315.209 352.271 306.27 352.749 303.068L352.548 302.995C350.829 305.738 345.285 312.761 334.759 310.185C325.538 307.928 321.145 300.86 323.764 290.787" fill="white"/>
<path d="M369.349 322.562C366.796 322.562 364.102 321.868 361.387 320.495C352.647 316.078 351.847 308.51 352.157 304.36C349.694 307.713 344.166 312.942 334.652 310.615C330.016 309.481 326.509 307.114 324.511 303.769C322.421 300.269 322.013 295.742 323.332 290.673C323.394 290.435 323.638 290.289 323.876 290.353C324.114 290.415 324.256 290.658 324.196 290.897C322.939 295.729 323.314 300.021 325.278 303.31C327.151 306.446 330.466 308.673 334.866 309.749C344.978 312.222 350.337 305.682 352.172 302.755C352.285 302.575 352.505 302.5 352.704 302.574L352.905 302.647C353.103 302.721 353.223 302.921 353.192 303.13C352.683 306.547 352.5 315 361.792 319.697C365.834 321.741 369.801 322.205 373.264 321.041C376.896 319.818 379.97 316.801 382.158 312.313C382.266 312.093 382.532 312 382.754 312.108C382.974 312.215 383.067 312.481 382.959 312.703C380.666 317.41 377.41 320.585 373.548 321.885C372.204 322.338 370.799 322.562 369.349 322.562Z" fill="#000072"/>
<g opacity="0.3">
<g opacity="0.3">
<path opacity="0.3" d="M382.552 312.513C377.99 321.867 370.061 324.386 361.586 320.096C351.917 315.21 352.273 306.275 352.743 303.069L352.542 302.995C350.825 305.741 345.284 312.761 334.751 310.182C325.534 307.934 321.138 300.86 323.763 290.789L326.373 291.754C327.578 296.996 331.576 300.644 337.722 302.14C343.049 303.447 347.093 302.295 350.013 300.489L356.299 302.812C357.343 306.082 359.666 309.587 364.554 312.056C370.206 314.919 375.614 314.748 379.939 311.548L382.552 312.513Z" fill="#000072"/>
</g>
</g>
<path d="M369.343 325.142C366.392 325.142 363.308 324.355 360.223 322.796C353.606 319.451 350.975 314.43 350.025 310.126C346.505 312.779 341.24 314.882 334.037 313.12C328.715 311.819 324.657 309.042 322.298 305.092C319.848 300.988 319.342 295.778 320.837 290.027C321.257 288.413 322.905 287.443 324.522 287.864C326.136 288.284 327.106 289.934 326.685 291.549C325.606 295.698 325.883 299.31 327.485 301.995C328.996 304.525 331.758 306.344 335.472 307.252C343.646 309.25 348.075 304.439 349.984 301.391C350.743 300.18 352.246 299.665 353.59 300.162L353.791 300.235C355.133 300.73 355.944 302.099 355.733 303.515C355.203 307.072 355.435 313.607 362.947 317.404C366.361 319.13 369.641 319.546 372.435 318.604C375.398 317.607 377.958 315.044 379.836 311.189C380.567 309.689 382.374 309.065 383.874 309.797C385.375 310.528 385.998 312.337 385.267 313.835C382.663 319.175 378.892 322.804 374.362 324.329C372.754 324.873 371.071 325.142 369.343 325.142Z" fill="#000072"/>
<path d="M352.888 305.39C352.541 305.39 352.186 305.33 351.842 305.203C350.276 304.625 349.476 302.886 350.056 301.322L355.259 287.244C355.837 285.678 357.577 284.88 359.139 285.458C360.705 286.036 361.505 287.774 360.925 289.338L355.722 303.417C355.272 304.636 354.118 305.39 352.888 305.39Z" fill="#000072"/>
<path d="M377.109 292.281C374.939 298.15 363.644 302.924 353.297 299.1C342.95 295.277 337.473 284.305 339.641 278.436C341.811 272.567 350.38 275.173 360.727 278.996C371.073 282.819 379.277 286.413 377.109 292.281Z" fill="#000072"/>
<path d="M367.093 286.673C366.618 287.961 362.34 288.341 357.849 286.683C353.358 285.022 350.356 281.952 350.831 280.664C351.306 279.376 354.987 280.613 359.478 282.273C363.969 283.932 367.569 285.385 367.093 286.673Z" fill="white"/>
<path d="M363.631 288.19C361.783 288.19 359.697 287.794 357.712 287.061C353.338 285.445 349.81 282.266 350.455 280.522C351.066 278.874 354.481 279.994 359.622 281.892C362.077 282.8 363.989 283.548 365.339 284.253C366.449 284.832 367.877 285.727 367.476 286.813C367.174 287.63 365.904 288.132 363.99 288.186C363.873 288.189 363.752 288.19 363.631 288.19ZM351.952 280.514C351.554 280.514 351.288 280.599 351.213 280.802C350.88 281.703 353.513 284.646 357.991 286.3C360.012 287.048 362.133 287.426 363.967 287.376C365.66 287.327 366.579 286.902 366.717 286.53C366.777 286.367 366.726 285.889 364.963 284.968C363.651 284.282 361.767 283.544 359.339 282.648C357.325 281.905 353.562 280.514 351.952 280.514Z" fill="#000072"/>
<path d="M393.31 268.495C393.847 267.514 394.394 266.696 395.058 265.911C395.709 265.127 396.421 264.397 397.192 263.725C398.731 262.378 400.491 261.238 402.424 260.354C404.365 259.49 406.49 258.909 408.689 258.653C409.243 258.615 409.8 258.577 410.356 258.566C410.913 258.532 411.471 258.56 412.031 258.607C412.591 258.641 413.149 258.698 413.704 258.764L415.352 259.098L416.171 259.276C416.439 259.345 416.677 259.438 416.93 259.519L418.427 260.026C418.928 260.174 419.415 260.412 419.9 260.639L421.351 261.323C423.232 262.404 425.065 263.624 426.567 265.271C428.087 266.871 429.31 268.758 430.095 270.777L430.38 271.535L430.601 272.315C430.758 272.826 430.847 273.361 430.935 273.885C431.011 274.418 431.071 274.942 431.074 275.484C431.079 275.751 431.079 276.019 431.064 276.293C431.06 276.574 431.027 276.814 430.993 277.17C430.914 277.989 430.188 278.59 429.368 278.512C428.955 278.473 428.596 278.267 428.355 277.968L427.948 277.465C427.75 277.221 427.553 276.817 427.313 276.499C427.096 276.164 426.846 275.836 426.614 275.52C426.123 274.889 425.63 274.295 425.085 273.758C424.022 272.671 422.846 271.793 421.634 271.032C421.314 270.857 421.005 270.678 420.706 270.488L419.727 270.021C419.418 269.848 419.08 269.709 418.734 269.582L417.725 269.176C417.004 268.967 416.336 268.694 415.595 268.518C414.872 268.353 414.101 268.092 413.443 268.02L412.43 267.83C412.087 267.803 411.742 267.796 411.401 267.752C410.72 267.628 410.022 267.739 409.324 267.666C407.924 267.75 406.477 267.827 404.982 268.11C403.49 268.386 401.941 268.741 400.346 269.197C398.762 269.638 397.079 270.219 395.414 270.715L395.164 270.789C394.32 271.04 393.43 270.56 393.179 269.714C393.053 269.293 393.114 268.854 393.31 268.495Z" fill="#000072"/>
<path d="M334.094 252.038C333.138 250.586 332.222 249.058 331.293 247.702C330.364 246.327 329.406 245.059 328.441 243.888C327.478 242.709 326.42 241.72 325.401 240.755C324.822 240.362 324.356 239.828 323.756 239.487C323.467 239.302 323.199 239.085 322.918 238.886L322.02 238.378C321.47 238.011 320.713 237.716 320.051 237.376C319.371 237.035 318.685 236.815 317.998 236.511L316.963 236.175C316.617 236.051 316.269 235.938 315.921 235.873L314.87 235.6C314.521 235.553 314.168 235.492 313.81 235.42C312.392 235.224 310.927 235.14 309.414 235.29C308.652 235.349 307.891 235.489 307.111 235.654C306.73 235.749 306.327 235.838 305.945 235.956C305.557 236.046 305.147 236.227 304.838 236.287L304.208 236.41C303.4 236.566 302.618 236.041 302.461 235.233C302.381 234.825 302.479 234.42 302.696 234.101C302.899 233.807 303.028 233.602 303.206 233.385C303.371 233.164 303.544 232.959 303.718 232.758C304.069 232.345 304.453 231.982 304.853 231.623C305.258 231.28 305.671 230.926 306.12 230.637L306.791 230.18L307.496 229.783C309.398 228.742 311.548 228.082 313.74 227.834C315.949 227.539 318.137 227.784 320.273 228.166L321.826 228.575C322.345 228.714 322.871 228.845 323.349 229.052L324.82 229.627C325.067 229.728 325.308 229.809 325.558 229.929L326.301 230.319L327.776 231.122C328.243 231.429 328.707 231.746 329.159 232.079C329.618 232.402 330.064 232.74 330.467 233.125C330.886 233.492 331.288 233.878 331.688 234.263C333.206 235.873 334.462 237.685 335.392 239.595C336.303 241.515 336.918 243.519 337.23 245.54C337.389 246.551 337.464 247.568 337.459 248.586C337.462 249.615 337.356 250.593 337.136 251.69C336.963 252.553 336.12 253.113 335.257 252.94C334.824 252.854 334.466 252.599 334.241 252.258L334.094 252.038Z" fill="#000072"/>
<g opacity="0.3">
<g opacity="0.3">
<g opacity="0.3">
<path opacity="0.3" d="M474.437 354.705C451.571 376.024 407.35 395.061 328.967 372.844C250.414 351.235 222.454 312.042 213.941 281.959C211.972 275 211.208 267.833 211.564 260.74C203.405 275.885 201.33 293.679 206.03 310.288C214.543 340.37 242.503 379.563 321.056 401.173C399.439 423.388 443.66 404.351 466.526 383.034C479.152 371.264 486.596 354.968 487.463 337.788C484.092 344.039 479.727 349.774 474.437 354.705Z" fill="#000072"/>
</g>
</g>
</g>
<path d="M351.267 314.15C351.005 315.366 350.578 316.535 350.116 317.694C349.635 318.848 349.112 319.991 348.521 321.116C347.942 322.242 347.333 323.362 346.664 324.464C345.996 325.566 345.297 326.66 344.483 327.721C344.334 326.39 344.303 325.092 344.305 323.804C344.302 322.515 344.362 321.243 344.45 319.978C344.527 318.711 344.672 317.462 344.858 316.225C345.062 314.994 345.306 313.771 345.71 312.596C346.229 311.086 347.877 310.282 349.385 310.803C350.784 311.288 351.574 312.738 351.267 314.15Z" fill="#162872"/>
<path d="M429.451 442.963C429.451 442.963 417.133 549.415 383.803 553.442C349.862 557.545 351.309 549.485 354.041 488.74C354.041 488.74 388.038 422.209 429.451 442.963Z" fill="#F6A428"/>
<path d="M413.674 515.254C406.578 535.208 396.874 551.895 384.061 553.443C353.33 557.157 351.61 550.901 353.587 504.602C360.571 500.477 368.71 498.1 377.408 498.1C392.021 498.1 405.069 504.781 413.674 515.254Z" fill="#FAFBFB"/>
<g opacity="0.3">
<g opacity="0.3">
<path opacity="0.3" d="M372.973 542.038C392.033 541.326 406.009 526.558 414.945 512.812C407.78 533.831 397.813 551.833 384.481 553.444C363.606 555.966 356.119 553.883 354.082 537.78C358.327 540.616 364.378 542.359 372.973 542.038Z" fill="#000072"/>
</g>
</g>
<path d="M408.759 438.953C408.759 438.953 396.303 491.629 354.084 485.848C311.864 480.068 348.381 412.286 408.759 438.953Z" fill="#FAFBFB"/>
<path d="M430.069 443.036C430.871 461.354 427.594 479.3 423.24 496.974C420.979 505.801 418.24 514.548 414.714 523.077C412.941 527.34 410.993 531.555 408.714 535.657C406.455 539.765 403.861 543.778 400.622 547.46C398.999 549.297 397.176 551.032 395.109 552.564C393.049 554.095 390.721 555.443 388.122 556.305C387.469 556.509 386.801 556.682 386.139 556.859C385.471 556.98 384.749 557.113 384.123 557.205C382.985 557.339 381.86 557.489 380.712 557.61C378.427 557.861 376.109 558.07 373.737 558.201C371.35 558.3 368.906 558.318 366.33 558.01C363.777 557.698 360.977 557.015 358.396 555.425C355.804 553.866 353.73 551.444 352.467 548.974C352.142 548.355 351.817 547.733 351.592 547.113C351.358 546.494 351.059 545.864 350.896 545.25L350.338 543.397L349.935 541.564C348.945 536.697 348.816 532.027 348.797 527.405C348.828 522.79 349.055 518.235 349.499 513.712C349.909 509.19 350.446 504.692 351.125 500.216C351.776 495.736 352.579 491.278 353.556 486.836C353.629 486.498 353.964 486.286 354.3 486.359C354.576 486.42 354.769 486.655 354.79 486.921C355.495 495.981 355.613 504.991 355.813 513.927C355.95 518.394 356.029 522.836 356.272 527.214C356.316 528.313 356.388 529.4 356.479 530.479C356.548 531.568 356.664 532.634 356.786 533.697C356.888 534.771 357.049 535.801 357.188 536.848C357.252 537.373 357.369 537.866 357.457 538.376C357.555 538.878 357.63 539.398 357.764 539.873C358.2 541.851 358.801 543.67 359.597 545.18C360.41 546.687 361.357 547.8 362.609 548.598C363.857 549.398 365.502 549.927 367.393 550.2C369.278 550.476 371.347 550.53 373.453 550.492C375.575 550.436 377.739 550.28 379.927 550.059C381.018 549.96 382.123 549.826 383.221 549.712L384.532 549.508L385.801 549.17C387.481 548.629 389.129 547.754 390.67 546.6C392.205 545.438 393.653 544.047 394.987 542.498C397.658 539.393 399.961 535.79 401.985 531.997C404.006 528.197 405.745 524.191 407.342 520.114C410.486 511.931 413.067 503.456 415.414 494.899C416.591 490.618 417.69 486.309 418.771 481.989L421.882 468.975C423.998 460.29 426.169 451.587 428.84 442.891L428.845 442.876C428.946 442.545 429.297 442.36 429.627 442.461C429.886 442.545 430.058 442.778 430.069 443.036Z" fill="#000072"/>
<path d="M246.112 488.338C247.675 493.152 249.054 497.857 250.662 502.461C251.439 504.767 252.273 507.043 253.104 509.307L254.399 512.683C254.848 513.802 255.331 514.905 255.793 516.014C257.701 520.426 259.82 524.731 262.132 528.923C264.413 533.135 266.914 537.215 269.442 541.299L269.464 541.334C270.543 543.077 270.004 545.366 268.26 546.445C266.605 547.47 264.45 547.025 263.314 545.487C260.302 541.388 257.692 536.991 255.391 532.443C253.121 527.88 251.189 523.146 249.65 518.296C249.291 517.075 248.912 515.862 248.572 514.637C248.257 513.405 247.905 512.187 247.624 510.948C247.057 508.473 246.604 505.975 246.282 503.463C245.685 498.437 245.492 493.363 246.112 488.338Z" fill="#000072"/>
<path d="M275.95 394.174C259.893 386.37 247.546 378.498 249.461 357.674C251.376 336.85 261.439 306.474 226.988 311.546C203.892 314.947 191.527 360.786 193.382 381.582C195.907 409.903 220.034 429.633 243.911 441.418" fill="#F6A428"/>
<path d="M249.964 354.686C249.964 354.686 223.382 368.329 196.992 349.361L208.838 329.371L219.73 315.144L241.837 313.727L247.768 317.362L251.521 324.792L249.964 354.686Z" fill="#FAFBFB"/>
<g opacity="0.5">
<g opacity="0.5">
<path opacity="0.5" d="M201.626 380.596C199.461 354.721 215.792 315.771 238.887 312.371C239.25 312.317 239.599 312.275 239.95 312.229C236.701 311.648 232.708 311.651 227.812 312.371C204.716 315.771 192.351 361.61 194.206 382.407C196.731 410.728 206.83 422.524 230.705 434.309C212.38 418.497 203.727 405.704 201.626 380.596Z" fill="white"/>
</g>
</g>
<path d="M256.73 422.533C264.349 412.577 268.93 404.062 276.139 394.081C267.599 390.623 260.968 386.594 256.397 381.096C255.677 387.392 255.297 393.859 255.297 400.456C255.297 408.006 255.793 415.385 256.73 422.533Z" fill="#FAFBFB"/>
<g opacity="0.3">
<g opacity="0.3">
<path opacity="0.3" d="M231.476 366.948C228.495 386.395 251.523 400.66 269.459 394.943C269.672 394.83 269.459 394.943 269.459 394.943C253.164 386.87 241.002 379.842 242.868 358.422C244.733 337 254.873 308.717 220.435 311.727C217.672 311.969 215.758 312.988 213.125 314.318C244.497 315.9 235.384 341.455 231.476 366.948Z" fill="#000072"/>
</g>
</g>
<path d="M226.758 435.108C226.025 435.108 225.283 434.891 224.637 434.441C209.915 424.166 191.9 406.711 189.688 381.912C187.844 361.221 199.818 311.796 226.452 307.875C237.413 306.26 245.149 307.87 250.107 312.793C258.221 320.85 256.16 335.56 254.344 348.537C253.875 351.883 253.433 355.042 253.16 358.014C251.447 376.634 262.199 383.363 277.576 390.835C279.419 391.731 280.188 393.951 279.291 395.794C278.395 397.638 276.175 398.405 274.332 397.51C258.061 389.602 243.633 380.58 245.77 357.333C246.059 354.187 246.514 350.941 246.994 347.507C248.569 336.254 250.355 323.499 244.877 318.06C241.736 314.942 235.901 313.985 227.533 315.217C207.902 318.109 195.25 360.722 197.082 381.252C199.039 403.203 215.457 418.983 228.885 428.355C230.566 429.528 230.978 431.842 229.804 433.522C229.082 434.555 227.928 435.108 226.758 435.108Z" fill="#000072"/>
<path d="M223.95 328.257C223.367 326.81 223.344 325.135 223.501 323.529C223.672 321.909 224.062 320.292 224.611 318.746C224.859 317.947 225.197 317.214 225.506 316.437C225.84 315.688 226.203 314.948 226.57 314.202C226.963 313.487 227.354 312.754 227.768 312.039L229.071 309.937C230.207 308.1 232.618 307.534 234.455 308.67C236.291 309.806 236.858 312.217 235.722 314.054C235.428 314.529 235.047 314.921 234.615 315.218L234.538 315.268L232.769 316.473C232.192 316.889 231.637 317.327 231.059 317.763C230.517 318.215 229.967 318.675 229.435 319.152C228.935 319.645 228.38 320.127 227.918 320.659C226.929 321.699 226.054 322.837 225.329 324.09C224.621 325.343 224.007 326.722 223.95 328.257Z" fill="#000072"/>
<path d="M239.149 334.49C238.984 333.12 238.984 331.708 239.082 330.291C239.182 328.871 239.393 327.436 239.734 326.007C240.068 324.576 240.516 323.138 241.115 321.735C241.686 320.312 242.444 318.952 243.276 317.594L243.33 317.505C244.468 315.653 246.894 315.071 248.747 316.209C250.6 317.347 251.181 319.773 250.043 321.626C249.71 322.169 249.25 322.612 248.742 322.925C247.756 323.529 246.74 324.187 245.823 324.994C244.878 325.777 243.999 326.677 243.175 327.658C242.344 328.636 241.587 329.707 240.906 330.848C240.23 331.991 239.616 333.199 239.149 334.49Z" fill="#000072"/>
<path d="M194.165 201.474C200.076 193.713 203.593 184.029 203.593 173.519C203.593 148.011 182.914 127.334 157.408 127.334C131.902 127.334 111.223 148.013 111.223 173.519C111.223 199.025 131.902 219.704 157.408 219.704C164.503 219.704 171.222 218.099 177.228 215.241L198 222.192L194.165 201.474Z" fill="#FF001F"/>
<g opacity="0.5">
<g opacity="0.5">
<g opacity="0.5">
<path opacity="0.5" d="M157.408 137.23C181.236 137.23 200.844 155.276 203.323 178.444C203.495 176.825 203.593 175.184 203.593 173.519C203.593 148.011 182.916 127.334 157.408 127.334C131.9 127.334 111.223 148.013 111.223 173.519C111.223 175.191 111.317 176.841 111.49 178.467C113.959 155.287 133.572 137.23 157.408 137.23Z" fill="white"/>
</g>
</g>
</g>
<path d="M197.998 225.494C197.647 225.494 197.295 225.438 196.952 225.324L177.417 218.787C171.101 221.587 164.377 223.006 157.406 223.006C130.121 223.006 107.922 200.807 107.922 173.521C107.922 146.236 130.121 124.037 157.406 124.037C184.692 124.037 206.891 146.236 206.891 173.521C206.891 183.945 203.707 193.858 197.669 202.284L201.242 221.597C201.454 222.746 201.043 223.922 200.161 224.687C199.554 225.215 198.782 225.494 197.998 225.494ZM177.226 211.946C177.579 211.946 177.933 212.003 178.273 212.115L193.736 217.29L190.92 202.076C190.75 201.16 190.975 200.216 191.54 199.477C197.267 191.959 200.294 182.983 200.294 173.521C200.294 149.873 181.055 130.634 157.406 130.634C133.758 130.634 114.519 149.873 114.519 173.521C114.519 197.17 133.758 216.409 157.406 216.409C163.842 216.409 170.034 215.015 175.809 212.266C176.257 212.053 176.74 211.946 177.226 211.946Z" fill="#000072"/>
<g opacity="0.3">
<g opacity="0.3">
<path opacity="0.3" d="M194.47 201.06C180.793 210.413 162.978 213.294 146.202 207.241C127.597 200.528 115.023 184.546 111.774 166.381C111.414 168.709 111.223 171.092 111.223 173.52C111.223 199.028 131.902 219.705 157.408 219.705C164.503 219.705 171.222 218.1 177.228 215.242L198 222.193L194.165 201.473C194.271 201.339 194.368 201.197 194.47 201.06Z" fill="#000072"/>
</g>
</g>
<path d="M174.068 366.438C173.688 370.88 173.552 375.085 173.676 379.246C173.794 383.398 174.192 387.467 174.927 391.474C175.638 395.485 176.703 399.425 178.035 403.36C179.375 407.299 181.039 411.181 182.727 415.337C179.117 412.668 176.218 409.152 173.911 405.26C171.652 401.342 170.032 396.995 169.245 392.497C168.428 388.004 168.406 383.375 169.164 378.911C169.552 376.681 170.119 374.487 170.917 372.381C171.732 370.287 172.698 368.235 174.068 366.438Z" fill="#000072"/>
<path d="M157.022 386.242C158.091 388.44 158.7 390.467 159.288 392.46C159.846 394.45 160.315 396.388 160.723 398.339C161.134 400.288 161.482 402.251 161.764 404.296C162.022 406.356 162.272 408.459 162.158 410.906C160.112 409.566 158.659 407.765 157.489 405.821C156.341 403.865 155.528 401.726 155.073 399.514C154.612 397.304 154.505 395.02 154.776 392.769C155.074 390.518 155.683 388.286 157.022 386.242Z" fill="#000072"/>
<path d="M368.207 534.225C367.492 535.583 367.338 537.086 367.327 538.523C367.332 539.971 367.524 541.393 367.866 542.787C368.001 543.478 368.243 544.173 368.432 544.847C368.657 545.526 368.906 546.199 369.15 546.862C369.434 547.526 369.701 548.182 369.993 548.831L370.928 550.757L370.961 550.822C371.904 552.765 371.095 555.104 369.152 556.049C367.209 556.993 364.868 556.183 363.925 554.241C363.68 553.738 363.554 553.188 363.533 552.664L363.45 550.192C363.445 549.366 363.473 548.535 363.487 547.719C363.54 546.89 363.593 546.068 363.677 545.25C363.796 544.423 363.866 543.618 364.049 542.802C364.343 541.187 364.808 539.591 365.466 538.102C366.129 536.631 366.981 535.189 368.207 534.225Z" fill="#000072"/>
<path d="M384.495 536.379C384.257 537.732 384.189 539.084 384.21 540.413C384.231 541.742 384.355 543.048 384.59 544.308C384.817 545.568 385.132 546.786 385.561 547.935C385.957 549.091 386.508 550.167 387.065 551.182C388.11 553.091 387.409 555.484 385.503 556.529C383.594 557.574 381.201 556.873 380.156 554.967C379.849 554.408 379.694 553.807 379.673 553.21L379.67 553.089C379.622 551.497 379.642 549.94 379.854 548.422C380.032 546.905 380.36 545.436 380.781 544.027C381.196 542.617 381.727 541.268 382.347 539.987C382.967 538.71 383.669 537.486 384.495 536.379Z" fill="#000072"/>
<path d="M224.317 530.051C223.429 531.301 223.076 532.771 222.872 534.194C222.684 535.629 222.686 537.066 222.839 538.492C222.882 539.196 223.029 539.916 223.125 540.61C223.257 541.313 223.414 542.014 223.569 542.701C223.763 543.398 223.938 544.082 224.14 544.764L224.811 546.799L224.834 546.869C225.512 548.919 224.397 551.131 222.346 551.809C220.296 552.486 218.084 551.371 217.406 549.321C217.232 548.79 217.179 548.229 217.228 547.705L217.475 545.244C217.581 544.425 217.718 543.604 217.841 542.799C218.002 541.983 218.165 541.176 218.356 540.378C218.585 539.573 218.763 538.785 219.05 538.001C219.556 536.44 220.231 534.92 221.08 533.531C221.937 532.16 222.973 530.844 224.317 530.051Z" fill="#000072"/>
<path d="M240.172 534.354C239.755 535.663 239.507 536.993 239.352 538.314C239.197 539.633 239.147 540.944 239.21 542.225C239.267 543.505 239.417 544.754 239.69 545.951C239.927 547.149 240.332 548.289 240.748 549.368C241.53 551.398 240.518 553.677 238.487 554.458C236.458 555.24 234.177 554.228 233.397 552.197C233.168 551.602 233.093 550.985 233.152 550.393L233.165 550.272C233.33 548.687 233.557 547.147 233.97 545.67C234.347 544.191 234.868 542.779 235.473 541.439C236.073 540.097 236.778 538.83 237.563 537.643C238.348 536.461 239.207 535.341 240.172 534.354Z" fill="#000072"/>
<g opacity="0.3">
<g opacity="0.3">
<path opacity="0.3" d="M259.279 514.84C250.897 505.994 247.004 495.422 247.004 495.422C243.825 508.296 265.066 541.429 265.066 541.429L267.273 541.282C266.599 542.595 266.382 543.394 266.382 543.394H351.806V525.021C325.241 522.784 304.773 521.697 291.39 524.547C279.703 527.035 267.498 523.516 259.279 514.84Z" fill="#000072"/>
</g>
</g>
<path d="M443.152 528.998C444.527 529.736 445.614 531.009 446.522 532.345C447.426 533.698 448.161 535.19 448.729 536.73C449.049 537.502 449.258 538.282 449.517 539.077C449.739 539.867 449.935 540.667 450.13 541.475C450.285 542.275 450.454 543.09 450.593 543.904L450.938 546.353C451.238 548.492 449.749 550.47 447.611 550.771C445.472 551.071 443.494 549.582 443.193 547.444C443.115 546.89 443.157 546.347 443.299 545.841L443.325 545.752L443.915 543.694C444.091 543.005 444.238 542.313 444.404 541.609C444.532 540.915 444.659 540.21 444.764 539.502C444.832 538.804 444.951 538.078 444.964 537.374C445.061 535.943 445.004 534.508 444.76 533.081C444.501 531.667 444.089 530.213 443.152 528.998Z" fill="#000072"/>
<path d="M427.48 533.932C428.484 534.878 429.387 535.964 430.218 537.117C431.051 538.271 431.807 539.508 432.458 540.826C433.116 542.14 433.694 543.531 434.13 544.993C434.601 546.453 434.889 547.983 435.117 549.56L435.132 549.661C435.444 551.814 433.95 553.811 431.798 554.122C429.645 554.434 427.648 552.94 427.337 550.789C427.245 550.159 427.315 549.524 427.505 548.957C427.877 547.862 428.236 546.706 428.424 545.5C428.649 544.293 428.749 543.039 428.755 541.758C428.768 540.475 428.666 539.167 428.458 537.855C428.249 536.544 427.949 535.223 427.48 533.932Z" fill="#000072"/>
<path d="M174.089 160.141C169.579 155.63 162.265 156.438 157.755 160.949L157.053 161.651L156.351 160.949C151.84 156.438 144.526 155.63 140.016 160.141C135.505 164.651 135.505 171.965 140.016 176.475L140.718 177.177L154.899 191.359C156.088 192.547 158.016 192.547 159.206 191.359L173.387 177.177L174.089 176.475C178.6 171.965 178.6 164.651 174.089 160.141Z" fill="#FAFBFB"/>
</svg>
