<svg width="17" height="17" viewBox="0 0 17 17" fill="none" xmlns="http://www.w3.org/2000/svg">
<path fill-rule="evenodd" clip-rule="evenodd" d="M11.6691 7.00606C11.6691 9.24203 9.76373 11.1882 7.24554 11.1882C4.72735 11.1882 2.82201 9.24203 2.82201 7.00606C2.82201 4.77009 4.72735 2.82396 7.24554 2.82396C9.76373 2.82396 11.6691 4.77009 11.6691 7.00606ZM10.7384 12.3028C9.72895 12.9214 8.5307 13.2797 7.24554 13.2797C3.64737 13.2797 0.730469 10.4709 0.730469 7.00606C0.730469 3.54123 3.64737 0.732422 7.24554 0.732422C10.8437 0.732422 13.7606 3.54123 13.7606 7.00606C13.7606 8.49187 13.2242 9.85705 12.3277 10.9318L16.4789 14.9453L14.9752 16.3991L10.7384 12.3028Z" fill="black"/>
</svg>
