<svg width="1440" height="393" viewBox="0 0 1440 393" fill="none" xmlns="http://www.w3.org/2000/svg">
<g filter="url(#filter0_f)">
<path d="M1383.64 244.011C1363.54 235.422 1352.91 247.426 1326.54 242.462C1297.22 242.462 1276.22 243.014 1245.06 240.113C1218.46 247.208 1153.07 240.113 1153.07 240.113C1109.49 231.163 1071.58 232.514 1022.1 232.212C995.404 232.049 961.314 214.274 934.615 214.274C927.688 214.274 882.702 204.22 904.02 201.273C890.163 202.366 905.046 197.841 885.735 197.841C867.829 197.841 840.938 196.086 824.772 199.155C809.251 202.101 793.01 206.092 776.673 208.054C759.62 210.103 741.83 214.605 724.099 215.042C713.681 215.299 706.941 218.849 698.931 221.493C678.182 228.342 656.818 231.213 630.138 232.841C590.544 235.258 551.819 232.192 513.806 239.77C502.602 242.003 491.17 243.988 479.968 246.221C473.663 247.478 462.985 248.043 457.876 250.043C439.615 257.194 422.391 264.504 401.947 270.709C358.222 283.98 306.789 275.315 257.37 279.788C224.793 282.736 195.064 290.093 162.85 292.689C127.162 295.565 95.922 306.464 61.0585 310.966C50.4896 312.331 45.8013 313.952 34.2124 313.952C20.131 313.952 6.11865 314.3 -7.7345 313.116C-24.7142 311.666 -46.0734 307.924 -61.1468 304.515C-70.3437 302.435 -76.4055 290.782 -82.6797 287.314C-93.9849 281.064 -102.04 274.913 -107.009 267.484C-112.204 259.716 -114 252.18 -114 244.07C-114 233.319 -113.137 221.367 -108.267 210.861C-96.1112 184.638 -57.6315 163.379 -10.8105 146.235C130.551 94.4764 328.47 112.708 495.629 94.033C526.122 90.6262 553.826 90.3298 585.395 90.3298C643.359 90.3298 700.023 90.1143 757.377 86.2683C789.719 84.0996 821.283 81.4804 853.855 80.1163C895.54 78.3706 939.626 78.9946 981.374 79.8177C1045.27 81.0774 1116.02 80.1055 1176.85 89.1353C1217.64 95.1915 1261.42 98.2076 1303.53 102.156C1344.01 105.952 1383.78 103.434 1424.61 103.231C1457.01 103.07 1505.45 102.411 1524.45 116.61C1539.19 127.633 1549.37 140.976 1552.69 153.761C1554.96 162.487 1558.47 173.212 1553.39 181.893C1548.35 190.505 1553.43 200.115 1550.45 208.95C1546.98 219.276 1542.47 229.07 1533.26 238.695C1542.5 198.685 1500.45 222.201 1474.52 224.311C1460.42 225.457 1400.58 233.488 1387.53 231.785C1366.25 229.007 1399.08 250.603 1383.64 244.011Z" fill="#F8FFE6" fill-opacity="0.46"/>
</g>
<defs>
<filter id="filter0_f" x="-193" y="0" width="1828" height="393" filterUnits="userSpaceOnUse" color-interpolation-filters="sRGB">
<feFlood flood-opacity="0" result="BackgroundImageFix"/>
<feBlend mode="normal" in="SourceGraphic" in2="BackgroundImageFix" result="shape"/>
<feGaussianBlur stdDeviation="39.5" result="effect1_foregroundBlur"/>
</filter>
</defs>
</svg>
