<svg width="594" height="371" viewBox="0 0 594 371" fill="none" xmlns="http://www.w3.org/2000/svg">
<g clip-path="url(#clip0)">
<path d="M492.013 244.946C492.013 132.151 400.889 40.707 288.489 40.707C176.089 40.707 84.9648 132.151 84.9648 244.946C84.9648 292.302 101.026 335.887 127.981 370.525H448.997C475.952 335.887 492.013 292.302 492.013 244.946Z" fill="#E6F5FA"/>
<path d="M567.101 288.159H514.516C512.595 288.159 511.043 286.601 511.043 284.673C511.043 282.745 512.595 281.188 514.516 281.188H567.101C569.022 281.188 570.574 282.745 570.574 284.673C570.584 286.601 569.022 288.159 567.101 288.159Z" fill="#E6F5FA"/>
<path d="M61.2068 251.51H3.47346C1.55217 251.51 0 249.953 0 248.025C0 246.097 1.55217 244.539 3.47346 244.539H61.2068C63.1281 244.539 64.6802 246.097 64.6802 248.025C64.6897 249.953 63.1281 251.51 61.2068 251.51Z" fill="#E6F5FA"/>
<path d="M578.356 330.863H572.848C571.4 330.863 570.227 329.686 570.227 328.232V323.037C570.227 321.584 571.4 320.406 572.848 320.406H578.356C579.805 320.406 580.978 321.584 580.978 323.037V328.232C580.978 329.686 579.805 330.863 578.356 330.863Z" fill="#90D3ED"/>
<path d="M46.5245 304.68H39.2274C37.3061 304.68 35.7539 303.122 35.7539 301.194V294.318C35.7539 292.39 37.3061 290.832 39.2274 290.832H46.5245C48.4458 290.832 49.998 292.39 49.998 294.318V301.194C49.998 303.122 48.4458 304.68 46.5245 304.68Z" fill="#90D3ED"/>
<path d="M393.92 16.1445H418.916C420.194 16.1445 421.235 17.1988 421.235 18.5V30.7995C421.235 32.1007 420.194 33.155 418.916 33.155H406.025L398.359 39.7464V33.5064L393.873 33.3829C392.614 33.3544 391.602 32.3097 391.602 31.0275V18.5C391.602 17.1988 392.643 16.1445 393.92 16.1445Z" stroke="white" stroke-width="1.2926" stroke-miterlimit="10" stroke-linecap="round" stroke-linejoin="round"/>
<path d="M559.471 130.05C559.471 134.305 556.083 137.753 551.9 137.753C547.716 137.753 544.328 134.305 544.328 130.05C544.328 125.795 547.716 122.348 551.9 122.348C556.083 122.348 559.471 125.795 559.471 130.05Z" stroke="white" stroke-width="1.2572" stroke-miterlimit="10"/>
<path d="M15.9557 194.273C15.9557 198.528 12.5674 201.976 8.38408 201.976C4.20078 201.976 0.8125 198.528 0.8125 194.273C0.8125 190.018 4.20078 186.57 8.38408 186.57C12.5674 186.57 15.9557 190.018 15.9557 194.273Z" stroke="white" stroke-width="1.2572" stroke-miterlimit="10"/>
<path d="M221.974 27.8663C222.258 28.2082 222.816 27.9993 222.816 27.5529L222.788 18.2926V3.3147C222.788 1.48164 221.311 0 219.485 0H179.28C177.453 0 175.977 1.48164 175.977 3.3147V19.5748C175.977 21.4079 177.453 22.8895 179.28 22.8895H217.724L221.974 27.8663Z" fill="#000072"/>
<path d="M191.811 11.5799C191.811 12.6912 190.922 13.6029 189.805 13.6029C188.698 13.6029 187.789 12.7102 187.789 11.5894C187.789 10.4782 188.679 9.56641 189.796 9.56641C190.903 9.56641 191.811 10.4592 191.811 11.5799Z" fill="white"/>
<path d="M200.425 11.5487C200.425 12.6599 199.535 13.5717 198.418 13.5717C197.311 13.5717 196.402 12.6789 196.402 11.5582C196.402 10.4469 197.292 9.53516 198.409 9.53516C199.526 9.53516 200.425 10.4374 200.425 11.5487Z" fill="white"/>
<path d="M209.046 11.5213C209.046 12.6326 208.156 13.5443 207.039 13.5443C205.932 13.5443 205.023 12.6516 205.023 11.5308C205.023 10.4196 205.913 9.50781 207.03 9.50781C208.147 9.50781 209.036 10.4101 209.046 11.5213Z" fill="white"/>
<path d="M534.213 66.1912H487.194C482.623 66.1912 478.922 62.4776 478.922 57.8902V14.0297C478.922 10.5535 481.733 7.74219 485.187 7.74219H534.204C537.668 7.74219 540.469 10.563 540.469 14.0297V59.9037C540.479 63.3703 537.677 66.1912 534.213 66.1912Z" fill="#000072"/>
<path d="M523.76 41.7439L520.107 38.0778C519.454 37.3559 518.602 36.9665 517.76 36.9665C516.908 36.9665 516.066 37.3559 515.413 38.0113L513.321 40.1103C513.188 40.0438 513.056 39.9773 512.933 39.9108C512.668 39.7779 512.479 39.7114 512.28 39.5879C510.321 38.3437 508.56 36.7101 506.866 34.6111C506.081 33.6328 505.494 32.7115 505.172 31.9232C505.693 31.4673 506.147 30.945 506.611 30.4796C506.809 30.2801 506.999 30.0902 507.197 29.8907C507.917 29.1689 508.305 28.3236 508.305 27.4688C508.305 26.614 507.917 25.7687 507.197 25.0469L505.371 23.2138C505.172 23.0144 504.983 22.8244 504.784 22.5585C504.396 22.1691 503.932 21.7037 503.544 21.3143C502.891 20.6589 502.039 20.2695 501.197 20.2695C500.345 20.2695 499.569 20.5925 498.85 21.3143L496.569 23.6032C495.717 24.458 495.196 25.5693 495.064 26.8135C494.931 28.7795 495.452 30.6126 495.916 31.7903C496.957 34.801 498.594 37.4889 501.008 40.3667C503.942 43.8334 507.406 46.5877 511.447 48.5538C512.952 49.2756 515.034 50.1209 517.315 50.3203C517.447 50.3203 517.58 50.3203 517.769 50.3203C519.331 50.3203 520.637 49.7315 521.687 48.6202C521.687 48.6202 521.687 48.6202 521.754 48.5538C522.076 48.1643 522.473 47.7654 522.927 47.376C523.192 47.1101 523.514 46.7872 523.779 46.5212C525.123 45.0776 525.123 43.1211 523.76 41.7439ZM522.255 45.1441C521.99 45.41 521.735 45.6664 521.47 45.9324C521.015 46.3218 520.618 46.7872 520.164 47.2431C519.511 47.8984 518.791 48.2213 517.816 48.2213C517.684 48.2213 517.618 48.2213 517.495 48.2213C515.536 48.0884 513.709 47.3001 512.403 46.6542C508.683 44.8211 505.418 42.2663 502.683 38.9895C500.468 36.3017 498.963 33.7563 497.922 31.0684C497.269 29.5013 497.014 28.2571 497.137 27.0129C497.203 26.2911 497.458 25.6357 498.055 25.1134L500.269 22.8909C500.468 22.6915 500.79 22.435 501.178 22.435C501.566 22.435 501.831 22.6345 502.096 22.8909C502.484 23.2803 502.882 23.6792 503.27 24.0686C503.468 24.2681 503.658 24.5245 503.923 24.724L505.749 26.557C505.948 26.7565 506.204 27.1459 506.204 27.4783C506.204 27.8677 505.939 28.2001 505.749 28.3996C505.551 28.599 505.361 28.789 505.163 28.9884C504.576 29.5773 504.055 30.0997 503.535 30.6221C503.535 30.6221 503.535 30.6221 503.468 30.6885C502.815 31.3439 502.948 31.9327 503.08 32.3221V32.3886C503.535 33.5663 504.254 34.6111 505.229 35.9218C507.055 38.2107 509.015 39.9773 511.163 41.3545C511.428 41.5539 511.75 41.6774 512.015 41.8104C512.28 41.9433 512.469 42.0098 512.668 42.1333L512.734 42.1998C513.387 42.5227 514.04 42.3992 514.561 41.8769L516.842 39.5879C517.04 39.3884 517.362 39.132 517.76 39.132C518.082 39.132 518.413 39.3979 518.612 39.5879L522.265 43.254C522.842 43.8334 522.842 44.4887 522.255 45.1441Z" fill="white"/>
<path d="M80.6319 111.51H27.9337C22.8134 111.51 18.668 107.35 18.668 102.211V53.0512C18.668 49.1572 21.8102 46.0039 25.6906 46.0039H80.6319C84.5123 46.0039 87.6545 49.1572 87.6545 53.0512V104.462C87.6545 108.356 84.5123 111.51 80.6319 111.51Z" fill="#000072"/>
<path d="M40.03 65.2092C32.8181 72.4465 32.8181 84.3281 40.03 91.5654C47.242 98.8027 59.082 98.8027 66.294 91.5654C73.5059 84.3281 73.5059 72.4465 66.294 65.2092C59.082 57.9719 47.242 57.9719 40.03 65.2092ZM66.2466 67.8876H60.3313C59.7351 66.026 58.9779 64.1549 58.0315 62.2934C61.3062 63.2907 64.155 65.2662 66.2466 67.8876ZM46.3428 77.2903C46.3428 74.8779 46.6268 72.475 47.223 70.0625H59.101C59.6972 72.475 59.9812 74.8779 59.9812 77.2903H46.3428ZM59.9054 79.4748C59.7445 81.8872 59.3092 84.2901 58.6277 86.7025H47.6868C47.0054 84.2901 46.5795 81.8872 46.4091 79.4748H59.9054ZM53.1573 61.5716C54.0469 61.5716 54.9271 61.6381 55.7789 61.7805C56.9147 63.8225 57.8043 65.855 58.4668 67.8971H47.8382C48.5007 65.855 49.3904 63.8225 50.5356 61.7805C51.3874 61.6381 52.2676 61.5716 53.1573 61.5716ZM48.2925 62.2934C47.3461 64.1549 46.5889 66.026 45.9927 67.8876H40.0774C42.1595 65.2662 45.0084 63.2907 48.2925 62.2934ZM38.5914 70.072H45.368C44.7717 72.4845 44.4594 74.8874 44.4216 77.2998H36.443C36.6039 74.6784 37.3705 72.228 38.5914 70.072ZM38.5914 86.7025C37.3705 84.5466 36.6039 82.0962 36.4335 79.4748H44.4499C44.5635 81.8872 44.9516 84.2901 45.5762 86.7025H38.5914ZM40.0679 88.8775H46.2293C46.8445 90.7676 47.6111 92.6576 48.5197 94.5382C45.1409 93.5694 42.2069 91.5559 40.0679 88.8775ZM53.1573 95.1935C52.4096 95.1935 51.6808 95.146 50.9615 95.051C49.9393 92.99 49.0686 90.9385 48.3682 88.8775H57.9558C57.2554 90.9385 56.3847 92.99 55.3625 95.051C54.6337 95.146 53.905 95.1935 53.1573 95.1935ZM57.8043 94.5382C58.7129 92.6481 59.4795 90.7581 60.0947 88.8775H66.2561C64.1077 91.5559 61.1737 93.5694 57.8043 94.5382ZM67.7231 86.7025H60.7288C61.363 84.2901 61.7415 81.8872 61.8551 79.4748H69.8715C69.7106 82.0867 68.944 84.5466 67.7231 86.7025ZM69.8715 77.2903H61.893C61.8457 74.8779 61.5333 72.475 60.9465 70.0625H67.7231C68.944 72.228 69.7106 74.6784 69.8715 77.2903Z" fill="white"/>
<path d="M587.313 243.614H537.104C532.23 243.614 528.273 239.644 528.273 234.753V187.91C528.273 184.197 531.274 181.195 534.965 181.195H587.313C591.014 181.195 594.004 184.206 594.004 187.91V236.899C594.004 240.613 591.004 243.614 587.313 243.614Z" fill="#000072"/>
<path d="M568.836 207.303C568.836 202.878 565.259 199.297 560.858 199.297C556.447 199.297 552.879 202.887 552.879 207.303C552.879 211.729 556.457 215.31 560.858 215.31C565.259 215.31 568.827 211.72 568.836 207.303ZM554.866 207.303C554.866 203.989 557.545 201.291 560.858 201.291C564.161 201.291 566.849 203.979 566.849 207.303C566.849 210.618 564.17 213.316 560.858 213.316C557.545 213.306 554.866 210.618 554.866 207.303Z" fill="white"/>
<path d="M560.048 230.923C560.37 231.37 560.994 231.465 561.439 231.142C561.524 231.085 561.591 231.009 561.657 230.923C561.742 230.81 562.121 230.287 562.698 229.47L568.585 220.324C571.32 215.642 573.819 210.484 573.819 207.303C573.819 200.113 568.008 194.281 560.843 194.281C553.678 194.281 547.867 200.113 547.867 207.303C547.867 210.399 550.224 215.347 552.874 219.916L559.007 229.47C559.594 230.287 559.972 230.81 560.048 230.923ZM560.852 196.285C566.91 196.285 571.831 201.215 571.831 207.303C571.831 212.089 564.534 223.411 560.852 228.616C557.171 223.411 549.874 212.089 549.874 207.303C549.874 201.215 554.795 196.285 560.852 196.285Z" fill="white"/>
<path d="M97.7155 191.484L93.6836 201.201C93.6836 201.201 116.89 217.879 136.094 227.462C142.151 230.482 149.183 225.515 148.814 218.743C148.814 218.676 148.805 218.6 148.805 218.534C148.596 214.858 146.192 211.677 142.719 210.499C123.08 203.812 119.247 201.153 97.7155 191.484Z" fill="#D97F48"/>
<path d="M96.7611 202.076C96.7611 202.076 76.687 210.956 69.3047 198.067L99.7425 190.488L96.7611 202.076Z" fill="#D97F48"/>
<path d="M159.333 156.895C149.736 173.392 138.161 197.003 131.801 214.992C130.164 219.637 131.848 224.832 136.316 226.874C136.372 226.902 136.42 226.921 136.477 226.95C140.859 228.973 146.036 227.32 148.373 223.094C162.882 196.823 175.801 176.355 175.801 176.355L159.333 156.895Z" fill="#D97F48"/>
<path d="M159.724 152.344C159.724 152.344 145.3 155.421 133.242 191.151L160.386 207.317L170.4 187.371L159.724 152.344Z" fill="#FAE0E3"/>
<path d="M146.37 198.319H115.043V193.285H146.37C147.752 193.285 148.878 194.415 148.878 195.802C148.878 197.189 147.762 198.319 146.37 198.319Z" fill="#08101C"/>
<path d="M127.499 198.303H56.118C54.4522 198.303 52.9663 197.211 52.4742 195.615L39.8296 153.179C39.2807 151.422 40.5868 149.637 42.4229 149.637H110.113C111.779 149.637 113.264 150.729 113.757 152.325L127.499 198.303Z" fill="#000072"/>
<path d="M86.3086 172.29C86.8386 175.244 84.8889 178.064 81.9455 178.596C79.002 179.128 76.1911 177.172 75.6611 174.218C75.1311 171.264 77.0808 168.443 80.0242 167.911C82.9677 167.38 85.7786 169.336 86.3086 172.29Z" fill="#E6F5FA"/>
<path d="M223.793 203.208C223.793 203.208 241.018 265.627 248.05 319.916L259.881 317.665C259.881 317.665 256.209 238.112 244.284 188.895L223.793 203.208Z" fill="#D97F48"/>
<path d="M259.791 314.949C259.791 314.949 277.594 341.324 256.232 353.177C254.822 353.956 253.052 353.643 252.011 352.408L251.869 352.247C250.724 350.889 250.847 348.904 252.096 347.631C255.134 344.544 259.214 338.143 252.712 329.794C252.712 329.794 249.295 330.668 249.872 337.468C250.024 339.216 248.566 340.697 246.825 340.527C245.632 340.413 244.657 339.558 244.373 338.399C243.256 333.916 241.401 322.794 248.547 316.82L259.791 314.949Z" fill="#D97F48"/>
<path d="M226.034 152.336C226.034 152.336 237.05 155.556 248.805 192.91L221.661 209.075L215.367 187.364L226.034 152.336Z" fill="#FAE0E3"/>
<path d="M224.367 151.332L203.914 143.164L182.893 143.449L161.797 151.209C157.841 152.662 155.617 156.888 156.658 160.991L172.151 222.318H213.653L227.963 158.161C228.597 155.302 227.074 152.405 224.367 151.332Z" fill="#FAE0E3"/>
<path d="M213.654 222.309H172.152V228.976H213.654V222.309Z" fill="#111D36"/>
<path d="M165.955 197.767L158.828 169.578" stroke="#51A99F" stroke-width="1.3684" stroke-miterlimit="10"/>
<path d="M218.801 199.23L225.416 169.578" stroke="#FAE0E3" stroke-width="1.3684" stroke-miterlimit="10"/>
<path d="M213.654 228.977H172.152C172.152 228.977 152.04 234.086 138.582 328.617C136.528 343.025 134.758 357.072 133.234 370.531H172.427L189.747 283.285L193.533 284.282L199.921 370.521H236.747L237.514 323.935C237.514 323.944 234.201 248.114 213.654 228.977Z" fill="#006AB8"/>
<path d="M193.533 284.287L180.633 279.234" stroke="#005A94" stroke-width="1.3684" stroke-miterlimit="10"/>
<path d="M227.532 107.395C225.696 100.405 225.024 101.658 218.853 87.7441C215.162 79.4336 212.304 76.0999 210.609 74.7512C210.609 74.7512 204.372 68.0078 193.204 68.0078C182.547 68.0078 176.376 74.4093 176.376 74.4093C174.758 75.492 171.72 78.6263 167.669 87.7346C161.489 101.639 160.826 100.386 158.99 107.385C157.154 114.376 159.492 127.274 173.849 129.79C173.849 129.79 172.013 127.948 171.341 124.928C171.341 124.928 177.351 133.134 185.529 132.63H200.984C209.161 133.134 215.171 124.928 215.171 124.928C214.499 127.948 212.663 129.79 212.663 129.79C227.03 127.283 229.368 114.385 227.532 107.395Z" fill="#111D36"/>
<path d="M212.387 146.547L203.926 143.166L201.37 120.817C201.37 120.817 198.73 123.515 195.228 124.17C191.726 124.826 188.338 122.765 188.291 122.746C188.243 122.717 185.432 120.371 185.432 120.371L182.896 143.451L173.668 146.841C173.668 146.841 174.264 152.853 193.771 152.853C213.286 152.853 212.387 146.547 212.387 146.547Z" fill="#D97F48"/>
<path d="M183.836 121.161C183.836 121.161 189.193 131.542 195.572 130.06C202.235 128.512 202.206 119.727 202.206 119.727L183.836 121.161Z" fill="#111D36"/>
<path d="M216.204 91.323C216.204 104.04 206.342 114.345 194.18 114.345C182.018 114.345 172.156 104.04 172.156 91.323C172.156 78.6056 182.018 69.9531 194.18 69.9531C206.342 69.9531 216.204 78.6056 216.204 91.323Z" fill="#111D36"/>
<path d="M212.38 92.5029C212.38 100.434 211.282 107.272 210.184 112.125C209.105 116.874 206.086 120.198 201.817 122.877L201.041 123.361C196.517 126.191 190.687 126.258 186.097 123.532C181.469 120.778 178.232 117.159 177.229 112.059C175.412 102.779 175.213 92.5029 175.213 92.5029C175.213 92.5029 173.49 72.4912 193.527 72.8806C213.572 73.27 212.38 92.5029 212.38 92.5029Z" fill="#D97F48"/>
<path d="M177.396 111.3C173.866 114.358 166.427 102.239 169.853 98.9715C173.269 95.7043 175.692 101.023 175.692 101.023L176.383 104.851L177.415 110.008L177.68 111.167L177.396 111.3Z" fill="#D97F48"/>
<path d="M171.375 103.052C171.375 103.052 172.823 99.9177 176.183 105.426" stroke="#111D36" stroke-width="1.0039" stroke-miterlimit="10" stroke-linecap="round" stroke-linejoin="round"/>
<path d="M210.175 111.371C213.762 114.372 220.983 102.13 217.51 98.9194C214.036 95.7092 211.708 101.066 211.708 101.066L211.083 104.903L210.137 110.07L209.891 111.228L210.175 111.371Z" fill="#D97F48"/>
<path d="M216.04 103.021C216.04 103.021 214.544 99.9062 211.27 105.472" stroke="#111D36" stroke-width="1.0039" stroke-miterlimit="10" stroke-linecap="round" stroke-linejoin="round"/>
<path d="M175.469 98.746C175.469 98.746 183.485 87.8711 181.63 76.8633C181.63 76.8633 175.686 79.8646 174.134 87.6242C172.582 95.3648 175.469 98.746 175.469 98.746Z" fill="#111D36"/>
<path d="M212.712 98.9514C212.712 98.9514 203.077 87.1267 204.933 76.1094C204.933 76.1094 211.387 79.8515 212.939 87.6016C214.482 95.3613 212.712 98.9514 212.712 98.9514Z" fill="#111D36"/>
<path d="M169.52 90.917H218.044C218.044 90.917 212.583 70.2879 192.111 69.0627C171.64 67.8375 169.52 90.917 169.52 90.917Z" fill="#111D36"/>
<path d="M186.761 100.278C186.761 101.304 185.938 102.13 184.916 102.13C183.894 102.13 183.07 101.304 183.07 100.278C183.07 99.2522 183.894 98.4259 184.916 98.4259C185.938 98.4164 186.761 99.2522 186.761 100.278Z" fill="#111D36"/>
<path d="M203.875 100.278C203.875 101.304 203.051 102.13 202.029 102.13C201.007 102.13 200.184 101.304 200.184 100.278C200.184 99.2522 201.007 98.4259 202.029 98.4259C203.042 98.4164 203.875 99.2522 203.875 100.278Z" fill="#111D36"/>
<path d="M192.539 104.316V106.814C192.539 107.441 193.097 107.916 193.694 107.793L195.019 107.517" stroke="#111D36" stroke-width="0.9876" stroke-miterlimit="10" stroke-linecap="round" stroke-linejoin="round"/>
<path d="M190.4 94.5325L179.203 95.8812C179.203 95.8812 180.102 92.8989 184.674 92.386C189.245 91.8731 190.4 94.5325 190.4 94.5325Z" fill="#111D36"/>
<path d="M196.855 94.5325L208.052 95.8812C208.052 95.8812 207.153 92.8989 202.581 92.386C198.001 91.8731 196.855 94.5325 196.855 94.5325Z" fill="#111D36"/>
<path d="M183.095 107.884C187.313 107.884 190.733 104.452 190.733 100.219C190.733 95.9863 187.313 92.5547 183.095 92.5547C178.877 92.5547 175.457 95.9863 175.457 100.219C175.457 104.452 178.877 107.884 183.095 107.884Z" stroke="#6FC7BF" stroke-width="1.083" stroke-miterlimit="10"/>
<path d="M204.732 107.884C208.95 107.884 212.369 104.452 212.369 100.219C212.369 95.9863 208.95 92.5547 204.732 92.5547C200.513 92.5547 197.094 95.9863 197.094 100.219C197.094 104.452 200.513 107.884 204.732 107.884Z" stroke="#6FC7BF" stroke-width="1.083" stroke-miterlimit="10"/>
<path d="M190.73 100.853C190.73 100.853 193.428 96.6928 197.091 100.853" stroke="#6FC7BF" stroke-width="1.083" stroke-miterlimit="10"/>
<path d="M187.816 111.305H200.007C200.007 111.305 194.29 118.143 187.816 111.305Z" fill="white"/>
<path d="M452.472 172.258L480.298 196.43C485.56 200.998 486.213 208.957 481.755 214.333C477.279 219.727 469.319 220.516 463.886 216.09L436.316 193.666L452.472 172.258Z" fill="#F7A771"/>
<path d="M417.02 148.594C437.255 151.88 459.468 172.262 459.468 172.262L441.097 198.637L416.906 178.759L417.02 148.594Z" fill="#F2B65A"/>
<path d="M481.862 145.75L461.854 203.107C459.621 209.451 463.16 216.366 469.587 218.256C476.363 220.241 483.329 215.786 484.399 208.777L494.658 147.868L481.862 145.75Z" fill="#F7A771"/>
<path d="M481.861 145.751C481.861 145.751 477.933 140.67 477.148 126.129C477.1 125.217 477.621 124.371 478.435 123.982C479.637 123.412 481.066 124.011 481.511 125.274L483.498 131.343L494.657 147.878L481.861 145.751Z" fill="#F7A771"/>
<path d="M483.5 131.345L483.983 111.172C484.021 110.317 484.588 109.111 485.686 109.064C486.879 108.931 487.778 109.766 487.806 110.707L488.261 125.01L490.911 108.285C491.043 107.468 491.781 106.908 492.595 107.003C493.4 107.098 493.987 107.791 493.949 108.608L493.087 126.758L496.712 111.847C496.911 111.039 497.649 110.488 498.482 110.545C499.457 110.612 500.176 111.476 500.072 112.454L498.208 128.819L505.41 118.637C506.025 117.897 507.152 117.868 507.814 118.571C508.306 119.093 508.392 119.891 508.022 120.508L501.965 132.836C501.965 132.836 501.587 140.511 494.659 147.9L483.945 141.508L483.5 131.345Z" fill="#F7A771"/>
<path d="M483.5 131.348C483.5 131.348 491.081 131.376 491.223 138.205" stroke="#111D36" stroke-width="1.0166" stroke-miterlimit="10" stroke-linecap="round" stroke-linejoin="round"/>
<path d="M414.961 147.021L430.095 152.776C434.051 154.23 435.064 158.646 434.023 162.74L427.028 249.644H367.317L362.717 159.909C362.083 157.06 363.607 154.163 366.304 153.09L386.757 144.922L414.961 147.021Z" fill="#F2B65A"/>
<path d="M431.758 190.962L433.149 173.609" stroke="#00678D" stroke-width="1.4581" stroke-miterlimit="10"/>
<path d="M364.119 206.832C364.119 206.832 347.897 270.106 343.837 324.699L331.902 323.103C331.902 323.103 333.653 243.465 342.881 193.668L364.119 206.832Z" fill="#F7A771"/>
<path d="M364.663 154.094C364.663 154.094 351.214 157.313 339.469 194.668L369.045 210.833L375.339 189.121L364.663 154.094Z" fill="#F2B65A"/>
<path d="M408.127 144.955L406.954 123.424C406.954 123.424 402.988 126.197 399.382 126.872C395.776 127.546 392.293 125.428 392.246 125.4C392.199 125.371 388.053 122.949 388.053 122.949L386.794 144.908H386.756L380.453 147.425C380.453 147.425 384.419 154.197 397.631 153.503C410.844 152.82 414.961 146.997 414.961 146.997L408.127 144.955Z" fill="#F7A771"/>
<path d="M387.211 123.781C387.211 123.781 393.051 134.465 399.998 132.936C407.257 131.341 407.522 122.023 407.522 122.023L387.211 123.781Z" fill="#111D36"/>
<path d="M417.046 94.2777C417.046 102.436 415.91 109.484 414.784 114.479C413.676 119.371 410.562 122.79 406.171 125.544L405.366 126.048C400.71 128.963 394.7 129.03 389.977 126.219C385.217 123.388 381.876 119.656 380.853 114.403C378.989 104.849 378.781 94.2777 378.781 94.2777C378.781 94.2777 377.001 73.6771 397.634 74.076C418.276 74.4844 417.046 94.2777 417.046 94.2777Z" fill="#F7A771"/>
<path d="M381.029 113.625C377.395 116.779 369.738 104.299 373.259 100.936C376.78 97.5741 379.269 103.045 379.269 103.045L379.979 106.986L381.039 112.296L381.313 113.483L381.029 113.625Z" fill="#F7A771"/>
<path d="M374.836 105.142C374.836 105.142 376.322 101.913 379.786 107.583" stroke="#111D36" stroke-width="1.0334" stroke-miterlimit="10" stroke-linecap="round" stroke-linejoin="round"/>
<path d="M414.77 113.701C418.461 116.788 425.9 104.184 422.323 100.879C418.745 97.5738 416.351 103.092 416.351 103.092L415.707 107.043L414.732 112.362L414.477 113.559L414.77 113.701Z" fill="#F7A771"/>
<path d="M420.805 105.114C420.805 105.114 419.262 101.914 415.902 107.641" stroke="#111D36" stroke-width="1.0334" stroke-miterlimit="10" stroke-linecap="round" stroke-linejoin="round"/>
<path d="M390.68 101.026C390.68 102.08 389.828 102.935 388.777 102.935C387.727 102.935 386.875 102.08 386.875 101.026C386.875 99.972 387.727 99.1172 388.777 99.1172C389.828 99.1172 390.68 99.972 390.68 101.026Z" fill="#111D36"/>
<path d="M408.281 101.026C408.281 102.08 407.429 102.935 406.379 102.935C405.328 102.935 404.477 102.08 404.477 101.026C404.477 99.972 405.328 99.1172 406.379 99.1172C407.429 99.1172 408.281 99.972 408.281 101.026Z" fill="#111D36"/>
<path d="M396.621 103.926V107.753C396.621 108.399 397.198 108.893 397.814 108.76L399.176 108.475" stroke="#111D36" stroke-width="1.0166" stroke-miterlimit="10" stroke-linecap="round" stroke-linejoin="round"/>
<path d="M400.516 94.021L411.494 96.8703C411.494 96.8703 410.993 93.7836 406.507 92.6533C402.02 91.5326 400.516 94.021 400.516 94.021Z" fill="#111D36"/>
<path d="M393.705 94.021L382.727 96.8703C382.727 96.8703 383.228 93.7836 387.714 92.6533C392.21 91.5326 393.705 94.021 393.705 94.021Z" fill="#111D36"/>
<path d="M416.557 69.8693C409.809 65.0825 396.975 69.5369 389.867 72.6427C390.076 70.3822 388.684 68.948 388.684 68.948C376.485 72.6996 378.018 79.6805 378.87 81.9029C376.475 84.4293 373.191 90.7263 379.428 103.938C379.428 103.938 382.911 92.6544 381.425 83.679C387.208 86.3099 402.91 92.5974 412.885 88.5893C413.226 96.292 416.207 103.928 416.207 103.928C419.983 94.2405 419.453 88.4089 417.949 84.9802C419.671 82.9192 424.744 75.6724 416.557 69.8693Z" fill="#111D36"/>
<path d="M415.705 370.529H454.074C439.906 309.753 428.785 267.745 428.785 267.745L427.034 249.633H397.902L399.218 313.249L415.705 370.529Z" fill="#006AB8"/>
<path d="M399.212 313.256L397.896 249.641H367.316C344.431 284.013 357.388 345.083 357.388 345.083L360.871 370.528H399.212V313.256Z" fill="#006AB8"/>
<path d="M399.207 313.256V295.229L407.876 281.762" stroke="#005A94" stroke-width="1.3684" stroke-miterlimit="10"/>
<path d="M281.438 349.394C281.438 349.394 291.745 298.05 297.812 284.05C298.36 282.777 300.197 282.948 300.556 284.278C302.014 289.616 303.945 305.334 303.083 351.607L303.102 370.517H339.285L344.613 324.995C344.613 324.995 352.677 261.55 326.423 225.516H273.8C273.8 225.516 246.968 264.684 243.429 318.783C242.643 330.817 241.29 349.204 239.652 370.508H276.933L281.438 349.394Z" fill="#0083C8"/>
<path d="M288.789 279.234L301.112 284.287" stroke="#00678D" stroke-width="1.4581" stroke-miterlimit="10"/>
<path d="M288.656 125.608L263.348 132.589L273.806 219.284H326.911L337.388 132.209L309.336 125.219L288.656 125.608Z" fill="#F3705B"/>
<path d="M326.614 219.281H273.613V225.93H326.614V219.281Z" fill="#111D36"/>
<path d="M313.11 187.825C313.11 187.825 334.794 179.097 346.416 185.185L347.514 199.194L312.098 203.658L313.11 187.825Z" fill="#F7A771"/>
<path d="M359.454 216.087C359.454 216.087 324.246 220.332 295.711 205.307L319.883 197.965L349.744 192.922L359.454 216.087Z" fill="#FF8671"/>
<path d="M335.668 131.734C335.668 131.734 349.345 132.608 358.061 159.781C367.327 188.654 367.999 211.382 361.563 215.2C355.137 219.009 347.158 210.594 338.981 187.344C330.804 164.093 327.027 151.575 327.027 151.575L335.668 131.734Z" fill="#FF8671"/>
<path d="M332.859 169.57L334.97 152.047" stroke="#FF8671" stroke-width="1.4581" stroke-miterlimit="10"/>
<path d="M263.343 132.383C263.343 132.383 249.667 133.257 240.95 160.43C231.685 189.303 231.013 212.031 237.449 215.849C243.875 219.657 252.819 211.242 260.996 187.992C269.174 164.742 271.984 152.224 271.984 152.224L263.343 132.383Z" fill="#FF8671"/>
<path d="M267.629 167.893L265.727 152.051" stroke="#FF8671" stroke-width="1.4581" stroke-miterlimit="10"/>
<path d="M274.684 187.947C274.684 187.947 264.859 177.737 248.637 172.418C247.928 172.19 247.142 172.351 246.584 172.845C245.448 173.852 245.713 175.704 247.085 176.35L256.862 180.937L244.028 181.792C241.918 181.935 240.28 183.825 240.583 185.924C240.848 187.776 242.097 190.198 245.656 193.009L274.684 187.947Z" fill="#F7A771"/>
<path d="M245.659 193.005C245.659 193.005 292.158 183.802 314.22 183.887L323.022 205.723C323.022 205.723 254.196 223.037 237.453 215.838L245.659 193.005Z" fill="#FF8671"/>
<path d="M274.684 187.945C274.684 187.945 303.91 183.367 314.217 183.898L315.457 186.985" stroke="#FF8671" stroke-width="1.4581" stroke-miterlimit="10"/>
<path d="M273.387 215.599L323.018 205.731L315.456 186.973" stroke="#FF8671" stroke-width="1.4581" stroke-miterlimit="10"/>
<path d="M275.929 87.9419L265.547 101.543C265.547 101.543 302.894 130.33 333.606 99.5101L322.646 86.0898L275.929 87.9419Z" fill="#111D36"/>
<path d="M309.275 124.351L306.654 103.465C306.654 103.465 303.947 106.239 300.35 106.904C296.754 107.578 293.28 105.469 293.233 105.441C293.186 105.412 290.299 103 290.299 103L288.719 124.636C288.719 124.892 288.69 125.149 288.652 125.396L300.029 150.204L309.332 125.016C309.294 124.797 309.275 124.569 309.275 124.351Z" fill="#F7A771"/>
<path d="M288.652 103.814C288.652 103.814 294.151 115.467 300.701 113.938C307.534 112.343 307.506 102.332 307.506 102.332L288.652 103.814Z" fill="#111D36"/>
<path d="M321.874 73.1919C321.874 86.2418 311.757 96.8223 299.273 96.8223C286.789 96.8223 276.672 86.2418 276.672 73.1919C276.672 60.1421 286.789 51.2617 299.273 51.2617C311.757 51.2617 321.874 60.1421 321.874 73.1919Z" fill="#111D36"/>
<path d="M317.94 74.4065C317.94 82.5461 316.814 89.5649 315.688 94.5417C314.59 99.4235 311.485 102.833 307.103 105.578L306.308 106.081C301.671 108.988 295.68 109.054 290.966 106.252C286.215 103.432 282.893 99.7085 281.871 94.4752C280.006 84.949 279.808 74.4065 279.808 74.4065C279.808 74.4065 278.038 53.8725 298.604 54.2714C319.171 54.6703 317.94 74.4065 317.94 74.4065Z" fill="#F7A771"/>
<path d="M282.046 93.698C278.421 96.8417 270.793 84.3997 274.304 81.047C277.815 77.6943 280.295 83.146 280.295 83.146L281.005 87.0781L282.065 92.3683L282.339 93.5555L282.046 93.698Z" fill="#F7A771"/>
<path d="M275.875 85.2336C275.875 85.2336 277.361 82.0139 280.806 87.665" stroke="#111D36" stroke-width="1.0303" stroke-miterlimit="10" stroke-linecap="round" stroke-linejoin="round"/>
<path d="M315.678 93.7619C319.36 96.8392 326.771 84.2737 323.212 80.978C319.644 77.6823 317.259 83.1815 317.259 83.1815L316.615 87.123L315.65 92.4322L315.395 93.6195L315.678 93.7619Z" fill="#F7A771"/>
<path d="M321.706 85.2057C321.706 85.2057 320.163 82.0145 316.812 87.7226" stroke="#111D36" stroke-width="1.0303" stroke-miterlimit="10" stroke-linecap="round" stroke-linejoin="round"/>
<path d="M318.522 69.3835C317.291 63.2194 313.051 59.5438 311.196 58.1857C308.887 55.8967 305.839 54.0921 301.788 53.5698C301.788 53.5698 288.945 50.6635 283.626 60.4081C281.79 62.1367 279.575 65.024 278.705 69.374C277.114 77.333 280.067 80.7997 280.067 80.7997C280.067 80.7997 285.121 73.9424 286.39 65.5369C290.28 68.7661 298.163 72.8121 313.136 72.6032C315.474 77.5515 318.294 81.0182 318.294 81.0182C318.294 81.0182 320.112 77.3425 318.522 69.3835Z" fill="#111D36"/>
<path d="M291.653 82.384C291.653 83.4382 290.801 84.2835 289.76 84.2835C288.71 84.2835 287.867 83.4287 287.867 82.384C287.867 81.3297 288.719 80.4845 289.76 80.4845C290.811 80.475 291.653 81.3297 291.653 82.384Z" fill="#111D36"/>
<path d="M309.219 82.384C309.219 83.4382 308.368 84.2835 307.326 84.2835C306.276 84.2835 305.434 83.4287 305.434 82.384C305.434 81.3297 306.285 80.4845 307.326 80.4845C308.368 80.475 309.219 81.3297 309.219 82.384Z" fill="#111D36"/>
<path d="M297.133 86.5273V89.0917C297.133 89.7376 297.71 90.2219 298.316 90.0985L299.679 89.8135" stroke="#111D36" stroke-width="1.0135" stroke-miterlimit="10" stroke-linecap="round" stroke-linejoin="round"/>
<path d="M306.472 73.5804C306.472 73.5804 300.916 73.1245 300.859 75.3945C300.859 75.3945 300.859 76.9331 305.705 77.237C310.551 77.5409 311.81 77.1895 312.255 75.7459C312.7 74.2927 309.075 73.5899 306.472 73.5804Z" fill="#111D36"/>
<path d="M289.863 73.5804C289.863 73.5804 295.419 73.1245 295.475 75.3945C295.475 75.3945 295.475 76.9331 290.63 77.237C285.784 77.5409 284.525 77.1895 284.08 75.7459C283.635 74.2927 287.26 73.5899 289.863 73.5804Z" fill="#111D36"/>
<path d="M303.562 92.0781C303.562 92.0781 301.565 95.2883 296.426 94.386" stroke="#111D36" stroke-width="1.0135" stroke-miterlimit="10" stroke-linecap="round" stroke-linejoin="round"/>
<path d="M403.14 116.543C403.14 116.543 401.143 119.753 396.004 118.851" stroke="#111D36" stroke-width="1.0135" stroke-miterlimit="10" stroke-linecap="round" stroke-linejoin="round"/>
<path d="M45.4453 370.527H533.131" stroke="#111D36" stroke-width="0.9847" stroke-miterlimit="10" stroke-linecap="round" stroke-linejoin="round"/>
</g>
<defs>
<clipPath id="clip0">
<rect width="594" height="371" fill="white"/>
</clipPath>
</defs>
</svg>
