<svg width="1440" height="584" viewBox="0 0 1440 584" fill="none" xmlns="http://www.w3.org/2000/svg">
<g clip-path="url(#clip0)">
<rect width="1440" height="584" fill="white"/>
<rect x="-2.88281" y="1.16211" width="1440" height="584" fill="#F3705B"/>
<path d="M1618.08 263.554C1688.12 585.163 1454.62 600.162 1308.12 585.163C1163.4 585.163 1027.12 467.686 1027.12 322.771C1027.12 177.856 1192.36 1.16271 1337.08 1.16271C1657.62 -13.8377 1618.08 118.639 1618.08 263.554Z" fill="#F6A428"/>
<path d="M-121.164 490.825C-174.086 382.214 -23.2115 372.109 30.4483 364.727C82.1713 352.15 141.066 382.203 153.633 433.885C166.2 485.568 129.084 572.845 76.5367 583.39C-76.4191 601.322 -108.596 542.508 -121.164 490.825Z" fill="#3B72FF"/>
<g filter="url(#filter0_bd)">
<rect x="27.1172" y="27.1621" width="1380" height="532" rx="12" fill="url(#paint0_linear)"/>
</g>
<path d="M245.458 249.207C232.426 249.193 219.931 244.068 210.716 234.957C201.5 225.846 196.317 213.494 196.303 200.609C196.303 200.529 196.303 200.446 196.303 200.365C196.303 200.205 196.282 199.965 196.264 199.647C195.255 181.998 198.173 134.347 246.938 73.2878C247.377 72.7394 247.998 72.362 248.691 72.2221C249.385 72.0822 250.105 72.1888 250.727 72.5232C251.348 72.8575 251.83 73.3981 252.088 74.0495C252.346 74.701 252.362 75.4214 252.135 76.0838C251.997 76.4875 238.67 115.956 247.776 152.07C260.601 152.665 272.682 158.197 281.435 167.485C290.187 176.772 294.917 189.076 294.613 201.767C294.309 214.457 288.994 226.526 279.806 235.393C270.618 244.259 258.285 249.22 245.446 249.213L245.458 249.207ZM202.307 200.778C202.34 209.209 204.899 217.44 209.661 224.434C214.423 231.428 221.173 236.87 229.061 240.074C236.949 243.277 245.62 244.098 253.979 242.434C262.338 240.769 270.011 236.693 276.029 230.72C282.047 224.747 286.14 217.145 287.791 208.874C289.443 200.603 288.579 192.033 285.308 184.248C282.037 176.462 276.506 169.809 269.414 165.128C262.321 160.448 253.985 157.95 245.458 157.95C244.8 157.95 244.161 157.736 243.638 157.342C243.116 156.948 242.738 156.395 242.564 155.768C235.659 130.924 239.045 104.864 242.477 89.0489C203.796 142.619 201.367 183.509 202.271 199.315C202.312 199.801 202.324 200.29 202.307 200.778Z" fill="white"/>
<path d="M355.95 249.207C342.918 249.193 330.423 244.068 321.208 234.957C311.993 225.846 306.809 213.494 306.795 200.609C306.795 200.529 306.795 200.446 306.795 200.365C306.795 200.205 306.774 199.965 306.756 199.647C305.747 181.998 308.665 134.347 357.43 73.2878C357.869 72.7394 358.49 72.362 359.184 72.2221C359.877 72.0822 360.598 72.1888 361.219 72.5232C361.84 72.8575 362.322 73.3981 362.58 74.0495C362.838 74.701 362.854 75.4214 362.627 76.0838C362.489 76.4875 349.162 115.956 358.268 152.07C371.093 152.665 383.174 158.197 391.927 167.485C400.679 176.772 405.409 189.076 405.105 201.767C404.801 214.457 399.486 226.526 390.298 235.393C381.11 244.259 368.778 249.22 355.938 249.213L355.95 249.207ZM312.799 200.778C312.833 209.209 315.392 217.44 320.153 224.434C324.915 231.428 331.666 236.87 339.553 240.074C347.441 243.277 356.112 244.098 364.471 242.434C372.83 240.769 380.503 236.693 386.521 230.72C392.539 224.747 396.632 217.145 398.284 208.874C399.935 200.603 399.071 192.033 395.8 184.248C392.529 176.462 386.998 169.809 379.906 165.128C372.813 160.448 364.477 157.95 355.95 157.95C355.293 157.95 354.653 157.736 354.131 157.342C353.608 156.948 353.23 156.395 353.056 155.768C346.151 130.924 349.537 104.864 352.969 89.0489C314.288 142.619 311.857 183.509 312.76 199.315C312.802 199.801 312.815 200.29 312.799 200.778Z" fill="white"/>
</g>
<defs>
<filter id="filter0_bd" x="-32.8828" y="-32.8379" width="1590" height="752" filterUnits="userSpaceOnUse" color-interpolation-filters="sRGB">
<feFlood flood-opacity="0" result="BackgroundImageFix"/>
<feGaussianBlur in="BackgroundImage" stdDeviation="30"/>
<feComposite in2="SourceAlpha" operator="in" result="effect1_backgroundBlur"/>
<feColorMatrix in="SourceAlpha" type="matrix" values="0 0 0 0 0 0 0 0 0 0 0 0 0 0 0 0 0 0 127 0"/>
<feOffset dx="50" dy="60"/>
<feGaussianBlur stdDeviation="50"/>
<feColorMatrix type="matrix" values="0 0 0 0 0 0 0 0 0 0 0 0 0 0 0 0 0 0 0.1 0"/>
<feBlend mode="normal" in2="effect1_backgroundBlur" result="effect2_dropShadow"/>
<feBlend mode="normal" in="SourceGraphic" in2="effect2_dropShadow" result="shape"/>
</filter>
<linearGradient id="paint0_linear" x1="-335.834" y1="-134.838" x2="935.718" y2="1194.56" gradientUnits="userSpaceOnUse">
<stop stop-color="white"/>
<stop offset="1" stop-color="white" stop-opacity="0"/>
</linearGradient>
<clipPath id="clip0">
<rect width="1440" height="584" fill="white"/>
</clipPath>
</defs>
</svg>
