<svg width="360" height="524" viewBox="0 0 360 524" fill="none" xmlns="http://www.w3.org/2000/svg">
<g clip-path="url(#clip0)">
<rect width="360" height="524" fill="white"/>
<rect width="360" height="524" fill="#F3705B"/>
<path d="M-92.3386 146.624C-132.1 65.0223 -18.7455 57.4308 21.57 51.8842C60.4304 42.4347 104.679 65.0142 114.121 103.844C123.563 142.674 95.6768 208.247 56.197 216.169C-58.7213 229.642 -82.8965 185.454 -92.3386 146.624Z" fill="#3B72FF"/>
<path d="M423.87 393.609C451.943 522.481 358.351 528.491 299.631 522.481C241.624 522.481 187 475.406 187 417.338C187 359.269 253.232 288.466 311.239 288.466C439.718 282.455 423.87 335.54 423.87 393.609Z" fill="#F6A428"/>
<g filter="url(#filter0_bd)">
<rect x="5" y="5" width="350" height="512" rx="3" fill="url(#paint0_linear)"/>
</g>
<path d="M42.0229 127.599C36.8963 127.592 31.9812 125.261 28.3561 121.117C24.731 116.973 22.6919 111.354 22.6863 105.493C22.6863 105.456 22.6863 105.419 22.6863 105.382C22.6863 105.309 22.678 105.2 22.6709 105.055C22.2741 97.0274 23.422 75.3522 42.6052 47.5784C42.7779 47.329 43.0222 47.1573 43.2949 47.0937C43.5676 47.0301 43.8511 47.0786 44.0956 47.2306C44.3401 47.3827 44.5297 47.6286 44.631 47.9249C44.7324 48.2213 44.7389 48.549 44.6495 48.8503C44.5952 49.0339 39.3527 66.9867 42.9347 83.4139C47.9799 83.6846 52.7322 86.2012 56.1754 90.4257C59.6185 94.6501 61.4792 100.247 61.3595 106.019C61.2398 111.792 59.1492 117.282 55.5347 121.315C51.9203 125.348 47.069 127.604 42.0182 127.601L42.0229 127.599ZM25.0483 105.57C25.0614 109.405 26.068 113.149 27.9411 116.33C29.8143 119.511 32.4699 121.987 35.5727 123.444C38.6756 124.901 42.0865 125.275 45.3749 124.518C48.6633 123.76 51.6817 121.906 54.049 119.189C56.4163 116.472 58.0265 113.014 58.6761 109.252C59.3257 105.49 58.9857 101.592 57.699 98.0506C56.4123 94.5091 54.2366 91.4828 51.4466 89.3538C48.6566 87.2248 45.3774 86.0886 42.0229 86.0885C41.7643 86.0885 41.5128 85.9913 41.3072 85.8121C41.1015 85.6328 40.953 85.3813 40.8844 85.0962C38.1681 73.7955 39.5003 61.9412 40.8502 54.7477C25.6341 79.1151 24.6786 97.7146 25.0341 104.904C25.0502 105.125 25.0549 105.348 25.0483 105.57V105.57Z" fill="white"/>
<path d="M85.4878 127.599C80.3611 127.592 75.446 125.261 71.8209 121.117C68.1958 116.973 66.1567 111.354 66.1511 105.493C66.1511 105.456 66.1511 105.419 66.1511 105.382C66.1511 105.309 66.1428 105.2 66.1358 105.055C65.7389 97.0274 66.8869 75.3522 86.07 47.5784C86.2428 47.329 86.487 47.1573 86.7597 47.0937C87.0324 47.0301 87.316 47.0786 87.5605 47.2306C87.8049 47.3827 87.9945 47.6286 88.0959 47.9249C88.1972 48.2213 88.2038 48.549 88.1143 48.8503C88.06 49.0339 82.8175 66.9867 86.3995 83.4139C91.4447 83.6846 96.1971 86.2012 99.6402 90.4257C103.083 94.6501 104.944 100.247 104.824 106.019C104.705 111.792 102.614 117.282 98.9996 121.315C95.3851 125.348 90.5338 127.604 85.4831 127.601L85.4878 127.599ZM68.5131 105.57C68.5262 109.405 69.5328 113.149 71.406 116.33C73.2791 119.511 75.9347 121.987 79.0376 123.444C82.1404 124.901 85.5513 125.275 88.8397 124.518C92.1281 123.76 95.1465 121.906 97.5139 119.189C99.8812 116.472 101.491 113.014 102.141 109.252C102.791 105.49 102.451 101.592 101.164 98.0506C99.8772 94.5091 97.7015 91.4828 94.9115 89.3538C92.1215 87.2248 88.8422 86.0886 85.4878 86.0885C85.2291 86.0885 84.9777 85.9913 84.772 85.8121C84.5663 85.6328 84.4178 85.3813 84.3493 85.0962C81.633 73.7955 82.9651 61.9412 84.315 54.7477C69.0989 79.1151 68.1423 97.7146 68.4978 104.904C68.5142 105.125 68.5193 105.348 68.5131 105.57V105.57Z" fill="white"/>
</g>
<defs>
<filter id="filter0_bd" x="-55" y="-55" width="470" height="632" filterUnits="userSpaceOnUse" color-interpolation-filters="sRGB">
<feFlood flood-opacity="0" result="BackgroundImageFix"/>
<feGaussianBlur in="BackgroundImage" stdDeviation="30"/>
<feComposite in2="SourceAlpha" operator="in" result="effect1_backgroundBlur"/>
<feColorMatrix in="SourceAlpha" type="matrix" values="0 0 0 0 0 0 0 0 0 0 0 0 0 0 0 0 0 0 127 0"/>
<feOffset/>
<feGaussianBlur stdDeviation="25"/>
<feColorMatrix type="matrix" values="0 0 0 0 0 0 0 0 0 0 0 0 0 0 0 0 0 0 0.1 0"/>
<feBlend mode="normal" in2="effect1_backgroundBlur" result="effect2_dropShadow"/>
<feBlend mode="normal" in="SourceGraphic" in2="effect2_dropShadow" result="shape"/>
</filter>
<linearGradient id="paint0_linear" x1="-138.452" y1="-199.823" x2="491.748" y2="-28.6357" gradientUnits="userSpaceOnUse">
<stop stop-color="white"/>
<stop offset="1" stop-color="white" stop-opacity="0"/>
</linearGradient>
<clipPath id="clip0">
<rect width="360" height="524" fill="white"/>
</clipPath>
</defs>
</svg>
