<svg width="30" height="30" viewBox="0 0 30 30" fill="none" xmlns="http://www.w3.org/2000/svg">
<path d="M15.1302 29.7495C23.2042 29.7495 29.7495 23.2042 29.7495 15.1302C29.7495 7.05624 23.2042 0.510986 15.1302 0.510986C7.05624 0.510986 0.510986 7.05624 0.510986 15.1302C0.510986 23.2042 7.05624 29.7495 15.1302 29.7495Z" fill="black"/>
<path d="M7.23462 23.4001L8.45462 18.8501C7.76462 17.6001 7.40462 16.2101 7.40462 14.7901C7.40462 10.1601 11.1746 6.39014 15.8046 6.39014C20.4346 6.39014 24.2046 10.1601 24.2046 14.7901C24.2046 19.4201 20.4346 23.1901 15.8046 23.1901C14.4146 23.1901 13.0446 22.8401 11.8146 22.1701L7.23462 23.4001ZM12.0346 20.4701L12.3246 20.6401C13.3846 21.2701 14.5846 21.6001 15.8046 21.6001C19.5646 21.6001 22.6146 18.5401 22.6146 14.7901C22.6146 11.0301 19.5546 7.98014 15.8046 7.98014C12.0446 7.98014 8.99462 11.0401 8.99462 14.7901C8.99462 16.0301 9.33462 17.2501 9.99462 18.3201L10.1746 18.6101L9.49462 21.1501L12.0346 20.4701Z" fill="white"/>
<path fill-rule="evenodd" clip-rule="evenodd" d="M18.9247 15.9601C18.5747 15.7501 18.1247 15.5201 17.7247 15.6901C17.4147 15.8201 17.2147 16.3101 17.0147 16.5601C16.9147 16.6901 16.7847 16.7101 16.6247 16.6401C15.4547 16.1701 14.5547 15.3901 13.9047 14.3101C13.7947 14.1401 13.8147 14.0101 13.9447 13.8501C14.1447 13.6201 14.3847 13.3601 14.4347 13.0501C14.4847 12.7401 14.3447 12.3801 14.2147 12.1001C14.0547 11.7501 13.8647 11.2401 13.5147 11.0401C13.1847 10.8601 12.7647 10.9601 12.4747 11.1901C11.9747 11.6001 11.7347 12.2301 11.7447 12.8701C11.7447 13.0501 11.7647 13.2301 11.8147 13.4001C11.9147 13.8201 12.1047 14.2101 12.3247 14.5801C12.4847 14.8601 12.6647 15.1301 12.8547 15.3901C13.4847 16.2401 14.2647 16.9801 15.1647 17.5401C15.6147 17.8201 16.1047 18.0601 16.6047 18.2301C17.1647 18.4201 17.6747 18.6101 18.2847 18.5001C18.9247 18.3801 19.5547 17.9801 19.8047 17.3701C19.8747 17.1901 19.9147 16.9801 19.8747 16.7901C19.7847 16.3901 19.2447 16.1501 18.9247 15.9601Z" fill="white"/>
</svg>
